<svg xmlns="http://www.w3.org/2000/svg" width="100" height="62.7" viewBox="0 0 22578 9293"><path d="M16226 3105c126-4 226 149 176 268-25 95-124 169-220 139a211 211 0 01-137-279c28-75 102-132 181-128zm1-91c-56 0-110 21-160 44-68 40-106 120-120 197a305 305 0 00138 312c83 53 194 54 277 1 62-37 106-101 123-173 39-105 8-232-74-307-49-47-117-74-184-75zM6317 4425c-831 711-11 1523 450 1980l61-66c-113-109-224-228-318-325-105-689 8-1023 751-1178l-6-91c-722 114-926 508-847 1161-299-570-576-864-36-1409zm-1669 879c237 129 459 286 694 428-322 347-490 689-917 741 126-149 141-275 318-494-251 53-542 168-756 278 161-233 143-302 590-569-290-43-620 13-854 91 127-178 299-320 502-400 133-54 280-78 423-75zm6197-3531a4160 4160 0 00-1754-324c-58-4241-3580-1101-6001 565C4096-321 6663-2016 8647-2301c1984-284 5099 675 2198 4073zm4957 768c301-5 598 183 720 468 95 226 77 498-41 711a780 780 0 01-748 409 776 776 0 01-662-505 805 805 0 01123-788 768 768 0 01609-295zM2962 2196c2194-1552 6059-4947 6025-745-1247 51-2564 585-3154 1442-228 309-261 316-561 293-4022-871-6909 3143-4239 5402l53-42C895 5833 2284 4173 4489 5223c-100 11-198 31-380 105a1539 1539 0 00-559 560c545-96 552-103 769-131-268 152-359 371-462 643 528-218 502-212 673-275-92 122-166 268-238 400 619 60 777-410 1130-745 91 53 183 104 279 145h1c195 85 406 118 581 153 9 77-25 144-79 188-92-13-150 20-186 35-498-285-790-50-956 218l273 195c-413-52-663 256-722 602 1396 347 222-206 467 813 538-194 973-383 1140-955 948-197 1345-929 2027-1372 381 2124 390 3612-2380 3777-1124-37-2298-583-3142-990 1392 2650 5924 5100 7869 894 469-1193-285-2479 145-3870 1873-654 3443 62 5086 477l1 1c1697 321 3094-65 4439-961l-49-76c-1315 881-2965 1268-4370 948-1864-530-3277-1117-5074-497 162-437 357-849 587-1172l-71-54c-1597 2208-202 3883-779 5182-1608 3563-5610 2234-7534-630 910 467 1949 864 2893 846 2655-117 2748-1290 2626-2865-164-1277-283-1188 145-2332l-79-42a3820 3820 0 00-319 1267c-1012 646-1381 1375-2116 1384-128 653-641 770-983 915-99-741 988-404-422-764 185-775 1331-124 451-742 291-359 524-269 834-97 196-146 432 3 417 291l88 12c11-265-142-377-236-418 79-80 65-199 79-284-462-39-875-289-1143-461C2866 4031 928 4920 948 8417c-2598-2876 1218-5843 4275-5138 33 178-39 292-91 425l73 53c108-153 99-328 109-466 76 12 155 19 235-3 151 127 211 300 282 459l86-24c-45-201-178-352-279-476 107-64 177-169 242-267 339 179 482 453 544 757l89-1c-88-435-306-681-574-832 2461-2427 5876-1121 6833 671 47 216-13 273-89 444l72 52c111-138 108-298 112-450 72 18 147 10 217-12 63 160 52 285 60 439l88 4c17-165-34-335-65-476 241-48 422-402 448-677-926-816-345-2266 342-2688-619 1710 117 2291 1060 2737-265 534 66 1193 660 1272h2c602 78 1090-482 969-1082 1933 481 4048-287 5878-320-2228 1784-5218 3631-7898 1769l-54 72c2373 1924 5721 270 8075-1843 14-25 7-60 10-92-2146 61-4016 749-6039 318a859 859 0 00-797-583 870 870 0 00-761 410c-1247-559-1425-1343-1025-2603l32-167-43-33c-491 192-1686 1616-507 2879-133 413-324 588-685 566-258-464-865-1203-1915-1687 2626-3029 421-4314-1673-4254-2094 59-5331 1869-6290 4635z"/></svg>
