<svg width="80.3" height="48.7" fill="none" fill-rule="evenodd" stroke-linejoin="round" stroke-width="28.2" preserveAspectRatio="xMidYMid" version="1.1" viewBox="0 0 18132 7218" xmlns="http://www.w3.org/2000/svg"><g transform="translate(10.7 -97.1)"><path d="m12970 2504c101-3.13 181 115 141 208-20 73.5-99.5 131-176 107-90.6-21.6-149-130-110-216 22.6-58.2 81.7-102 145-99zm0.881-70.6c-44.8-0.177-87.7 16.2-128 33.7-54.7 31.3-84.8 93.1-95.8 153-17.6 93.3 27.2 195 110 242 66.4 41.1 155 41.5 222 0.656 49.3-28.8 84.9-78.5 98.5-134 30.6-81.8 5.71-180-59.4-238-39.7-36.7-93.9-57.7-147-58.4zm-7928 1094c-665 551-9.16 1180 360 1535l48.5-51.6c-90-84.8-179-177-254-252-84-534 5.9-793 601-913l-4.85-70.6c-578 88.3-741 394-678 900-239-442-461-670-28.6-1092zm-1335 681c189 100 367 222 555 332-258 269-392 534-734 574 101-115 113-213 255-383-201 41.2-434 131-605 216 129-181 114-234 472-441-232-33.6-496 10.1-683 70.1 101-138 239-248 401-310 107-41.9 224-60.2 339-57.8zm4957-2737c-491-193-940-266-1403-251-46.3-3288-2864-854-4801 438 805-1810 2859-3124 4446-3345 1587-220 4079 523 1758 3157zm3966 595c241-3.62 478 142 576 363 76.1 175 61.8 386-33.2 551-116 210-359 340-598 317-233-14.8-448-173-530-391-82.5-202-41.1-445 98.9-611 117-146 301-231 487-229zm-10272-267c1755-1203 4847-3835 4820-578-998 40.1-2051 454-2523 1118-183 240-209 245-449 227-3218-675-5527 2437-3391 4188l42.3-32.6c-153-2103 958-3390 2722-2576-79.5 8.82-158 24.1-304 81.1-206 122-350 267-447 434 436-74.1 442-79.8 615-101-214 118-287 287-369 498 422-169 401-164 538-213-73.7 94.6-133 208-190 310 495 46.4 621-318 904-577 72.7 40.7 146 80 223 112h0.452c156 65.8 325 91.2 465 119 6.86 59.5-19.7 111-63.1 145-73.6-9.72-120 15.7-149 27.3-398-221-632-38.6-765 169l219 151c-331-39.9-531 199-578 467 1117 269 178-160 374 630 430-150 778-297 912-740 758-153 1076-720 1621-1064 305 1647 312 2800-1904 2928-899-28.5-1838-452-2513-767 1113 2054 4739 3953 6295 693 375-925-228-1922 116-3e3 1498-507 2754 48.2 4069 370l0.452 0.452c1358 249 2475-50.5 3551-745l-38.8-59.1c-1052 683-2372 983-3496 735-1491-411-2622-866-4059-385 129-339 285-658 469-909l-56.9-41.9c-1277 1712-161 3010-623 4017-1286 2762-4488 1732-6027-488 728 362 1559 670 2314 656 2124-90.9 2199-1e3 2101-2221-131-990-226-921 116-1808l-63.1-32.2c-153 320-230 679-255 982-810 501-1105 1066-1693 1073-102 506-513 597-786 709-79.5-574 790-313-338-592 148-601 1065-96.5 361-575 233-279 419-209 667-75.8 157-113 346 2.22 334 226l70.1 8.82c8.76-205-114-292-189-324 63.4-61.5 52.1-154 63.1-220-369-29.9-700-224-914-357-1875-1171-3426-482-3410 2229-2078-2229 975-4529 3420-3983 26.4 138-31.1 227-72.3 330l57.8 40.6c86.8-118 79.7-254 87.3-361 60.9 9.43 124 14.7 188-2.65 121 98.7 169 233 226 356l68.4-18.5c-35.5-156-142-273-223-369 86-49.4 142-131 194-207 271 139 385 351 435 587l71-0.88c-70.2-337-245-528-459-645 1969-1881 4701-869 5466 520 38.1 168-10.4 212-71 344l57.8 40.6c88.7-107 86.2-231 89.1-349 57.9 14.3 118 7.72 174-8.82 50.5 124 41.7 221 47.6 340l71 3.53c13.2-128-27.3-260-52.5-369 193-37.8 338-312 359-525-741-633-276-1757 273-2084-495 1326 93.5 1776 848 2122-212 414 53.4 925 528 986h1.78c482 60.5 872-374 775-839 1547 373 3239-222 4703-248-1783 1383-4175 2815-6319 1371l-42.8 56.4c1898 1491 4577 209 6460-1429 11.3-19.5 5.16-46.1 7.94-70.9-1717 46.9-3213 580-4831 246-112-296-384-454-638-452-254 2.01-472 107-609 318-997-433-1140-1041-820-2018l25.6-129c-22.8-17.6-22.6-17.3-34-26-393 149-1349 1253-406 2232-106 320-259 456-548 439-206-360-692-933-1532-1308 2101-2348 337-3344-1338-3298-1675 45.9-4265 1449-5032 3593z" color="#000000" color-rendering="auto" dominant-baseline="auto" fill="#000" fill-rule="nonzero" image-rendering="auto" shape-rendering="auto" solid-color="#000000" stop-color="#000000" style="font-feature-settings:normal;font-variant-alternates:normal;font-variant-caps:normal;font-variant-east-asian:normal;font-variant-ligatures:normal;font-variant-numeric:normal;font-variant-position:normal;font-variation-settings:normal;inline-size:0;isolation:auto;mix-blend-mode:normal;shape-margin:0;shape-padding:0;text-decoration-color:#000000;text-decoration-line:none;text-decoration-style:solid;text-indent:0;text-orientation:mixed;text-transform:none;white-space:normal"/></g></svg>
