<?xml version="1.0" encoding="UTF-8" standalone="no"?>
<!-- Created with Inkscape (http://www.inkscape.org/) -->

<svg
   version="1.1"
   id="svg132"
   width="200"
   height="200"
   viewBox="0 0 199.99999 200"
   xmlns="http://www.w3.org/2000/svg"
   xmlns:svg="http://www.w3.org/2000/svg">
  <defs
     id="defs136" />
  <g
     id="g140"
     transform="matrix(1.3333333,0,0,-1.3333333,-0.16473106,375.20733)">
    <g
       id="g142"
       transform="matrix(0.32140653,0,0,0.32140653,15.274332,161.18272)">
      <path
         d="m 206.3614,181.2444 c 7.4602,-6.2286 13.348,-16.8863 17.6643,-31.9272 4.3161,-15.0409 6.4744,-32.4348 6.4744,-52.1818 0,-28.9744 -4.2631,-52.4123 -12.7622,-70.2675 C 209.2388,9.0125 198.0488,0.108 184.1944,0.108 c -8.8455,0 -17.1048,5.1673 -24.8048,15.5483 v 0.692 c 6.4477,-8.2123 14.5471,-12.3186 24.2719,-12.3186 13.055,0 23.7923,8.5354 32.1582,25.5603 8.3926,17.0246 12.5754,38.7556 12.5754,65.2847 0,19.7008 -1.9182,36.9564 -5.7283,51.7666 -3.8364,14.764 -9.2716,25.7908 -16.3054,33.0806 z"
         style="fill:#a30d46;fill-opacity:1;fill-rule:evenodd;stroke:#a30d46;stroke-width:0.216;stroke-linecap:butt;stroke-linejoin:miter;stroke-miterlimit:22.9256;stroke-dasharray:none;stroke-opacity:1"
         id="path144" />
      <path
         d="m 181.4769,188.119 c 12.6286,0 22.7531,-8.3047 30.3196,-24.8684 7.5668,-16.6093 11.3499,-38.7555 11.3499,-66.5305 0,-26.206 -3.7298,-47.1064 -11.19,-62.701 -7.4866,-15.5945 -17.5045,-23.3917 -30.1068,-23.3917 -9.9377,0 -18.7832,5.4901 -26.5096,16.471 -11.4032,16.2405 -17.1048,40.2783 -17.1048,72.0671 0,27.2211 3.8897,48.8597 11.6963,64.8698 7.8063,16.0557 18.3302,24.0837 31.5454,24.0837 z m 0,-12.5073 c -17.5845,0 -26.3767,-26.7599 -26.3767,-80.2797 0,-49.5057 8.659,-74.2354 25.977,-74.2354 8.0728,0 14.2273,6.5514 18.4371,19.6545 4.2094,13.1494 6.3141,32.2966 6.3141,57.5337 0,28.5594 -2.0247,48.4909 -6.0743,59.7484 -4.2897,11.719 -10.3643,17.5785 -18.2772,17.5785"
         style="fill:#1c5a34;fill-opacity:1;fill-rule:evenodd;stroke:none"
         id="path146" />
      <path
         d="m 132.7238,89.5689 -5.6061,-10.914 V 29.0001 L 136.1395,8.7625 114.5506,9.0876 94.985,8.6539 c -1.2438,0 -2.1903,0.0723 -2.84,0.2171 -2.2833,0.5057 -4.5853,2.4211 -6.9055,5.8181 h 1.1509 c 2.4687,-2.1319 5.8286,-3.1802 10.1168,-3.1802 l 2.7102,0.1086 h 33.8777 l -7.4996,16.1901 v 51.8955 l 6.2558,12.2871 z"
         style="fill:#a30d46;fill-opacity:1;fill-rule:evenodd;stroke:#a30d46;stroke-width:0.216;stroke-linecap:butt;stroke-linejoin:miter;stroke-miterlimit:22.9256;stroke-dasharray:none;stroke-opacity:1"
         id="path148" />
      <path
         d="m 112.0632,126.828 -0.9839,1.3734 c -4.121,5.7098 -7.9078,8.5649 -11.3049,8.5649 -4.1397,0 -7.7037,-2.8551 -10.711,-8.5649 -2.1719,-4.2285 -3.7496,-9.7937 -4.6964,-16.6241 -0.9655,-6.8663 -1.4479,-15.9009 -1.4479,-27.104 0,-14.2747 0.7239,-25.1887 2.1719,-32.7056 1.4479,-7.5529 4.121,-14.3833 7.982,-20.4545 v -1.1565 c -4.1952,4.8787 -7.2209,11.745 -9.0773,20.599 -1.8377,8.8541 -2.7658,20.8523 -2.7658,36.0307 0,16.732 1.6149,29.7422 4.845,39.0296 3.2298,9.288 7.7592,13.9136 13.5881,13.9136 5.0675,0 9.2072,-4.0836 12.4002,-12.287 z"
         style="fill:#a30d46;fill-opacity:1;fill-rule:evenodd;stroke:#a30d46;stroke-width:0.216;stroke-linecap:butt;stroke-linejoin:miter;stroke-miterlimit:22.9256;stroke-dasharray:none;stroke-opacity:1"
         id="path150" />
      <path
         d="m 129.4569,142.9461 -9.3002,-35.5969 -1.2994,1.1565 9.3557,35.7052 z"
         style="fill:#a30d46;fill-opacity:1;fill-rule:evenodd;stroke:#a30d46;stroke-width:0.216;stroke-linecap:butt;stroke-linejoin:miter;stroke-miterlimit:22.9256;stroke-dasharray:none;stroke-opacity:1"
         id="path152" />
      <path
         d="m 126.2081,149.5593 -10.1724,-38.9214 c -0.6497,11.0585 -2.4319,19.5511 -5.3649,25.4055 -2.9143,5.8544 -6.7569,8.7818 -11.5464,8.7818 -6.8125,0 -12.1215,-5.1679 -15.9083,-15.4673 -3.7871,-10.2997 -5.6803,-24.7552 -5.6803,-43.2944 0,-40.873 8.5946,-61.3275 25.7655,-61.3275 h 8.7619 c 0,47.6155 0,54.7517 0,63.7489 H 96.9525 94.5023 c -5.4017,0 -8.1119,3.8304 -8.1119,11.4559 0,2.9634 0.4456,5.493 1.3549,7.6252 0.9097,2.1322 2.005,3.1802 3.2672,3.1802 0.9468,0 1.7822,-0.6865 2.4874,-2.0236 0.7056,-1.3372 1.0582,-2.9274 1.0582,-4.7705 0,-3.1079 -0.5754,-4.9147 -1.745,-5.4207 l -1.3178,-0.506 c -0.4272,-0.2168 -0.65,-0.5782 -0.65,-1.0842 0,-0.9034 0.5941,-1.3734 1.8008,-1.3734 h 1.8562 35.8826 L 122.8853,81.2931 V 29.0724 l 6.9613,-11.6365 h -27.7892 -5.4946 c -4.6035,0 -8.409,1.084 -11.4163,3.2885 -3.0073,2.1682 -6.0514,6.0712 -9.1329,11.6368 -7.2953,13.0099 -10.9338,30.3928 -10.9338,52.2207 0,22.5144 3.4529,40.0779 10.3396,52.7264 6.0146,11.0948 13.1613,16.624 21.422,16.624 3.6938,0 7.945,-1.2651 12.7157,-3.8307 4.9005,-2.6019 8.1306,-3.903 9.6899,-3.903 2.2833,0 4.6038,1.1202 6.9611,3.3607"
         style="fill:#1c5a34;fill-opacity:1;fill-rule:evenodd;stroke:none"
         id="path154" />
      <path
         d="m 242.0357,90.563 2.52,-1.9877 c 1.6126,-4.1559 6.3751,-7.6255 14.237,-10.372 l 11.8936,-4.2644 c 8.0634,-2.8911 13.4305,-5.3847 16.1268,-7.4446 2.6711,-2.096 4.5862,-5.2402 5.7201,-9.4686 l -0.5293,-0.4337 c -2.2175,3.6502 -4.6114,6.3607 -7.1815,8.0592 -2.5954,1.6625 -7.5595,3.7584 -14.8921,6.2158 -10.6087,3.5416 -17.7648,6.6135 -21.3934,9.1794 -3.6538,2.5659 -5.8209,6.0713 -6.5012,10.5166 z"
         style="fill:#a30d46;fill-opacity:1;fill-rule:evenodd;stroke:#a30d46;stroke-width:0.216;stroke-linecap:butt;stroke-linejoin:miter;stroke-miterlimit:22.9256;stroke-dasharray:none;stroke-opacity:1"
         id="path156" />
      <path
         d="m 251.2582,56.2669 c 1.8144,-12.7211 6.7028,-21.7197 14.6151,-26.9961 v -0.8674 c -9.1471,3.8308 -14.6905,12.9379 -16.6056,27.3215 z"
         style="fill:#a30d46;fill-opacity:1;fill-rule:evenodd;stroke:#a30d46;stroke-width:0.216;stroke-linecap:butt;stroke-linejoin:miter;stroke-miterlimit:22.9256;stroke-dasharray:none;stroke-opacity:1"
         id="path158" />
      <path
         d="m 303.8219,86.7685 c 6.7028,-7.2641 10.0542,-17.2386 10.0542,-29.8511 0,-13.4799 -3.6539,-24.9001 -10.9361,-34.2601 -7.2822,-9.36 -16.1269,-14.0218 -26.5589,-14.0218 -5.317,0 -10.1299,0.7588 -14.4136,2.3128 l -11.818,4.1198 c -2.7464,0.976 -5.6948,1.4817 -8.8446,1.4817 -2.8222,0 -5.3924,-0.7951 -7.761,-2.4214 l -0.8819,3.0719 c 2.545,1.6986 5.1656,2.53 7.8115,2.53 2.9732,0 6.3246,-0.6506 10.1296,-1.9154 l 11.3644,-3.9033 c 4.5357,-1.554 9.2982,-2.3128 14.3379,-2.3128 9.8274,0 18.2183,4.5173 25.1226,13.5162 6.9296,8.9985 10.3819,19.8765 10.3819,32.6335 0,10.8057 -2.6711,20.2743 -7.988,28.3692 z"
         style="fill:#a30d46;fill-opacity:1;fill-rule:evenodd;stroke:#a30d46;stroke-width:0.216;stroke-linecap:butt;stroke-linejoin:miter;stroke-miterlimit:22.9256;stroke-dasharray:none;stroke-opacity:1"
         id="path160" />
      <path
         d="m 286.8384,128.7984 c -5.4179,8.2757 -11.2133,12.3956 -17.4121,12.3956 -3.7545,0 -6.8539,-1.554 -9.2982,-4.6619 -2.4693,-3.1082 -3.7041,-7.0472 -3.7041,-11.8536 0,-5.2404 2.4945,-10.5888 7.4586,-16.1181 l 0.6049,-0.5423 -0.3782,-0.8311 c -6.501,4.1559 -9.7517,10.1914 -9.7517,18.1058 0,5.4929 1.3861,9.9745 4.1326,13.4435 2.7465,3.4697 6.3499,5.2045 10.785,5.2045 4.2332,0 7.9373,-1.3011 11.1124,-3.8671 3.1748,-2.6022 5.4932,-6.2161 6.9797,-10.8779 z"
         style="fill:#a30d46;fill-opacity:1;fill-rule:evenodd;stroke:#a30d46;stroke-width:0.216;stroke-linecap:butt;stroke-linejoin:miter;stroke-miterlimit:22.9256;stroke-dasharray:none;stroke-opacity:1"
         id="path162" />
      <path
         d="m 308.408,149.8674 -0.6803,-1.5902 c -2.016,-4.8787 -3.7295,-9.5409 -5.1656,-13.9859 -3.427,-10.3719 -5.3926,-16.154 -5.8209,-17.3466 l -0.3779,-0.7591 -1.764,1.048 0.3025,0.9759 c 1.4111,4.6619 3.4773,10.7331 6.1988,18.2141 l 5.0142,13.9498 0.3781,0.8671 z"
         style="fill:#a30d46;fill-opacity:1;fill-rule:evenodd;stroke:#a30d46;stroke-width:0.216;stroke-linecap:butt;stroke-linejoin:miter;stroke-miterlimit:22.9256;stroke-dasharray:none;stroke-opacity:1"
         id="path164" />
      <path
         d="m 303.8219,154.3124 c -2.545,-4.951 -4.6112,-10.0828 -6.1232,-15.4675 -2.9984,-10.5888 -4.9892,-17.0578 -5.972,-19.4788 l -0.3778,-0.6146 c -0.2016,0.7589 -0.353,1.3734 -0.4536,1.7708 -1.3609,6.3607 -2.4948,10.7697 -3.3766,13.2631 -0.8822,2.4576 -2.2176,4.8067 -3.9813,7.0835 -4.4855,5.7098 -9.5754,8.5648 -15.2954,8.5648 -5.2665,0 -9.6259,-2.0959 -13.1284,-6.2881 -3.5025,-4.2284 -5.2413,-9.4685 -5.2413,-15.8289 0,-11.8539 6.224,-19.9491 18.6721,-24.2496 l 12.473,-4.3367 c 17.7647,-6.1438 26.6346,-19.5874 26.6346,-40.3313 0,-11.6008 -3.0489,-21.3222 -9.1219,-29.1643 -6.0726,-7.8783 -13.5819,-11.8176 -22.5524,-11.8176 -5.5939,0 -11.8684,1.2288 -18.8229,3.6862 l -8.6179,3.0719 c -3.5025,1.1925 -6.3751,1.8068 -8.6431,1.8068 -2.9985,0 -6.0979,-1.3731 -9.2982,-4.1199 l -0.6046,1.482 c 6.1231,13.1907 10.4068,25.7672 12.8511,37.6931 l 1.3354,-0.5423 c 1.0332,-11.0585 4.1326,-19.6597 9.2982,-25.8032 5.1656,-6.1438 11.9441,-9.2154 20.31,-9.2154 6.5766,0 11.8179,2.2045 15.7235,6.5772 3.8806,4.3727 5.8209,10.2634 5.8209,17.672 0,8.5289 -2.6963,15.5761 -8.1139,21.1414 -3.9056,3.9753 -11.8684,7.6255 -23.9131,11.0225 -9.2982,2.6022 -16.0514,6.9387 -20.2342,13.0102 -4.1828,6.0712 -6.2745,14.5278 -6.2745,25.2975 0,11.1671 2.7969,20.2017 8.3911,27.1766 5.569,6.9386 12.8512,10.408 21.7965,10.408 5.7704,0 12.4732,-1.4817 20.1585,-4.445 3.6034,-1.4094 6.2493,-2.0963 7.9628,-2.0963 2.4191,0 5.065,1.1929 7.9124,3.5779 z"
         style="fill:#1c5a34;fill-opacity:1;fill-rule:evenodd;stroke:none"
         id="path166" />
      <path
         d="M 1.5358,40.2103 8.4832,35.9799 C 6.8992,35.9226 5.5902,35.6057 4.5615,35.043 3.7899,34.6252 3.1629,34.0316 2.6915,33.2612 2.1359,32.3793 1.8326,31.3642 1.7821,30.2219 1.6855,28.1265 2.3573,26.329 3.7984,24.8227 c 0.9275,-0.9881 1.9854,-1.7096 3.1658,-2.1589 1.6531,-0.6227 3.4829,-1.0097 5.4875,-1.165 7.4798,-0.5757 11.363,2.2663 11.6544,8.5252 0.0289,0.6032 0.0326,1.7053 0.0235,3.3007 l -9.5349,0.7353 -0.252,-5.4593 c -0.1258,-2.7037 -1.0678,-3.9906 -2.8284,-3.8548 -0.5763,0.0417 -1.0536,0.2602 -1.4388,0.6525 -0.3779,0.3932 -0.5556,0.8473 -0.5321,1.3618 0.0142,0.3804 0.1531,0.6905 0.4088,0.9312 0.2559,0.2347 0.5592,0.3438 0.9099,0.3163 0.3135,-0.0286 0.5448,-0.119 0.6879,-0.2897 0.15,-0.1638 0.2535,-0.4683 0.3187,-0.9088 0.0258,-0.1763 0.1196,-0.2661 0.2763,-0.2783 0.2946,-0.0236 0.4604,0.4152 0.504,1.3167 l 0.6072,13.0317 2.141,-2.9427 8.4266,-0.6556 2.3624,2.5968 -0.4351,-9.2931 C 25.653,28.4329 25.5209,26.8815 25.3633,25.918 25.2,24.9528 24.9301,24.0783 24.5531,23.2943 c -1.1559,-2.3295 -2.9639,-4.0193 -5.419,-5.0755 -2.0284,-0.8521 -4.2573,-1.188 -6.7008,-0.9963 -2.3556,0.1777 -4.4833,0.809 -6.3955,1.8813 -2.1974,1.2172 -3.8069,2.9764 -4.8336,5.2634 -0.8003,1.7662 -1.152,3.5351 -1.0687,5.3056 0.0607,1.3396 0.3881,2.8567 0.9819,4.551 0.4408,1.2498 0.7002,2.0288 0.7818,2.3428 0.0825,0.3082 0.1296,0.6719 0.1474,1.0903 0.042,0.845 -0.1278,1.6973 -0.5108,2.5534"
         style="fill:#1a1a18;fill-opacity:1;fill-rule:nonzero;stroke:none"
         id="path168" />
      <path
         d="m 4.1284,64.0148 1.904,-2.4562 9.1284,1.7104 c -0.5624,1.3088 -1.2138,2.3902 -1.9531,3.2457 0.6129,0.0436 1.2904,0.1479 2.0373,0.3189 0.7464,0.1712 1.366,0.3665 1.8485,0.5748 -0.0794,-0.422 -0.1443,-0.7922 -0.1931,-1.1245 -0.1284,-0.9062 -0.055,-1.7699 0.2265,-2.5789 l 10.1928,1.8776 2.6383,2.5161 -1.4245,-9.7827 -1.8258,3.0552 -7.3695,-1.4241 c 0.3898,-0.5318 0.7668,-1.0576 1.1245,-1.5645 1.0421,-1.3855 1.9744,-2.3964 2.7913,-3.0449 -2.8732,-1.1781 -5.0221,-2.3009 -6.4463,-3.3682 l 0.3586,-0.1967 c 2.0679,-1.1239 3.4257,-1.8405 4.0658,-2.1435 0.64,-0.2968 1.2293,-0.5021 1.7716,-0.595 1.0366,-0.1883 1.959,-0.0338 2.7675,0.4572 0.1613,0.0904 0.7067,0.4476 1.6364,1.065 l -1.4128,-9.6869 c -0.4473,1.3386 -0.9615,2.4214 -1.5545,3.24 -0.5868,0.819 -1.4723,1.7056 -2.6543,2.6521 -0.9508,0.7694 -1.783,1.3799 -2.5096,1.8301 -0.7208,0.4581 -1.9377,1.1245 -3.6501,2.0012 -0.4383,-0.4597 -0.7492,-0.8617 -0.9335,-1.2129 -0.1899,-0.3586 -0.3747,-0.8685 -0.5584,-1.5486 -0.4306,0.415 -0.9309,0.8396 -1.5007,1.2793 -0.5635,0.434 -0.9907,0.7285 -1.29,0.8844 0.4617,0.2265 0.9408,0.5553 1.4377,0.9794 0.4904,0.417 0.8116,0.6871 0.9652,0.7962 L 5.3297,56.7533 2.8242,55.0877 Z m 3.0937,-6.3675 7.8401,-4.6956 c 1.3685,0.906 3.1116,1.8752 5.2361,2.9135 -0.1244,0.1519 -0.6168,0.7101 -1.4774,1.686 -0.4714,0.5338 -0.9856,1.2107 -1.5347,2.0316 z"
         style="fill:#1a1a18;fill-opacity:1;fill-rule:nonzero;stroke:none"
         id="path170" />
      <path
         d="m 5.5128,74.8029 1.9916,9.1874 1.6203,-3.2426 20.4302,-5.1372 c 0.3622,1.2481 0.6352,2.2887 0.8124,3.1272 0.4385,2.0248 0.3469,3.6603 -0.2798,4.9011 -0.6273,1.2413 -1.8811,2.2912 -3.7672,3.1447 1.6508,0.1545 3.2008,0.4057 4.6553,0.7589 1.4544,0.3534 2.5203,0.7443 3.2037,1.1656 l -4.341,-20.0194 -1.5885,3.2377 -19.9477,5.0159 z"
         style="fill:#1a1a18;fill-opacity:1;fill-rule:nonzero;stroke:none"
         id="path172" />
      <path
         d="m 15.3111,115.0659 1.5618,-2.6833 9.3119,0.3997 c -0.3813,1.368 -0.8768,2.5266 -1.4931,3.4773 0.6078,-0.0519 1.2989,-0.0411 2.0662,0.0232 0.7611,0.0638 1.4006,0.1659 1.9196,0.3065 -0.1366,-0.406 -0.2452,-0.7665 -0.3387,-1.0877 -0.2554,-0.8739 -0.3005,-1.7314 -0.1352,-2.5724 l 10.3887,0.4155 2.9673,2.109 -2.7544,-9.4462 -1.4029,3.2732 -7.52,-0.3702 c 0.3197,-0.5788 0.6191,-1.1466 0.9056,-1.7022 0.847,-1.5092 1.6331,-2.6411 2.359,-3.3956 -3.0183,-0.756 -5.3098,-1.5631 -6.8686,-2.4092 l 0.3302,-0.2424 c 1.8978,-1.4048 3.1516,-2.3034 3.7421,-2.6915 0.5972,-0.3872 1.1616,-0.6692 1.6857,-0.839 1.0029,-0.3288 1.9352,-0.3064 2.8097,0.0615 0.1752,0.072 0.7651,0.3427 1.7734,0.8252 l -2.7253,-9.3558 c -0.2636,1.3796 -0.6327,2.52 -1.1012,3.4084 -0.4754,0.8946 -1.2379,1.8944 -2.2833,2.9942 -0.836,0.8881 -1.584,1.6101 -2.2434,2.1595 -0.6533,0.549 -1.7705,1.379 -3.3525,2.4896 -0.4995,-0.3931 -0.8637,-0.7472 -1.1004,-1.0695 -0.2299,-0.3226 -0.4847,-0.8039 -0.7648,-1.4459 -0.3733,0.4694 -0.8099,0.9601 -1.311,1.4726 -0.5012,0.513 -0.8898,0.8606 -1.1665,1.0556 0.4921,0.1579 1.0143,0.4127 1.5605,0.7571 0.5451,0.3512 0.9085,0.5661 1.0692,0.6565 l -7.6827,6.0948 -2.7156,-1.2852 z m 2.207,-6.7102 7.1572,-5.735 c 1.4839,0.6965 3.3472,1.406 5.6067,2.1353 -0.1058,0.1596 -0.5219,0.7844 -1.2362,1.8692 -0.4017,0.5941 -0.8207,1.3328 -1.251,2.2164 z"
         style="fill:#1a1a18;fill-opacity:1;fill-rule:nonzero;stroke:none"
         id="path174" />
      <path
         d="m 43.1495,133.3431 -12.1121,4.9992 c -2.141,0.8844 -3.7834,1.2614 -4.9312,1.1294 -1.142,-0.1316 -2.2042,-0.8283 -3.1929,-2.0855 l 3.3653,8.9345 c -0.1012,-1.6203 0.2251,-2.8839 0.9669,-3.7976 0.7418,-0.9144 2.192,-1.8192 4.3466,-2.7102 l 16.5422,-6.8303 -1.1101,-2.9415 -23.2135,-2.0424 12.691,-5.2367 c 2.1614,-0.8963 3.8087,-1.2731 4.9502,-1.1356 1.1426,0.1318 2.205,0.8292 3.1935,2.0804 l -3.365,-8.928 c 0.0879,1.6254 -0.2455,2.8947 -0.9873,3.8092 -0.7484,0.9133 -2.1986,1.8122 -4.3461,2.7028 l -14.4462,5.9627 -3.0407,-1.7048 3.5509,9.4442 1.1132,-3.4234 z"
         style="fill:#1a1a18;fill-opacity:1;fill-rule:nonzero;stroke:none"
         id="path176" />
      <path
         d="m 36.7554,168.7805 c 1.3873,-2.194 2.782,-3.9702 4.1862,-5.3399 -1.1953,0.1822 -2.0854,0.2647 -2.6623,0.2276 -1.4768,-0.0765 -2.6098,-0.9544 -3.4015,-2.6215 -0.1727,-0.3747 -0.4312,-1.0378 -0.7628,-1.982 l 18.8773,-9.6168 3.1918,1.4411 -3.9813,-8.4387 -0.8577,3.5087 -18.8839,9.6157 c -0.4864,-0.8688 -0.8226,-1.4916 -0.9955,-1.8658 -0.7917,-1.6676 -0.7696,-3.1288 0.0595,-4.3846 0.3218,-0.4929 0.9168,-1.1701 1.7873,-2.0375 -1.9208,0.3095 -4.1287,0.3665 -6.6305,0.1706 z"
         style="fill:#1a1a18;fill-opacity:1;fill-rule:nonzero;stroke:none"
         id="path178" />
      <path
         d="m 46.616,186.0965 c 0.2951,-0.6622 0.8425,-1.6039 1.643,-2.8293 0.794,-1.2265 1.6067,-2.3754 2.4437,-3.4407 -1.106,0.3612 -2.0259,0.5735 -2.7768,0.6239 -1.0015,0.0621 -1.9873,-0.1655 -2.9486,-0.6902 -0.9847,-0.5443 -1.7541,-1.3062 -2.3113,-2.291 -0.6883,-1.2265 -0.8907,-2.4655 -0.6101,-3.7309 0.2605,-1.1019 0.9015,-1.9622 1.9338,-2.5739 1.4196,-0.8583 2.8517,-0.7781 4.2991,0.2205 0.5312,0.3754 0.9827,0.7348 1.3359,1.0758 0.3592,0.3472 1.3428,1.3805 2.9464,3.0903 1.6735,1.7708 3.2794,2.816 4.8052,3.1354 1.7782,0.3631 3.4586,0.0695 5.0335,-0.8824 1.7717,-1.0621 2.9274,-2.6113 3.4674,-4.6494 0.6403,-2.3615 0.3027,-4.7222 -1.0208,-7.0707 -0.4371,-0.7699 -0.9538,-1.4925 -1.5477,-2.1697 -0.5953,-0.6766 -1.6056,-1.6917 -3.0376,-3.0441 -0.6446,-0.6038 -1.0942,-1.133 -1.3456,-1.5897 -0.3498,-0.6137 -0.4856,-1.6718 -0.4238,-3.1699 -0.5479,1.112 -1.3212,2.3966 -2.308,3.8596 -0.9938,1.4633 -1.8266,2.5484 -2.5115,3.2536 1.4701,-0.4691 2.5728,-0.7103 3.3024,-0.724 1.1778,-0.003 2.3026,0.3467 3.3695,1.0353 1.2223,0.7786 2.2431,1.9009 3.0688,3.3621 0.836,1.4868 1.1585,2.8466 0.9508,4.0714 -0.2291,1.4009 -0.9406,2.4597 -2.1308,3.172 -0.7186,0.4326 -1.5137,0.6384 -2.3908,0.625 -0.8705,-0.0127 -1.7127,-0.246 -2.518,-0.693 -0.6188,-0.3671 -1.2127,-0.8226 -1.787,-1.3587 -0.5742,-0.5425 -1.4351,-1.4799 -2.582,-2.8114 -1.6197,-1.9015 -3.1213,-3.0115 -4.491,-3.3287 -1.6577,-0.3954 -3.3128,-0.1003 -4.9668,0.898 -2.0004,1.2028 -3.1779,2.8712 -3.5272,5.0202 -0.3004,1.834 0.0768,3.6966 1.1381,5.5757 0.7594,1.3567 1.9146,2.7397 3.46,4.1616 0.7194,0.6709 1.1772,1.1882 1.3793,1.5468 0.2682,0.4765 0.4873,1.2476 0.6585,2.3205"
         style="fill:#1a1a18;fill-opacity:1;fill-rule:nonzero;stroke:none"
         id="path180" />
      <path
         d="m 48.9419,190.0809 5.2194,7.7051 0.3365,-3.5807 9.9762,-7.1088 -3.2527,11.5129 c -0.3858,1.3598 -0.9023,2.2695 -1.5577,2.7412 -0.4634,0.3293 -1.0329,0.4373 -1.7016,0.3183 -0.6698,-0.1185 -1.2739,-0.4306 -1.8054,-0.9349 l 5.7078,8.4348 c -0.8093,-2.3627 -0.5989,-5.4689 0.6387,-9.3234 l 1.1775,-4.1171 15.3757,-2.2839 3.6595,1.334 -5.6738,-8.3888 -0.3368,3.5807 -11.9208,1.7878 1.734,-6.1208 4.896,-3.4898 3.3868,0.9326 -5.2189,-7.7111 -0.3302,3.581 -16.922,12.0575 z"
         style="fill:#1a1a18;fill-opacity:1;fill-rule:nonzero;stroke:none"
         id="path182" />
      <path
         d="m 78.3465,227.4647 c 0.2287,-1.5517 0.4773,-2.736 0.7438,-3.5444 0.2608,-0.8093 0.7282,-1.8536 1.389,-3.1346 -0.2432,0.0805 -0.4677,0.1568 -0.6803,0.2401 -0.9865,0.3252 -1.7496,0.5094 -2.3015,0.5548 -0.5522,0.045 -1.0927,-0.0428 -1.6288,-0.2688 -0.8677,-0.3537 -1.8884,-1.184 -3.0815,-2.499 -0.781,-0.8685 -1.5752,-1.8 -2.3723,-2.7828 l 6.6696,-6.2413 3.5198,3.8931 -0.5808,3.9096 5.6823,-5.3139 -3.8778,0.2569 -3.5138,-3.8926 8.0617,-7.5441 c 0.8342,0.8331 1.4199,1.4366 1.7504,1.8034 1.8196,2.0166 2.8409,3.7406 3.0577,5.1724 0.1443,1.0349 -0.1247,2.5472 -0.8064,4.5176 1.2523,-0.741 2.3763,-1.2289 3.3735,-1.4576 1.0043,-0.235 2.2887,-0.3147 3.8526,-0.2458 l -14.3224,-15.857 0.1636,3.5643 -7.6969,7.2034 c -1.0902,-1.1271 -1.6464,-2.4508 -1.6759,-3.9606 -1.1517,1.7853 -1.0015,3.4861 0.4465,5.1075 l -6.3054,5.9003 -3.4883,-0.4569 z m -6.9086,0.5814 -0.3047,-6.133 -1.3746,-1.5222 -0.9447,4.75 z"
         style="fill:#1a1a18;fill-opacity:1;fill-rule:nonzero;stroke:none"
         id="path184" />
      <path
         d="m 106.204,251.2188 c 2.6308,1.8487 5.3271,2.4023 8.0849,1.6478 2.9234,-0.8023 5.6693,-3.053 8.2443,-6.744 2.4047,-3.4466 3.4937,-6.7028 3.265,-9.7679 -0.2214,-2.8442 -1.6532,-5.1998 -4.2956,-7.0557 -2.6428,-1.8555 -5.3337,-2.4029 -8.0728,-1.6407 -2.9449,0.8334 -5.6549,3.0271 -8.1383,6.5906 -2.4834,3.5626 -3.6068,6.8675 -3.371,9.9207 0.22,2.787 1.6518,5.1366 4.2835,7.0492 z m 0.7957,-1.4664 c -1.0854,-0.7602 -1.764,-1.8473 -2.0444,-3.2627 -0.2341,-1.1965 -0.0553,-2.5815 0.5434,-4.1459 0.5976,-1.5594 1.6642,-3.4472 3.2037,-5.6469 2.1753,-3.1292 4.1834,-5.1908 6.014,-6.1966 0.9442,-0.5144 1.9661,-0.7452 3.0645,-0.701 1.0988,0.0457 2.0699,0.3632 2.9084,0.9519 1.103,0.7742 1.7938,1.8686 2.0733,3.2831 0.4586,2.2992 -0.7711,5.5281 -3.6701,9.69 -1.1888,1.7047 -2.2617,3.0554 -3.2249,4.043 -0.9635,0.9882 -1.9205,1.7368 -2.8832,2.2496 -0.9569,0.5133 -1.9783,0.7446 -3.0645,0.7004 -1.0797,-0.0507 -2.0579,-0.3685 -2.9202,-0.9649"
         style="fill:#1a1a18;fill-opacity:1;fill-rule:nonzero;stroke:none"
         id="path186" />
      <path
         d="m 138.2862,266.8654 c -0.1386,-0.695 -0.2392,-1.7691 -0.2956,-3.2147 -0.0553,-1.4457 -0.0525,-2.8378 0.0144,-4.1777 -0.6939,0.9467 -1.3348,1.6611 -1.923,2.1554 -0.7858,0.6514 -1.7294,1.0559 -2.8298,1.2187 -1.1251,0.1621 -2.1989,0.0232 -3.2267,-0.4241 -1.2818,-0.5533 -2.1694,-1.4134 -2.662,-2.5727 -0.4272,-1.0304 -0.3972,-2.0929 0.0898,-3.1995 0.6772,-1.5225 1.9035,-2.3202 3.6706,-2.3987 0.6554,-0.0238 1.2271,-0.013 1.7215,0.0457 0.4941,0.0581 1.8986,0.2806 4.2126,0.674 2.4012,0.3909 4.3217,0.2549 5.7625,-0.4138 1.6784,-0.779 2.8908,-2.0206 3.6431,-3.7171 0.8405,-1.8961 0.8912,-3.8117 0.159,-5.7472 -0.8467,-2.2505 -2.4942,-3.9073 -4.9498,-4.9649 -0.8037,-0.3492 -1.6507,-0.6129 -2.5351,-0.7948 -0.8781,-0.1752 -2.3037,-0.3677 -4.2624,-0.5752 -0.8833,-0.0995 -1.5579,-0.2477 -2.0359,-0.4572 -0.6412,-0.2739 -1.3685,-1.0185 -2.1869,-2.2363 0.1911,1.2101 0.3005,2.6898 0.3356,4.4385 0.0349,1.7481 -0.021,3.1071 -0.1752,4.0691 0.9403,-1.2523 1.7022,-2.1007 2.2989,-2.5443 0.9703,-0.7067 2.0937,-1.1095 3.377,-1.209 1.4584,-0.1106 2.9463,0.1599 4.4699,0.8175 1.5593,0.6792 2.6076,1.5579 3.1487,2.6504 0.6242,1.241 0.6492,2.5016 0.0817,3.776 -0.3396,0.7767 -0.8757,1.4191 -1.6022,1.9273 -0.7265,0.5145 -1.5519,0.8348 -2.4755,0.9675 -0.7217,0.0782 -1.4751,0.0782 -2.2606,-0.005 -0.7846,-0.0828 -2.0395,-0.3053 -3.7576,-0.6682 -2.4355,-0.5249 -4.3109,-0.5068 -5.6265,0.065 -1.5911,0.6808 -2.7845,1.9111 -3.5657,3.6822 -0.9584,2.1509 -0.955,4.183 0.004,6.0831 0.8212,1.6296 2.2119,2.8709 4.1757,3.7242 1.4153,0.6091 3.1748,1.0048 5.2798,1.18 0.9896,0.0981 1.6651,0.2274 2.0404,0.3887 0.5017,0.2171 1.1285,0.6987 1.8856,1.4572"
         style="fill:#1a1a18;fill-opacity:1;fill-rule:nonzero;stroke:none"
         id="path188" />
      <path
         d="m 169.746,281.4055 c -1.2513,-1.9412 -2.1632,-3.9115 -2.7318,-5.9052 -0.5743,-1.9938 -1.1483,-5.2287 -1.7396,-9.7114 l -2.196,-15.6382 3.1651,-1.6977 -9.386,-1.8893 2.1699,2.7717 -11.6028,18.8935 -3.1666,1.7051 9.1174,1.8328 -2.1818,-2.7788 10.5831,-17.3358 2.022,14.4076 c 0.4756,3.4713 0.5672,5.8686 0.2744,7.185 -0.2914,1.2983 -1.0239,2.3173 -2.204,3.0697 3.5365,1.4079 6.1623,3.1045 7.8767,5.091"
         style="fill:#1a1a18;fill-opacity:1;fill-rule:nonzero;stroke:none"
         id="path190" />
      <path
         d="m 192.1181,276.2671 c -0.8765,-1.2574 -1.493,-2.266 -1.8436,-3.02 -0.3496,-0.7537 -0.7127,-1.8125 -1.0817,-3.1816 -0.1307,0.2276 -0.2418,0.4433 -0.345,0.6474 -0.5159,0.9091 -0.9624,1.5761 -1.3445,1.9871 -0.383,0.4158 -0.8501,0.7268 -1.4029,0.9445 -0.8821,0.3515 -2.2127,0.4762 -3.9926,0.3745 -1.1786,-0.0633 -2.3975,-0.1673 -3.664,-0.2977 l 0.7645,-9.0703 5.2707,0.3019 2.2105,3.1728 0.6554,-7.7198 -2.725,2.8822 -5.2702,-0.3019 0.9236,-10.9624 c 1.1902,-0.0113 2.0372,-0.0108 2.533,0.0224 2.7289,0.1528 4.6559,0.6673 5.7881,1.5327 0.8081,0.6392 1.6276,1.9063 2.4531,3.7939 0.4362,-1.3955 0.9459,-2.5277 1.5386,-3.3891 0.5865,-0.8617 1.4925,-1.8145 2.7102,-2.8573 l -21.4676,-1.2283 2.5344,2.4035 -0.8832,10.4641 c -1.5789,-0.0403 -2.8868,-0.5856 -3.9368,-1.6308 0.3507,2.0591 1.6203,3.1601 3.7953,3.2962 l -0.7234,8.5648 -2.9109,2.1053 z"
         style="fill:#1a1a18;fill-opacity:1;fill-rule:nonzero;stroke:none"
         id="path192" />
      <path
         d="m 221.5967,271.5877 c -1.6067,-1.9417 -2.8162,-3.7851 -3.6419,-5.5245 -0.2197,1.2104 -0.4442,2.0917 -0.6642,2.6371 -0.5601,1.4063 -1.7592,2.2572 -3.5858,2.5654 -0.4105,0.0646 -1.1149,0.1386 -2.1175,0.2083 l -2.7981,-20.9143 2.4072,-2.6957 -9.2514,1.5454 3.0146,1.7943 2.7978,20.9143 c -0.9728,0.2299 -1.6702,0.3802 -2.0752,0.4525 -1.8318,0.3013 -3.1986,-0.1191 -4.1057,-1.2666 -0.3555,-0.4456 -0.7966,-1.2058 -1.3227,-2.281 -0.3373,1.9451 -1.0173,4.106 -2.0267,6.476 z"
         style="fill:#1a1a18;fill-opacity:1;fill-rule:nonzero;stroke:none"
         id="path194" />
      <path
         d="m 236.734,266.343 c 3.0419,-1.233 5.0587,-3.2147 6.044,-5.9386 1.0418,-2.8992 0.7977,-6.4077 -0.735,-10.546 -1.4238,-3.8605 -3.4594,-6.5103 -6.1072,-7.9497 -2.4562,-1.3278 -5.2127,-1.3663 -8.2675,-0.1273 -3.0558,1.245 -5.0599,3.221 -6.0254,5.9397 -1.0255,2.9248 -0.8036,6.3825 0.673,10.372 1.4706,3.9826 3.5268,6.6903 6.1684,8.117 2.4035,1.2931 5.1529,1.3379 8.2497,0.1329 z m -0.7293,-1.4369 c -1.2478,0.5069 -2.537,0.5052 -3.8537,-0.0187 -1.1183,-0.4359 -2.1453,-1.3243 -3.0756,-2.6637 -0.9352,-1.3396 -1.8581,-3.2431 -2.7746,-5.7152 -1.2957,-3.4994 -1.8195,-6.2932 -1.5828,-8.3716 0.1278,-1.0703 0.5283,-2.0571 1.203,-2.9607 0.6746,-0.9034 1.4916,-1.552 2.463,-1.9466 1.273,-0.5182 2.5688,-0.5153 3.8863,0.001 2.1458,0.8368 4.0805,3.5898 5.8028,8.2568 0.7101,1.9108 1.1877,3.5382 1.4383,4.8739 0.2568,1.3374 0.3121,2.5495 0.1775,3.6332 -0.1344,1.0822 -0.5409,2.0622 -1.2017,2.9537 -0.6681,0.8912 -1.4966,1.5389 -2.4825,1.9578"
         style="fill:#1a1a18;fill-opacity:1;fill-rule:nonzero;stroke:none"
         id="path196" />
      <path
         d="m 277.0679,249.9126 c -2.2652,-0.4505 -4.2996,-1.1571 -6.0979,-2.1181 -1.8048,-0.9623 -4.4748,-2.7796 -8.0107,-5.4476 l -12.4645,-9.1998 1.1333,-3.4311 -8.1649,5.4113 3.5053,0.3549 4.6463,21.3197 -1.122,3.4447 7.9297,-5.2634 -3.5295,-0.3561 -4.3047,-19.5134 11.4699,8.4841 c 2.7595,2.0498 4.4878,3.6352 5.1908,4.7557 0.686,1.1013 0.8645,2.3253 0.5295,3.678 3.5637,-1.5611 6.6597,-2.2692 9.2894,-2.1189"
         style="fill:#1a1a18;fill-opacity:1;fill-rule:nonzero;stroke:none"
         id="path198" />
      <path
         d="m 289.7481,231.158 c -1.512,-0.2687 -2.6558,-0.5463 -3.4245,-0.836 -0.7759,-0.2843 -1.7668,-0.7749 -2.971,-1.4788 0.0615,0.2503 0.1188,0.4811 0.184,0.6928 0.2418,1.0057 0.3568,1.7906 0.3591,2.3479 -0.005,0.557 -0.1335,1.1021 -0.3983,1.6404 -0.4138,0.8663 -1.3127,1.8871 -2.7025,3.0558 -0.9116,0.773 -1.8853,1.5497 -2.916,2.336 l -5.6069,-6.925 4.1031,-3.4569 3.7965,0.6951 -4.7634,-5.8842 -0.0587,3.924 -4.0972,3.4577 -6.7569,-8.3483 c 0.8836,-0.8257 1.5256,-1.402 1.9111,-1.7319 2.1218,-1.7921 3.8965,-2.7774 5.3238,-2.9623 1.0309,-0.1216 2.4899,0.1894 4.3764,0.9324 -0.6256,-1.2838 -1.0126,-2.4361 -1.1594,-3.4563 -0.1474,-1.0205 -0.1171,-2.3241 0.0763,-3.911 l -16.7789,14.1483 3.5258,-0.0848 6.4496,7.9722 c -1.2021,1.0763 -2.5503,1.6132 -4.0391,1.6055 1.6603,1.2 3.3441,1.0911 5.0587,-0.3404 l 5.2986,6.5429 -0.7444,3.5167 z m 0.025,7.0302 -6.0832,0.1389 -1.603,1.3549 4.6137,1.0948 z"
         style="fill:#1a1a18;fill-opacity:1;fill-rule:nonzero;stroke:none"
         id="path200" />
      <path
         d="m 319.2239,195.3643 c -0.705,0.0142 -1.7626,-0.0844 -3.1722,-0.2902 -1.4035,-0.2112 -2.7482,-0.4641 -4.019,-0.7764 0.7359,0.8617 1.2733,1.6242 1.6075,2.2935 0.434,0.8969 0.5913,1.9054 0.4845,3.0211 -0.1146,1.1404 -0.5077,2.1853 -1.179,3.1201 -0.8399,1.1659 -1.8808,1.8922 -3.1181,2.1768 -1.0893,0.2352 -2.1064,0.0122 -3.0486,-0.6764 -1.3017,-0.947 -1.781,-2.3017 -1.4236,-4.07 0.1327,-0.6582 0.2829,-1.2265 0.4581,-1.7056 0.1746,-0.4853 0.7291,-1.8314 1.6577,-4.0578 0.955,-2.3201 1.2812,-4.2545 0.9915,-5.8025 -0.35,-1.8048 -1.2466,-3.2309 -2.7022,-4.2817 -1.6206,-1.1789 -3.4515,-1.5769 -5.4939,-1.194 -2.3694,0.4295 -4.3565,1.7717 -5.9711,4.0136 -0.5256,0.7396 -0.9856,1.5267 -1.3706,2.3737 -0.39,0.8419 -0.9212,2.215 -1.6004,4.1185 -0.3039,0.8524 -0.6163,1.5012 -0.9244,1.9346 -0.4263,0.5868 -1.3136,1.175 -2.6751,1.7759 1.2065,0.0307 2.6578,0.188 4.3543,0.4712 1.6906,0.2834 2.9812,0.5901 3.8776,0.915 -0.9743,-1.1585 -1.6073,-2.0659 -1.8973,-2.7388 -0.4427,-1.0934 -0.5547,-2.2839 -0.3413,-3.5717 0.2401,-1.4698 0.8637,-2.9072 1.8703,-4.3002 1.0222,-1.4298 2.126,-2.3167 3.3044,-2.6555 1.345,-0.3934 2.5699,-0.1972 3.6598,0.5933 0.6593,0.4845 1.1506,1.1299 1.4663,1.9443 0.3167,0.8144 0.4278,1.6937 0.328,2.6394 -0.0941,0.7296 -0.2778,1.474 -0.5428,2.2399 -0.2724,0.7653 -0.7909,1.974 -1.5551,3.613 -1.0922,2.3259 -1.5259,4.1979 -1.294,5.6095 0.2707,1.7051 1.1696,3.1071 2.683,4.2114 1.8453,1.336 3.7913,1.6954 5.8569,1.0922 1.7657,-0.5173 3.2899,-1.6741 4.5831,-3.4701 0.9238,-1.2898 1.7396,-2.9577 2.4429,-4.9998 0.3359,-0.951 0.6233,-1.6018 0.875,-1.9437 0.3226,-0.4521 0.9315,-0.991 1.8278,-1.6226"
         style="fill:#1a1a18;fill-opacity:1;fill-rule:nonzero;stroke:none"
         id="path202" />
      <path
         d="m 333.8067,171.8481 c -2.5341,0.08 -4.7392,-0.0779 -6.6081,-0.485 0.7787,0.8986 1.298,1.6078 1.5707,2.1152 0.7061,1.2887 0.5768,2.7513 -0.3827,4.3827 -0.214,0.3634 -0.6148,0.9646 -1.2016,1.8039 l -17.8387,-10.4796 -0.491,-3.5388 -4.8472,8.2256 3.3361,-1.2884 17.8393,10.4806 c -0.4493,0.9147 -0.7844,1.5573 -0.9995,1.9204 -0.9581,1.6316 -2.1728,2.4528 -3.644,2.4704 -0.5791,0.004 -1.4485,-0.108 -2.6203,-0.3486 1.2722,1.455 2.4843,3.2932 3.6349,5.5343 z"
         style="fill:#1a1a18;fill-opacity:1;fill-rule:nonzero;stroke:none"
         id="path204" />
      <path
         d="m 332.7367,168.4752 c 1.0009,-0.6075 1.9292,-1.319 2.7893,-2.1175 2.0653,-1.9395 3.6737,-4.0867 4.8248,-6.4468 0.6021,-1.2294 1.0069,-2.501 1.2291,-3.8138 0.2152,-1.3124 0.2157,-2.497 10e-4,-3.5662 -0.3852,-1.914 -1.3586,-3.2437 -2.9247,-3.9958 -1.3564,-0.6533 -2.8168,-0.6905 -4.3813,-0.1247 -1.5644,0.565 -3.0288,1.6742 -4.3908,3.3078 -1.7402,-1.7932 -3.3149,-3.9337 -4.7274,-6.4069 -1.4125,-2.4681 -2.3014,-4.6295 -2.6597,-6.4726 -1.7357,1.8618 -3.6315,3.31 -5.6812,4.3509 2.3904,1.6747 4.3625,3.2082 5.9272,4.6068 1.5596,1.3981 3.416,3.299 5.5687,5.6971 -0.4099,0.4538 -0.9216,1.1055 -1.5441,1.9667 -0.6224,0.8606 -1.0734,1.5284 -1.36,2.0007 l -7.7182,-3.7106 -0.7724,-3.4733 -4.1967,8.5884 3.2315,-1.5567 7.2314,3.4769 c -0.7052,1.2062 -1.3609,2.0971 -1.9493,2.6808 0.8455,-0.057 1.6503,0.01 2.4069,0.2063 0.1731,-0.371 0.3092,-0.6746 0.4195,-0.896 0.1565,-0.3215 0.3883,-0.7342 0.6891,-1.2387 l 7.8809,3.7834 0.1063,3.1538 z m 3.096,-6.01 -9.1046,-4.3722 c 1.2974,-2.0806 2.6762,-3.6816 4.1337,-4.7914 1.0936,-0.8371 2.2074,-1.292 3.3395,-1.3544 0.9023,-0.0609 1.7436,0.0896 2.5115,0.4595 1.4287,0.6877 2.287,1.8091 2.5869,3.3766 0.2291,1.285 0.0343,2.5677 -0.5964,3.8526 -0.6318,1.298 -1.5908,2.2425 -2.8706,2.8293"
         style="fill:#1a1a18;fill-opacity:1;fill-rule:nonzero;stroke:none"
         id="path206" />
      <path
         d="m 353.0843,127.3354 c -1.4686,0.527 -2.6186,0.8589 -3.4438,1.0018 -0.8192,0.1437 -1.9386,0.2168 -3.3469,0.2284 0.1747,0.1775 0.3371,0.3487 0.5009,0.5015 0.7019,0.7384 1.1894,1.3473 1.461,1.8266 0.2659,0.4799 0.4156,1.0114 0.4433,1.6076 0.059,0.9453 -0.2395,2.2753 -0.8988,3.9758 -0.4323,1.1277 -0.9176,2.2845 -1.4485,3.4781 l -8.3214,-3.1008 1.9496,-5.0394 3.6905,-1.3275 -7.0835,-2.6373 1.8629,3.3942 -1.9491,5.04 -10.0448,-3.7429 c 0.3605,-1.1622 0.6355,-1.9803 0.8175,-2.4596 1.0091,-2.6039 2.1004,-4.343 3.276,-5.2186 0.8589,-0.6222 2.3105,-1.0871 4.3494,-1.4014 -1.1786,-0.7833 -2.0829,-1.5747 -2.7127,-2.3724 -0.629,-0.7988 -1.2422,-1.9252 -1.8386,-3.3814 l -7.9358,20.5458 3.0724,-1.84 9.5896,3.5708 c -0.5346,1.5225 -1.4672,2.6609 -2.7813,3.3968 2.0528,0.2001 3.4945,-0.7464 4.3109,-2.8259 l 7.8599,2.9288 1.0735,3.3811 z"
         style="fill:#1a1a18;fill-opacity:1;fill-rule:nonzero;stroke:none"
         id="path208" />
      <path
         d="m 354.1975,123.7343 2.5772,-8.1621 c 1.1472,-3.6445 1.3122,-6.5438 0.4967,-8.7035 -1.1991,-3.2071 -3.9765,-5.459 -8.3271,-6.7499 -4.8597,-1.4507 -8.7029,-1.0743 -11.522,1.1322 -1.0034,0.7824 -1.8329,1.7133 -2.4732,2.7822 -0.6418,1.074 -1.2597,2.5614 -1.8624,4.468 l -2.5784,8.1808 2.9736,-2.0328 19.4065,5.777 z m 0.3469,-6.9378 -20.3414,-6.0619 c 0.2483,-1.0769 0.4343,-1.834 0.5684,-2.2575 0.7704,-2.4548 2.2229,-4.0054 4.3577,-4.6704 2.3003,-0.7257 5.1604,-0.5785 8.5668,0.4394 2.8355,0.8422 4.9695,2.027 6.4103,3.5552 1.6914,1.8144 2.1206,4.055 1.2835,6.715 -0.1244,0.3795 -0.4031,1.1381 -0.8453,2.2802"
         style="fill:#1a1a18;fill-opacity:1;fill-rule:nonzero;stroke:none"
         id="path210" />
      <path
         d="m 361.2249,99.3506 2.1823,-9.2647 -2.8162,2.2521 -19.832,-4.2466 -1.5412,-3.181 -2.1821,9.2642 2.8222,-2.2521 19.832,4.2468 z"
         style="fill:#1a1a18;fill-opacity:1;fill-rule:nonzero;stroke:none"
         id="path212" />
      <path
         d="m 367.4452,68.9176 c -0.6409,0.3161 -1.6535,0.6846 -3.0311,1.1103 -1.3779,0.4193 -2.7127,0.7713 -4.0104,1.0432 1.0428,0.4504 1.8615,0.9028 2.4556,1.3623 0.7804,0.6149 1.3524,1.442 1.7266,2.4925 0.3787,1.0701 0.4558,2.1759 0.2321,3.3049 -0.2769,1.4117 -0.9274,2.507 -1.9476,3.299 -0.8998,0.6837 -1.9267,0.9241 -3.0821,0.7217 -1.5979,-0.2823 -2.6045,-1.2884 -3.0255,-3.0257 -0.1499,-0.6406 -0.2491,-1.2152 -0.2911,-1.7246 -0.0417,-0.5023 -0.1046,-1.9553 -0.1825,-4.3472 -0.0958,-2.488 -0.6064,-4.3557 -1.5248,-5.6112 -1.0774,-1.4658 -2.5035,-2.3533 -4.2806,-2.6629 -1.9845,-0.352 -3.8367,0.0822 -5.5443,1.3088 -1.9953,1.4091 -3.2607,3.4617 -3.793,6.1648 -0.1794,0.8847 -0.2679,1.7923 -0.2642,2.711 -10e-4,0.9182 0.0859,2.3726 0.2628,4.3708 0.081,0.8903 0.0703,1.5998 -0.0386,2.126 -0.1346,0.7021 -0.716,1.6177 -1.7234,2.7331 1.1213,-0.4955 2.5163,-0.9776 4.1915,-1.4584 1.6688,-0.4813 2.9866,-0.771 3.9399,-0.8623 -1.3796,-0.6075 -2.3403,-1.1483 -2.8893,-1.6248 -0.8623,-0.7781 -1.4698,-1.7898 -1.8097,-3.0348 -0.396,-1.4131 -0.4269,-2.9602 -0.0921,-4.6412 0.3373,-1.7124 0.9757,-2.9797 1.9162,-3.7947 1.0744,-0.9283 2.2791,-1.2801 3.6122,-1.0434 0.8048,0.1414 1.5304,0.5065 2.1643,1.1012 0.6332,0.5894 1.1069,1.3224 1.4054,2.2108 0.2216,0.6885 0.3696,1.4371 0.4447,2.2385 0.0757,0.7957 0.1069,2.0959 0.0933,3.8939 -0.0275,2.5507 0.3657,4.4074 1.167,5.5681 0.97,1.4029 2.38,2.2646 4.2358,2.5903 2.2488,0.3969 4.195,-0.1213 5.8368,-1.5536 1.4021,-1.2291 2.3171,-2.9191 2.7511,-5.0831 0.3064,-1.5557 0.3415,-3.3973 0.1,-5.5304 -0.1037,-1.0004 -0.1179,-1.7036 -0.0297,-2.1175 0.104,-0.5457 0.4478,-1.2946 1.0247,-2.2354"
         style="fill:#1a1a18;fill-opacity:1;fill-rule:nonzero;stroke:none"
         id="path214" />
      <path
         d="m 368.1853,64.5148 1.2113,-9.4096 -2.5974,2.5265 -11.9333,-1.2262 9.8946,-6.6524 c 1.1684,-0.7849 2.1427,-1.1352 2.9271,-1.059 0.5564,0.059 1.038,0.3552 1.4516,0.8946 0.4138,0.5335 0.6579,1.1727 0.7203,1.9041 l 1.3249,-10.3286 c -0.9536,2.3666 -3.1431,4.6153 -6.5636,6.7524 l -3.5451,2.3782 -12.7298,-8.568 -1.8071,-3.4894 -1.3152,10.2778 2.5733,-2.5341 9.8821,6.6288 -5.2543,3.549 -5.8521,-0.6044 -1.8695,-2.9931 -1.2121,9.4161 2.579,-2.5333 20.2326,2.077 z"
         style="fill:#1a1a18;fill-opacity:1;fill-rule:nonzero;stroke:none"
         id="path216" />
      <path
         d="m 372.2709,29.2966 c 0.1976,-3.2836 -0.7214,-5.9009 -2.7578,-7.84 -2.1643,-2.0591 -5.4417,-3.1607 -9.8351,-3.2973 -4.1063,-0.1358 -7.3772,0.752 -9.8161,2.6634 -2.2558,1.7808 -3.4863,4.3226 -3.685,7.6255 -0.199,3.3027 0.7202,5.9139 2.7583,7.8279 2.2009,2.0605 5.4173,3.1586 9.6546,3.2947 4.2378,0.1355 7.5696,-0.7489 9.9912,-2.6614 2.2145,-1.7448 3.4385,-4.2809 3.6899,-7.6128 z m -1.6121,0.1412 c -0.0856,1.3581 -0.6451,2.552 -1.6784,3.5836 -0.8832,0.8744 -2.1265,1.4898 -3.7425,1.8524 -1.6107,0.3634 -3.7262,0.5034 -6.355,0.4175 -3.7205,-0.1236 -6.4678,-0.6854 -8.246,-1.6917 -0.9057,-0.5272 -1.6271,-1.2722 -2.1498,-2.243 -0.5295,-0.9698 -0.7625,-1.9755 -0.6945,-3.0237 0.0814,-1.3834 0.6426,-2.5903 1.6756,-3.6216 1.6857,-1.6702 5.0088,-2.4296 9.9663,-2.27 2.0313,0.0641 3.7071,0.2296 5.0247,0.5049 1.3178,0.2681 2.4327,0.6724 3.3505,1.2055 0.9185,0.5403 1.639,1.2861 2.1504,2.2431 0.5176,0.9567 0.7515,1.9684 0.6987,3.043"
         style="fill:#1a1a18;fill-opacity:1;fill-rule:nonzero;stroke:none"
         id="path218" />
      <path
         d="m 198.182,156.2377 -1.3323,1.3383 c -5.0088,4.7982 -9.5647,7.1974 -13.7477,7.1974 -13.6679,0 -20.5152,-23.2996 -20.5152,-69.8987 0,-34.0497 4.2363,-56.6572 12.7088,-67.7301 l -0.6928,-1.338 c -5.1953,6.3669 -8.9254,14.764 -11.1367,25.1912 -2.2113,10.4273 -3.3038,24.499 -3.3038,42.262 0,50.0134 7.5934,75.0201 22.7798,75.0201 6.9273,0 12.016,-4.0142 15.2399,-12.0422 z"
         style="fill:#a30d46;fill-opacity:1;fill-rule:evenodd;stroke:#a30d46;stroke-width:0.216;stroke-linecap:butt;stroke-linejoin:miter;stroke-miterlimit:22.9256;stroke-dasharray:none;stroke-opacity:1"
         id="path220" />
      <path
         d="M 112.098,79.5889 H 98.3985 c -2.9702,0 -5.1049,0.3251 -6.3859,0.9394 -1.2994,0.6506 -2.543,2.024 -3.731,4.1562 v 2.6382 c 1.2994,-1.9154 2.6173,-3.1802 3.9167,-3.7585 1.2994,-0.6145 3.4157,-0.9037 6.3671,-0.9037 4.5108,3e-4 9.0219,3e-4 13.5326,0 -0.0303,0.0281 -0.1371,-3.0112 0,-3.0716 z"
         style="fill:#a30d46;fill-opacity:1;fill-rule:evenodd;stroke:#a30d46;stroke-width:0.216;stroke-linecap:butt;stroke-linejoin:miter;stroke-miterlimit:22.9256;stroke-dasharray:none;stroke-opacity:1"
         id="path222" />
    </g>
  </g>
</svg>
