<svg width="43.55" height="97.475" version="1.1" viewBox="0 0 43.55 97.475" xmlns="http://www.w3.org/2000/svg"><g transform="translate(-53.552 -22.5)"><path d="m66.841 63.25c-1.6685-3.7125-4.8375-10.575-7.0421-15.25-6.1251-12.988-6.9098-15-5.8508-15 0.53616 0 3.6925 5.3305 7.0141 11.846 6.7597 13.259 9.1202 16.161 11.523 14.167 0.83735-0.69494 5.8577-8.2945 11.156-16.888 5.2987-8.5935 10.495-16.524 11.547-17.624l1.9135-2-0.72672 2c-0.85236 2.3458-8.5006 16.295-17.791 32.449-3.6215 6.2969-6.5846 11.809-6.5846 12.25 0 0.44063-0.47822 0.80114-1.0627 0.80114-0.58449 0-2.4278-3.0375-4.0963-6.75z" fill="#15a4dd"/><path d="m68.336 52.433c-0.88816-2.3145 1.0772-3.845 2.5926-2.019 1.2811 1.5436 0.70081 3.5862-1.0189 3.5862-0.5348 0-1.243-0.70525-1.5738-1.5672z" fill="#221e1f"/><path d="m75.73 118.25c-0.27652-0.9625-1.6296-5.575-3.0069-10.25-3.1151-10.574-6.0386-27.432-5.21-30.043 0.68046-2.144 3.9414-2.6477 5.0917-0.78662 0.39783 0.64371 0.86953 5.7062 1.0482 11.25 0.27697 8.5933 1.9549 20.846 4.0165 29.33 0.63771 2.6242-1.1936 3.0963-1.9395 0.5z" fill="#221e1f"/></g></svg>
