<?xml version="1.0" encoding="utf-8"?>
<!-- Generator: Adobe Illustrator 16.0.0, SVG Export Plug-In . SVG Version: 6.00 Build 0)  -->
<!DOCTYPE svg PUBLIC "-//W3C//DTD SVG 1.1//EN" "http://www.w3.org/Graphics/SVG/1.1/DTD/svg11.dtd">
<svg version="1.1" id="Vrstva_1" xmlns="http://www.w3.org/2000/svg" xmlns:xlink="http://www.w3.org/1999/xlink" x="0px" y="0px"
	 width="366.717px" height="117.811px" viewBox="0 0 366.717 117.811" enable-background="new 0 0 366.717 117.811"
	 xml:space="preserve">
<path fill="#582F87" d="M58.312,0c2.91,1.227,3.789,3.466,3.704,6.524c-0.08,5.932-0.08,18.444-0.08,19.173
	c0.159,0.076-0.158,0.893,0,0.969c5.933-8.613,13.946-15.863,23.367-20.365c9.386-4.485,19.215-6.549,29.853-5.007
	c0.634,12.669-1.553,24.571-8.686,35.246C99.376,47.154,89.303,53.855,77.09,58.267c2.241,0.991,4.163,1.736,5.99,2.669
	c18.917,9.647,29.048,25.285,31.312,46.21c0.305,2.821,0.225,5.686,0.387,8.526c0.063,1.112-0.335,1.524-1.451,1.704
	c-6.727,1.084-13.249,0.014-19.655-1.897c-12.508-3.73-22.435-11.127-30.127-21.607c-0.361-0.493-0.904-1.254-1.608-2.183
	c-0.059,1.151,0,13.457,0.018,19.627c-0.022,2.564-1.623,4.391-4,4.795c-2.084,0.355-4.281-0.819-5.043-2.853
	c-0.301-0.803-0.44-1.968-0.448-2.838c-0.042-5.379,0-17.333,0-18.517c-0.811,1.055-1.956,2.539-2.786,3.579
	c-11.265,14.115-25.794,21.819-43.966,22.3c-3.929,0.104-5.701-1.705-5.703-5.618c-0.011-17.659-0.01-35.317,0.001-52.979
	c0.003-3.866,1.729-5.611,5.54-5.617c7.343-0.013,14.686-0.021,22.027,0.012c2.44,0.011,4.215,1.419,4.75,3.593
	c0.501,2.038-0.347,4.186-2.27,5.153c-0.858,0.434-1.932,0.6-2.909,0.609c-6.874,0.009-11.493,0.009-17.423,0.009
	c0,14.975-0.01,29.814-0.01,45.217c3.66-0.93,7.292-1.48,10.641-2.768c17.421-6.692,28.005-19.385,31.392-37.65
	c4.581-24.71-10.477-48.924-34.485-55.8c-3.961-1.135-8.213-1.305-12.348-1.754c-2.578-0.281-4.421-1.67-4.79-4.043
	C-0.229,3.873,1.089,1.351,3.32,1.007c2.278-0.351,4.677-0.266,6.983-0.011c17.361,1.923,30.945,10.279,41.1,24.385
	c0.184,0.254,0.526,0.595,1.06,1.286c0.079-1.36,0-14.103-0.017-20.035C52.342,3.569,53.224,1.34,56.033,0
	C56.792,0,57.552,0,58.312,0L58.312,0z M104.49,107.747c1.617-18.765-23.979-44.677-41.66-42.341
	C64.058,84.241,80.534,105.385,104.49,107.747L104.49,107.747z M62.856,52.231c13.288-2.544,25.013-7.455,33.543-18.175
	c5.396-6.781,8.193-14.603,8.864-23.31C82.483,12.574,65.065,31.935,62.856,52.231L62.856,52.231z"/>
<path fill="#151515" d="M158.78,48.858v-8.285c0-0.688-0.228-1.264-0.68-1.71c-0.449-0.445-1.016-0.67-1.685-0.67h-6.547
	c-0.679,0-1.25,0.201-1.696,0.596c-0.459,0.408-0.701,0.953-0.701,1.577c0,0.625,0.242,1.17,0.7,1.575
	c0.445,0.396,1.018,0.598,1.697,0.598h4.254v5.272c-1.615,0.979-3.315,1.475-5.059,1.475c-1.704,0-3.292-0.449-4.721-1.335
	c-1.438-0.891-2.595-2.112-3.44-3.637c-0.847-1.522-1.276-3.225-1.276-5.059c0-1.812,0.43-3.506,1.277-5.043
	c0.844-1.532,2.001-2.762,3.438-3.652c1.429-0.886,3.017-1.334,4.721-1.334c1.368,0,2.486,0.167,3.325,0.497
	c0.849,0.335,1.736,0.892,2.649,1.662c0.478,0.385,0.999,0.579,1.552,0.579c0.61,0,1.146-0.2,1.593-0.596
	c0.458-0.409,0.7-0.954,0.7-1.578c0-0.376-0.063-0.713-0.186-1.007c-0.136-0.318-0.38-0.606-0.731-0.865
	c-1.374-1.098-2.755-1.898-4.104-2.381c-1.353-0.48-2.966-0.727-4.798-0.727c-2.591,0-4.993,0.65-7.143,1.937
	c-2.144,1.283-3.855,3.045-5.091,5.239c-1.233,2.192-1.859,4.638-1.859,7.269c0,2.651,0.626,5.115,1.859,7.319
	c1.235,2.206,2.948,3.97,5.094,5.241c2.146,1.271,4.549,1.918,7.141,1.918c3.389,0,6.398-1.059,8.939-3.145
	C158.512,50.184,158.78,49.584,158.78,48.858L158.78,48.858z"/>
<path fill="#151515" d="M182.913,53.007c0.407,0.253,0.845,0.383,1.303,0.383c0.669,0,1.242-0.23,1.702-0.688
	c0.462-0.457,0.697-1.016,0.697-1.658c0-0.283-0.07-0.6-0.221-0.987l-9.865-23.308c-0.39-1.04-1.17-1.588-2.257-1.588
	c-0.716,0-1.688,0.271-2.247,1.565l-9.846,23.277c-0.143,0.365-0.215,0.704-0.215,1.005c0,0.637,0.226,1.195,0.666,1.661
	c0.449,0.479,1.021,0.721,1.698,0.721c0.461,0,0.896-0.131,1.294-0.389c0.395-0.254,0.699-0.608,0.921-1.08l1.849-4.494h11.793
	l1.813,4.49C182.186,52.379,182.493,52.747,182.913,53.007L182.913,53.007z M178.491,43.29h-8.396l4.241-10.241L178.491,43.29
	L178.491,43.29z"/>
<path fill="#151515" d="M207.709,48.628h-12.097V27.54c0-0.666-0.235-1.235-0.697-1.693c-0.46-0.456-1.033-0.687-1.701-0.687
	c-0.646,0-1.208,0.23-1.668,0.687c-0.462,0.458-0.695,1.027-0.695,1.693v23.468c0,0.663,0.226,1.229,0.672,1.688
	c0.449,0.461,1.018,0.694,1.691,0.694h14.495c0.668,0,1.242-0.23,1.702-0.688c0.462-0.458,0.697-1.028,0.697-1.694
	c0-0.665-0.234-1.234-0.697-1.692C208.951,48.858,208.377,48.628,207.709,48.628L207.709,48.628z"/>
<path fill="#151515" d="M231.892,51.918c0.186,0.461,0.494,0.829,0.913,1.089c0.406,0.253,0.845,0.383,1.304,0.383
	c0.668,0,1.241-0.23,1.701-0.688c0.462-0.457,0.696-1.016,0.696-1.658c0-0.283-0.07-0.6-0.221-0.987l-9.865-23.308
	c-0.391-1.04-1.17-1.588-2.256-1.588c-0.717,0-1.687,0.271-2.248,1.565l-9.846,23.276c-0.142,0.365-0.214,0.705-0.214,1.006
	c0,0.637,0.224,1.195,0.665,1.661c0.45,0.479,1.021,0.721,1.7,0.721c0.461,0,0.896-0.131,1.293-0.389
	c0.395-0.254,0.7-0.608,0.921-1.08l1.848-4.494h11.793L231.892,51.918L231.892,51.918z M228.383,43.29h-8.395l4.242-10.241
	L228.383,43.29L228.383,43.29z"/>
<path fill="#151515" d="M243.106,53.389c0.694,0,1.275-0.233,1.727-0.694c0.446-0.457,0.671-1.023,0.671-1.688V33.797l14.209,18.713
	c0.207,0.31,0.504,0.537,0.883,0.686c0.334,0.13,0.669,0.194,0.997,0.194c0.669,0,1.235-0.226,1.685-0.671
	c0.45-0.444,0.679-1.021,0.679-1.711V27.54c0-0.688-0.229-1.264-0.679-1.711c-0.45-0.444-1.018-0.669-1.685-0.669
	c-0.664,0-1.234,0.222-1.695,0.662c-0.466,0.447-0.703,1.025-0.703,1.718v17.245l-14.256-18.772
	c-0.213-0.241-0.484-0.442-0.808-0.604c-0.336-0.166-0.682-0.25-1.025-0.25c-0.668,0-1.236,0.225-1.685,0.669
	c-0.452,0.446-0.68,1.021-0.68,1.711v23.468c0,0.691,0.229,1.268,0.679,1.711C241.87,53.164,242.437,53.389,243.106,53.389
	L243.106,53.389z"/>
<path fill="#151515" d="M289.217,25.16h-18.73c-0.646,0-1.189,0.213-1.614,0.634c-0.428,0.424-0.645,0.963-0.645,1.607
	c0,0.642,0.217,1.183,0.645,1.604c0.425,0.422,0.968,0.636,1.614,0.636h6.984v21.365c0,0.666,0.234,1.236,0.696,1.694
	c0.46,0.456,1.033,0.688,1.703,0.688c0.668,0,1.24-0.23,1.702-0.688c0.461-0.458,0.696-1.028,0.696-1.694V29.642h6.95
	c0.646,0,1.188-0.213,1.614-0.636c0.428-0.422,0.645-0.962,0.645-1.604c0-0.645-0.217-1.185-0.646-1.607
	C290.406,25.374,289.863,25.16,289.217,25.16L289.217,25.16z"/>
<path fill="#151515" d="M297.5,52.139c1.933,1.06,4.105,1.597,6.457,1.597c1.792,0,3.495-0.313,5.062-0.924
	c1.599-0.625,2.901-1.587,3.873-2.856c0.984-1.287,1.482-2.846,1.482-4.632c0-2.445-0.841-4.45-2.501-5.957
	c-1.626-1.477-3.929-2.372-6.842-2.661c-2.394-0.24-4.057-0.732-4.941-1.465c-0.849-0.699-1.261-1.54-1.261-2.569
	c0-1.091,0.449-1.899,1.373-2.474c0.999-0.622,2.347-0.938,4.001-0.938c1.336,0,2.448,0.249,3.302,0.738
	c0.854,0.491,1.579,1.223,2.143,2.148c0.213,0.395,0.523,0.71,0.921,0.938c0.789,0.451,1.775,0.453,2.506-0.009
	c0.622-0.43,0.95-1.027,0.95-1.723c0-0.501-0.172-1.026-0.512-1.56c-1.001-1.572-2.245-2.802-3.696-3.654
	c-1.46-0.857-3.267-1.292-5.369-1.292c-1.905,0-3.652,0.298-5.194,0.888c-1.575,0.602-2.836,1.491-3.749,2.641
	c-0.931,1.174-1.401,2.584-1.401,4.19c0,2.271,0.904,4.188,2.689,5.693c1.74,1.47,4.146,2.359,7.145,2.646
	c1.964,0.194,3.43,0.723,4.359,1.567c0.909,0.829,1.352,1.796,1.352,2.953c0,1.189-0.51,2.104-1.56,2.794
	c-1.113,0.729-2.502,1.101-4.131,1.101c-1.396,0-2.686-0.294-3.835-0.873c-1.112-0.563-1.86-1.239-2.218-2.007
	c-0.209-0.471-0.533-0.853-0.967-1.134s-0.897-0.425-1.382-0.425c-0.207,0-0.366,0.019-0.492,0.054
	c-0.545,0.116-0.99,0.351-1.325,0.695c-0.363,0.375-0.548,0.82-0.548,1.32c0,0.263,0.072,0.563,0.222,0.919
	C294.162,49.628,295.537,51.063,297.5,52.139L297.5,52.139z"/>
<path fill="#151515" d="M322.583,53.389c0.67,0,1.242-0.23,1.702-0.688c0.462-0.458,0.697-1.028,0.697-1.694v-8.112l1.877-1.858
	l8.449,11.34c0.456,0.662,1.141,1.014,1.98,1.014c0.635,0,1.187-0.257,1.599-0.742c0.392-0.465,0.591-1.004,0.591-1.604
	c0-0.536-0.154-1.021-0.464-1.453l-8.805-11.869l8.572-8.522c0.555-0.548,0.835-1.212,0.835-1.969c0-0.565-0.187-1.054-0.558-1.451
	c-0.381-0.411-0.906-0.617-1.562-0.617c-0.364,0-0.7,0.07-0.999,0.21c-0.283,0.133-0.583,0.357-0.913,0.685l-10.605,10.5V27.54
	c0-0.667-0.235-1.235-0.697-1.693c-0.46-0.456-1.032-0.687-1.702-0.687c-0.642,0-1.207,0.229-1.676,0.679
	c-0.479,0.458-0.721,1.03-0.721,1.701v23.468c0,0.672,0.243,1.242,0.72,1.7C321.377,53.159,321.941,53.389,322.583,53.389
	L322.583,53.389z"/>
<path fill="#151515" d="M354.479,23.333c0.646,0,1.195-0.219,1.632-0.651l3.379-3.348c0.45-0.412,0.68-0.964,0.68-1.639
	c0-0.661-0.228-1.229-0.673-1.688c-0.449-0.459-1.019-0.692-1.691-0.692c-0.646,0-1.206,0.229-1.667,0.686l-3.447,3.415
	c-0.382,0.409-0.575,0.938-0.575,1.573c0,0.664,0.221,1.224,0.653,1.668C353.208,23.105,353.783,23.333,354.479,23.333
	L354.479,23.333z"/>
<path fill="#151515" d="M366.496,50.055l-9.863-23.308c-0.392-1.04-1.171-1.588-2.257-1.588c-0.717,0-1.688,0.271-2.248,1.565
	l-9.846,23.276c-0.143,0.365-0.214,0.704-0.214,1.006c0,0.637,0.225,1.195,0.665,1.661c0.449,0.479,1.021,0.721,1.699,0.721
	c0.461,0,0.896-0.131,1.295-0.389c0.393-0.254,0.699-0.608,0.92-1.08l1.848-4.494h11.792l1.814,4.491
	c0.187,0.461,0.493,0.828,0.914,1.089c0.406,0.253,0.845,0.383,1.303,0.383c0.669,0,1.241-0.23,1.702-0.688
	c0.462-0.458,0.696-1.017,0.696-1.659C366.717,50.76,366.647,50.444,366.496,50.055L366.496,50.055z M358.594,43.29h-8.396
	l4.242-10.241L358.594,43.29L358.594,43.29z"/>
<path fill="#151515" d="M155.189,69.827c0-0.563-0.188-1.053-0.559-1.451c-0.381-0.41-0.905-0.617-1.56-0.617
	c-0.365,0-0.701,0.07-0.999,0.21c-0.284,0.135-0.583,0.356-0.914,0.685l-10.604,10.501v-9.015c0-0.665-0.234-1.235-0.697-1.693
	c-0.46-0.456-1.033-0.688-1.702-0.688c-0.642,0-1.206,0.229-1.677,0.681c-0.479,0.458-0.722,1.029-0.722,1.7v23.469
	c0,0.67,0.242,1.242,0.721,1.699c0.472,0.45,1.036,0.681,1.678,0.681c0.668,0,1.241-0.23,1.702-0.688
	c0.462-0.457,0.696-1.025,0.696-1.691v-8.113l1.877-1.859l8.447,11.341c0.456,0.663,1.143,1.013,1.982,1.013
	c0.633,0,1.185-0.255,1.596-0.741c0.394-0.465,0.592-1.005,0.592-1.604c0-0.536-0.153-1.023-0.464-1.454l-8.805-11.87l8.573-8.521
	C154.908,71.248,155.189,70.585,155.189,69.827L155.189,69.827z"/>
<path fill="#151515" d="M181.361,67.759c-0.665,0-1.235,0.224-1.695,0.663c-0.467,0.446-0.704,1.024-0.704,1.718v17.244
	l-14.256-18.771c-0.213-0.24-0.483-0.442-0.807-0.604c-0.337-0.166-0.683-0.25-1.026-0.25c-0.669,0-1.235,0.226-1.685,0.671
	c-0.451,0.444-0.68,1.021-0.68,1.71v23.469c0,0.688,0.229,1.266,0.68,1.711c0.449,0.444,1.015,0.669,1.685,0.669
	c0.694,0,1.276-0.232,1.728-0.694c0.445-0.457,0.671-1.023,0.671-1.686V76.396l14.209,18.713c0.207,0.308,0.504,0.537,0.882,0.684
	c0.333,0.129,0.668,0.194,0.997,0.194c0.667,0,1.233-0.225,1.685-0.669c0.45-0.446,0.679-1.021,0.679-1.711V70.139
	c0-0.688-0.229-1.265-0.68-1.713C182.595,67.983,182.028,67.759,181.361,67.759L181.361,67.759z"/>
<path fill="#151515" d="M193.369,67.759c-0.664,0-1.233,0.224-1.695,0.663c-0.467,0.446-0.702,1.024-0.702,1.718v23.469
	c0,0.666,0.233,1.234,0.695,1.692c0.46,0.456,1.033,0.688,1.702,0.688c0.695,0,1.277-0.232,1.728-0.694
	c0.445-0.457,0.672-1.022,0.672-1.686V70.139c0-0.689-0.229-1.266-0.681-1.71C194.639,67.983,194.061,67.759,193.369,67.759
	L193.369,67.759z"/>
<path fill="#151515" d="M210.597,60.302c-0.635-0.436-1.274-0.655-1.903-0.655c-0.535,0-0.985,0.15-1.336,0.449
	c-0.374,0.316-0.571,0.731-0.571,1.202c0,0.77,0.361,1.427,1.102,1.975l3.898,2.55c0.355,0.258,0.776,0.388,1.249,0.388
	c0.464,0,0.892-0.125,1.264-0.373l3.912-2.584c0.712-0.527,1.074-1.186,1.074-1.954c0-0.449-0.174-0.861-0.504-1.19
	c-0.714-0.703-2.031-0.664-3.3,0.189l-2.446,1.625L210.597,60.302L210.597,60.302z"/>
<path fill="#151515" d="M224.723,70.139c0-0.635-0.225-1.193-0.666-1.662c-0.45-0.477-1.045-0.719-1.769-0.719h-18.065
	c-0.686,0-1.259,0.208-1.704,0.62c-0.462,0.427-0.691,0.996-0.658,1.593c-0.033,0.632,0.178,1.174,0.605,1.564
	c0.411,0.376,0.979,0.566,1.687,0.566h14.118l-16.36,20.041c-0.313,0.402-0.472,0.884-0.472,1.429c0,0.63,0.214,1.19,0.635,1.664
	c0.438,0.499,1.021,0.751,1.729,0.751h18.486c0.681,0,1.245-0.194,1.678-0.578c0.454-0.401,0.686-0.95,0.686-1.628
	c0-0.582-0.232-1.093-0.693-1.517c-0.446-0.413-1.009-0.622-1.67-0.622h-14.503l16.426-20.104
	C224.551,71.11,224.723,70.64,224.723,70.139L224.723,70.139z"/>
<path fill="#151515" d="M251.244,67.759c-0.664,0-1.233,0.224-1.695,0.663c-0.466,0.446-0.702,1.024-0.702,1.718v17.244
	L234.59,68.611c-0.212-0.239-0.483-0.442-0.807-0.604c-0.336-0.166-0.682-0.25-1.026-0.25c-0.668,0-1.234,0.226-1.684,0.67
	c-0.451,0.445-0.679,1.021-0.679,1.711v23.469c0,0.688,0.229,1.266,0.679,1.711c0.449,0.444,1.015,0.669,1.684,0.669
	c0.696,0,1.276-0.232,1.728-0.694c0.446-0.457,0.672-1.022,0.672-1.686V76.396l14.209,18.713c0.207,0.308,0.504,0.537,0.882,0.684
	c0.334,0.129,0.669,0.194,0.997,0.194c0.668,0,1.236-0.225,1.687-0.669c0.448-0.446,0.677-1.021,0.677-1.711V70.139
	c0-0.688-0.229-1.265-0.678-1.71C252.479,67.983,251.913,67.759,251.244,67.759L251.244,67.759z"/>
<path fill="#151515" d="M263.253,67.759c-0.664,0-1.233,0.224-1.694,0.663c-0.467,0.446-0.703,1.024-0.703,1.718v23.469
	c0,0.666,0.234,1.234,0.696,1.692c0.461,0.456,1.033,0.688,1.702,0.688c0.695,0,1.275-0.232,1.728-0.694
	c0.444-0.458,0.67-1.023,0.67-1.686V70.139c0-0.688-0.228-1.265-0.679-1.713C264.521,67.983,263.942,67.759,263.253,67.759
	L263.253,67.759z"/>
<path fill="#151515" d="M281.011,73.16c1.428-0.885,3.016-1.334,4.719-1.334c1.368,0,2.486,0.167,3.325,0.496
	c0.849,0.336,1.737,0.892,2.649,1.664c0.961,0.772,2.258,0.766,3.145-0.019c0.458-0.407,0.7-0.952,0.7-1.576
	c0-0.376-0.062-0.715-0.186-1.008c-0.134-0.313-0.386-0.608-0.732-0.864c-1.373-1.1-2.754-1.899-4.104-2.381
	c-1.354-0.482-2.967-0.729-4.799-0.729c-2.59,0-4.993,0.651-7.142,1.938c-2.144,1.283-3.857,3.047-5.091,5.238
	c-1.233,2.193-1.859,4.64-1.859,7.27c0,2.651,0.626,5.114,1.859,7.318c1.234,2.206,2.948,3.971,5.094,5.241
	c2.146,1.273,4.55,1.919,7.14,1.919c3.316,0,6.325-1.058,8.938-3.142l0.047-0.042c0.485-0.48,0.73-1.051,0.73-1.693
	c0-0.658-0.2-1.204-0.594-1.625c-0.734-0.783-1.896-0.913-3.024-0.121c-1.941,1.442-3.994,2.173-6.098,2.173
	c-1.703,0-3.292-0.447-4.72-1.334c-1.438-0.89-2.595-2.112-3.441-3.638c-0.846-1.522-1.275-3.225-1.275-5.058
	c0-1.811,0.43-3.506,1.276-5.042C278.417,75.28,279.574,74.05,281.011,73.16L281.011,73.16z"/>
<path fill="#151515" d="M313.196,69.346c-0.391-1.038-1.171-1.588-2.257-1.588c-0.716,0-1.687,0.271-2.248,1.565l-9.846,23.277
	c-0.145,0.371-0.214,0.7-0.214,1.006c0,0.635,0.225,1.194,0.666,1.661c0.448,0.478,1.021,0.719,1.697,0.719
	c0.461,0,0.896-0.13,1.294-0.387c0.395-0.254,0.7-0.608,0.922-1.08l1.848-4.495h11.793l1.815,4.491
	c0.186,0.462,0.492,0.83,0.911,1.089c0.407,0.253,0.846,0.382,1.305,0.382c0.668,0,1.24-0.23,1.702-0.688s0.695-1.016,0.695-1.656
	c0-0.285-0.069-0.604-0.221-0.989L313.196,69.346L313.196,69.346z M315.158,85.889h-8.396l4.241-10.24L315.158,85.889
	L315.158,85.889z"/>
</svg>
