<svg width="123.32" height="122.82" version="1.1" viewBox="0 0 123.32 122.82" xmlns="http://www.w3.org/2000/svg"><path d="m55.645 122.16c-10.61-1.2904-19.253-4.4004-27.601-9.9314-6.9401-4.5988-13.884-11.703-18.191-18.611-11.262-18.064-12.424-40.458-3.0728-59.244 3.1511-6.3306 6.1385-10.609 10.765-15.415 9.9407-10.328 21.459-16.274 35.843-18.504 1.3305-0.2062 4.4366-0.3302 8.2715-0.3302 7.5451 0 10.872 0.44388 17.17 2.2908 20.72 6.0766 37.012 23.152 42.21 44.239 1.3511 5.4815 1.6479 8.204 1.6223 14.88-0.0204 5.2945-0.10064 6.4514-0.66964 9.6501-2.3416 13.164-8.3869 24.642-17.756 33.713-3.5275 3.4152-5.5599 5.0666-9.2437 7.511-7.0897 4.7045-14.82 7.7201-23.808 9.2882-2.2998 0.40122-13.344 0.73063-15.54 0.46351zm14.368-1.472c13.413-2.08 24.508-7.6702 33.973-17.117 17.848-17.813 22.758-43.95 12.581-66.97-6.7404-15.248-20.537-27.695-36.358-32.803-6.5421-2.1121-11.371-2.866-18.423-2.876-6.3968-0.0091194-10.291 0.4835-15.791 1.9977-15.693 4.3201-29.059 14.84-36.943 29.075-5.3828 9.7194-7.8355 19.862-7.4722 30.9 0.29791 9.0536 2.1262 16.433 6.0596 24.457 3.2196 6.5684 7.0653 11.849 12.362 16.975 10.191 9.8618 22.327 15.345 37.273 16.841 2.0343 0.20367 10.353-0.10939 12.739-0.47941zm-12.157-1.817c0.32726-0.64076 0.86991-5.7019 0.67664-6.3109-0.11476-0.36158-0.055-0.51942 0.19668-0.51942 0.19885 0 0.69288-0.0663 1.0979-0.14726 0.72211-0.14442 0.75514-0.10332 1.7119 2.1306 0.53658 1.2528 1.0395 2.2778 1.1176 2.2778 0.07812 0 0.49039-0.98695 0.91615-2.1932l0.77411-2.1932 2.0755-0.1542 7.52e-4 0.95436c1e-3 1.3151 0.73304 5.4128 1.0189 5.7042 0.46337 0.47237 0.21272 0.63913-0.95701 0.63669l-1.1906-3e-3 -0.0493-2.0395c-0.02711-1.1217-0.15549-2.1457-0.28528-2.2755-0.14754-0.14754-0.53774 0.66978-1.0412 2.1808-0.62205 1.8672-0.8992 2.3995-1.2186 2.3406-0.23996-0.0442-0.9363-1.128-1.6594-2.5827l-1.2459-2.5065-0.20593 2.2174c-0.14764 1.5898-0.1233 2.317 0.08603 2.5692 0.24349 0.29339 0.09815 0.35179-0.87549 0.35179-1.0301 0-1.1411-0.0516-0.94342-0.43864zm-3.4036-0.0569c-3.63-0.86132-4.4342-5.0513-1.3588-7.0795 0.76126-0.50206 3.5104-0.62057 4.3218-0.18631 0.45273 0.2423 0.6672 1.2292 0.33854 1.5578-0.08046 0.0804-0.53644-0.0839-1.0133-0.36527-1.8961-1.1187-3.8535 0.0513-3.8535 2.3035 0 1.1033 0.09066 1.2973 0.93995 2.012 0.89027 0.74911 1.0228 0.78369 2.5071 0.65425l1.5671-0.13665-0.54901 0.74258c-0.58162 0.78668-1.2201 0.89625-2.9 0.49765zm13.725-6e-3c0-0.1506 0.46534-1.1217 1.0341-2.158l1.0341-1.8842-0.72078-0.76815c-0.39643-0.42248-1.1517-1.0855-1.6784-1.4734l-0.95764-0.70526 1.0543-0.28389c1.0416-0.28047 1.0668-0.27163 2.0895 0.73205l1.0352 1.0159 0.33559-0.75815c0.18458-0.41699 0.28001-0.97071 0.21208-1.2305-0.10104-0.3864 0.05686-0.5028 0.868-0.63984 0.54533-0.0921 1.049-0.11004 1.1192-0.0398 0.07025 0.0703-0.27847 0.89317-0.77494 1.8287l-0.90266 1.701 1.4402 1.4554c0.79212 0.80048 1.6522 1.5227 1.9112 1.6049 0.62347 0.19788 0.2552 0.50287-0.84192 0.69724-0.80705 0.14299-0.98479 0.0569-1.9841-0.96134-0.60369-0.61511-1.18-1.0674-1.2808-1.0052-0.45462 0.28096-1.1866 2.0718-0.94539 2.313 0.31375 0.31375 0.0905 0.4476-1.1069 0.66367-0.61605 0.11116-0.93995 0.0752-0.93995-0.10421zm-19.518-1.3888c-0.68692-0.29822-0.78967-0.43322-0.54974-0.72231 0.24788-0.29868 1.3169-4.191 1.1868-4.321-0.02359-0.0235-0.77602 0.84487-1.6721 1.9298-2.3795 2.881-2.5713 2.7736-2.9053-1.6267l-0.17034-2.2441-0.95632 1.8681c-0.52598 1.0275-0.9619 2.1219-0.96872 2.4321-0.01476 0.67083-0.02218 0.67189-1.2111 0.1726-0.8108-0.34052-0.87418-0.42397-0.48774-0.64218 0.52674-0.29743 2.9397-5.0003 2.9397-5.7295 0-0.57356 0.33279-0.62591 1.4665-0.23069 0.75628 0.26364 0.79014 0.33456 0.80794 1.6919 0.01023 0.7792 0.09481 1.9224 0.18799 2.5405l0.16941 1.1238 1.4912-1.8131c1.5161-1.8433 1.8417-2.0106 3.0314-1.5583 0.48906 0.18594 0.60184 0.33836 0.41726 0.56397-0.33091 0.40448-1.3055 4.9357-1.3055 6.0698 0 0.98464-0.19389 1.0499-1.4714 0.49527zm27.442-0.47245c0.15099-0.39348-1.3177-5.8552-1.7027-6.332-0.17411-0.21562 0.05861-0.38009 0.84262-0.59549 0.59574-0.16367 1.5565-0.46561 2.135-0.67098 1.0085-0.35799 1.0988-0.34714 2.1903 0.26291 0.62616 0.34997 1.1806 0.56038 1.232 0.46757 0.31888-0.57508 0.39716-1.641 0.143-1.9472-0.2369-0.28545-0.11536-0.42584 0.64293-0.74267 0.51428-0.21488 0.99271-0.33303 1.0632-0.26255 0.07048 0.0705-0.07049 0.9387-0.31327 1.9294l-0.44141 1.8012 0.57935 0.43701c0.31864 0.24036 1.2934 0.80323 2.1661 1.2508 0.8727 0.4476 1.5867 0.85276 1.5867 0.90035 0 0.12679-1.4419 0.85137-1.6942 0.85137-0.11835 0-0.84901-0.38167-1.6237-0.84815l-1.4085-0.84816-0.29494 1.2294c-0.21874 0.91183-0.2221 1.3172-0.01301 1.5692 0.22284 0.2685 0.09273 0.4295-0.62071 0.76805-0.49646 0.23559-0.96903 0.36197-1.0502 0.28084-0.08112-0.0811 0.04083-1.0239 0.27101-2.095 0.23018-1.0711 0.4185-2.0775 0.4185-2.2363 0-0.30783-2.5036-1.7558-3.4465-1.9933-0.3328-0.0838-0.56397-0.0274-0.56397 0.13766 0 0.65134 1.6004 5.6998 1.9257 6.0747 0.31638 0.36459 0.26722 0.44049-0.44649 0.68929-1.1209 0.39076-1.7449 0.35992-1.5769-0.0779zm-19.077-7.8103c-3.3249-0.45339-4.8305-0.72486-6.9287-1.2493-13.147-3.286-24.328-12.041-30.873-24.174-2.4695-4.5779-4.5235-11.055-5.1933-16.376-0.44936-3.57-0.18088-12.355 0.47395-15.508 4.9699-23.931 26.937-40.571 50.959-38.6 10.791 0.88559 20.04 4.8789 28.486 12.3 5.5894 4.9109 10.971 13.174 13.433 20.625 5.7523 17.411 0.99223 36.738-12.184 49.471-7.2434 6.9994-15.381 11.172-25.436 13.044-2.1044 0.39164-10.919 0.71485-12.736 0.46703zm13.159-1.5976c17.626-3.2662 32.238-16.763 36.956-34.135 1.0361-3.8153 1.4088-6.3142 1.5649-10.491 0.48484-12.973-4.1591-25.091-13.194-34.43-6.9158-7.1485-15.355-11.769-25.101-13.743-2.524-0.51119-3.5594-0.57771-8.8731-0.57001-5.2436 0.0076-6.3535 0.08037-8.6475 0.56693-9.9478 2.1099-18.211 6.6414-25.068 13.747-3.7211 3.8561-6.0014 7.1035-8.54 12.162-7.1486 14.245-6.086 32.273 2.6996 45.8 7.944 12.231 20.131 19.797 34.919 21.676 2.319 0.29479 10.479-0.0636 13.285-0.58341zm-4.5117-2.0791c0-0.52548 0.09476-0.58735 0.75196-0.49089 0.67185 0.0986 0.75196 0.0406 0.75196-0.54472 0-0.53165-0.11807-0.65508-0.62663-0.65508-0.38991 0-0.62663-0.14204-0.62663-0.37598 0-0.20887 0.2228-0.37598 0.5013-0.37598 0.39397 0 0.50131-0.1671 0.50131-0.7804 0-0.71294-0.05959-0.77018-0.6893-0.66208-0.37911 0.0651-0.89661 0.20655-1.15 0.31438-0.38239 0.16273-0.4463 0.0952-0.37598-0.39718 0.06806-0.47657 0.2819-0.62517 1.0873-0.75556 2.1534-0.34863 4.1779-0.4967 4.0542-0.29652-0.07144 0.1156 0.06094 0.46318 0.29419 0.7724 0.34886 0.4625 0.57265 0.5325 1.2617 0.39469 0.80535-0.16107 0.83267-0.20448 0.709-1.1265-0.12431-0.92678-0.09992-0.96434 0.72663-1.1194 0.47038-0.08825 1.2727-0.37325 1.7828-0.63334 1.1206-0.57131 2.102-0.60134 3.0825-0.09433 2.0986 1.0852 1.5161 4.3443-0.92029 5.1483-0.72978 0.24085-0.93969 0.23221-1.1159-0.0459-0.35359-0.55814-0.26132-0.71857 0.41332-0.71857 0.82595 0 1.8685-1.0489 1.8685-1.8799 0-0.36346-0.28404-0.93346-0.64505-1.2945-0.53704-0.53704-0.79935-0.62048-1.5666-0.49837-0.54716 0.08708-1.1506 0.41036-1.4855 0.79574l-0.56397 0.64907-0.0076-0.70327c-0.0056-0.51763-0.06423-0.60403-0.22209-0.32729-0.29727 0.52113-0.8292 3.842-0.72944 4.554 0.06853 0.48911-0.04069 0.59527-0.67009 0.65132-0.67578 0.0602-0.87892-0.11531-2.0052-1.7324-1.3111-1.8825-1.8787-2.555-2.0292-2.4045-0.04931 0.0493 0.06916 1.1528 0.26327 2.4521 0.1941 1.2994 0.33247 2.3782 0.30748 2.3974-0.02499 0.0192-0.694 0.11358-1.4867 0.20969-1.4026 0.17005-1.4413 0.15861-1.4413-0.42652zm6.2663-2.6854c0-0.33563-0.12024-0.4473-0.37598-0.34917-0.40212 0.15431-0.47958 0.40481-0.20888 0.6755 0.31614 0.31615 0.58486 0.16621 0.58486-0.32633zm-18.11 2.8204c-0.53452-0.081-0.6893-0.24138-0.6893-0.7144 0-0.61904 0.34415-0.81639 0.62663-0.35933 0.0852 0.13786 0.37384 0.25065 0.64142 0.25065 0.35184 0 0.48651-0.17345 0.48651-0.62663 0-0.45953-0.13368-0.62663-0.50131-0.62663-0.33578 0-0.5013-0.1671-0.5013-0.50608 0-0.40689 0.11614-0.47694 0.59253-0.35737 0.62762 0.15753 0.90045-0.32237 0.90796-1.5971 0.0028-0.47434 0.11955-0.5661 0.63785-0.50131 0.34893 0.0436 0.64642 0.13571 0.66108 0.20464 0.01466 0.0689-0.17135 1.2251-0.41337 2.5692-0.48515 2.6945-0.36186 2.5805-2.4487 2.2643zm-4.1254-1.0233c-0.17477-0.11108-0.369-1.0904-0.45912-2.3147-0.08591-1.1672-0.25391-2.4324-0.37333-2.8115-0.24053-0.76354-0.15061-0.80569 0.92153-0.43194 0.65803 0.22939 0.72726 0.35152 0.63708 1.1239-0.08834 0.75672-0.01389 0.89972 0.58748 1.1284 0.55147 0.20966 0.78151 0.17777 1.1549-0.16014 0.25644-0.23207 0.46625-0.58588 0.46625-0.78625 0-0.2722 0.17415-0.3206 0.68878-0.19143 0.81668 0.20497 1.0537 0.41082 0.64269 0.55813-0.38943 0.13956-3.086 3.479-3.086 3.8217 0 0.3058-0.73677 0.34565-1.1802 0.0638zm1.2827-2.3433c-0.27633-0.44712-0.60349-0.186-0.59584 0.47557 0.0075 0.65311 0.02687 0.66433 0.36795 0.21372 0.19799-0.26156 0.30054-0.57174 0.22789-0.68929zm9.2744 0.94564c-0.30039-0.78281 0.0035-1.2847 0.77802-1.2847 0.66459 0 0.74852 0.0843 0.74852 0.75195 0 0.63438-0.10801 0.76439-0.69072 0.83141-0.44079 0.0507-0.74322-0.0574-0.83582-0.29867zm-16.458-0.55949c-0.99656-0.42711-1.0603-0.523-0.71274-1.0718 0.184-0.29053 0.31412-0.28038 0.80389 0.0627 1.4135 0.99003 2.9793 0.20822 2.9793-1.4875 0-1.0476-0.75797-1.6861-2.1998-1.8532l-1.1662-0.13513 0.70762-0.46228c0.67165-0.43878 0.76341-0.44098 1.8051-0.04314 2.0889 0.79777 2.764 2.8948 1.4172 4.4021-0.85158 0.953-2.2539 1.18-3.6345 0.58835zm36.398-0.91319c-0.0052-0.17233-0.45036-1.2157-0.98934-2.3185-0.88826-1.8176-0.94153-2.0345-0.56934-2.3185 0.58274-0.44465 1.0664-0.38793 1.0688 0.12533 1e-3 0.24125 0.43269 1.3193 0.95908 2.3957 0.8785 1.7964 0.92084 1.9764 0.51578 2.1932-0.60648 0.32458-0.97377 0.29581-0.98494-0.0771zm-39.443-0.6143c-0.39704-0.20803-0.60817-0.451-0.46918-0.53994 0.47233-0.3022 1.8223-2.7212 1.8223-3.2653 0-0.3412-0.24318-0.65242-0.65718-0.84105-0.59542-0.27129-0.71148-0.23133-1.235 0.42517-0.31778 0.39853-0.77737 1.1843-1.0213 1.7461-0.24395 0.5618-0.4632 1.0539-0.48722 1.0935-0.02401 0.03963-0.34024-0.06307-0.7027-0.22822-0.65606-0.29892-0.83962-0.60376-0.45937-0.76289 0.24382-0.10203 2.3069-3.6709 2.3069-3.9907 0-0.40685 0.48842-0.24246 0.81013 0.27267 0.17219 0.27572 0.55271 0.50131 0.84561 0.50131 0.2929 0 0.82973 0.23377 1.193 0.5195 0.92931 0.731 0.85168 1.7535-0.28701 3.7802l-0.93707 1.6679zm41.207-0.45098c0-0.3785 0.14302-0.62663 0.36119-0.62663 0.19865 0 0.42506-0.10334 0.50312-0.22965 0.13784-0.22302-1.5141-3.2544-1.9369-3.5542-0.11584-0.08215 0.07413-0.33594 0.42215-0.56397 0.7736-0.50689 0.90106-0.51489 0.90106-0.05659 0 0.44406 1.7422 3.4018 2.0038 3.4018 0.10486 0 0.33108-0.16919 0.5027-0.37598 0.44817-0.54001 0.75264-0.46345 0.74758 0.18799-0.0033 0.42375-0.39704 0.79767-1.5836 1.5039-0.8686 0.51697-1.6562 0.93994-1.7502 0.93994-0.09401 0-0.17092-0.28198-0.17092-0.62663zm-46.068-2.5234c-0.54419-0.38117-0.54395-0.38183 0.72994-2.0028 1.392-1.7713 1.431-2.233 0.22396-2.6538-0.87615-0.30543-0.96774-0.61433-0.24972-0.84222 0.3551-0.11271 0.88185 0.11578 1.7701 0.76781l1.2645 0.92826-0.60972 0.65655c-0.33535 0.3611-1.0292 1.2769-1.542 2.0351-0.51274 0.75822-0.95712 1.4042-0.98751 1.4355-0.03038 0.03129-0.30021-0.11468-0.59961-0.32439zm50.204-1.391c-0.82716-0.55268-1.889-1.1762-2.3596-1.3856l-0.85567-0.38072 1.453-1.1585 0.55587 0.59979c0.66115 0.71339 0.67256 0.7148 1.483 0.18376 0.5059-0.33148 0.60195-0.54746 0.47261-1.0628-0.08928-0.35571-0.2717-0.71434-0.4054-0.79697-0.13369-0.08263 0.25816-0.56095 0.87077-1.0629l1.1138-0.91272 1.0916 0.99785c0.6004 0.54882 1.1225 0.90514 1.1603 0.79183 0.03777-0.11331-0.21613-0.85-0.56422-1.6371-0.56057-1.2675-0.58664-1.4488-0.22819-1.5864 0.22258-0.08541 0.98406 0.09564 1.6922 0.40234 0.70812 0.3067 1.4501 0.62603 1.6489 0.70963 0.19877 0.0836-0.01306-0.36941-0.47071-1.0067-0.45766-0.63728-0.99311-1.2205-1.1899-1.296-0.27468-0.10541-0.17018-0.37071 0.45-1.1424 0.7606-0.94646 0.88582-1.0052 2.1444-1.0052 1.5106 0 1.6821-0.26892 0.58468-0.91716-0.88092-0.52038-0.90533-0.62092-0.28659-1.1809 0.42892-0.38816 0.49183-0.38926 0.80324-0.01404 0.43429 0.52329 3.0165 2.5038 3.4449 2.6422 0.40615 0.13119-0.80399 1.7916-1.6409 2.2514-0.87471 0.4806-1.8194-0.04985-1.8194-1.0216 0-0.72448-0.04621-0.75717-1.0653-0.7535-1.79 0.0064-1.8283 0.2068-0.42124 2.204 0.69851 0.99145 1.3926 1.8026 1.5424 1.8026 0.14983 0 0.06827 0.22559-0.18126 0.5013-0.58052 0.64147-1.0968 0.63168-2.4943-0.04727-0.62103-0.30172-1.1895-0.48825-1.2632-0.41451-0.07374 0.07374 0.14488 0.76483 0.48582 1.5358 0.60245 1.3622 0.60712 1.4175 0.16592 1.9623l-0.45396 0.56062-1.854-1.5957c-1.4322-1.2327-1.8727-1.4983-1.9364-1.1677-0.11137 0.57829 0.67129 3.9588 1.0114 4.3687 0.20321 0.24485 0.15162 0.41911-0.20371 0.68807-0.66747 0.50523-0.79319 0.472-2.4811-0.65578zm1.2687-1.3995c-0.11642-0.30339-0.23031-0.3365-0.43913-0.12768-0.20882 0.20882-0.19282 0.38933 0.06172 0.69603 0.38877 0.46844 0.63372 0.09957 0.37741-0.56835zm9.8265-7.8868c0.22231-0.22231 0.18939-0.37006-0.13786-0.61866-0.61344-0.46602-1.0566-0.41695-1.0566 0.11699 0 0.79928 0.63155 1.0645 1.1944 0.50167zm-65.588 7.2097c-1.2566-1.2724-1.3067-1.3701-0.83293-1.6237 0.41149-0.22022 0.56761-0.17418 0.84964 0.25058 0.33638 0.50662 0.37562 0.48818 1.4848-0.69765 0.62662-0.66991 1.2668-1.4424 1.4225-1.7165 0.28019-0.49321 0.28916-0.49264 0.84112 0.05295l0.55791 0.55147-0.51724 0.45114c-0.28448 0.24813-0.94898 0.94332-1.4767 1.5449l-0.95942 1.0937 0.5753 0.46585c0.31641 0.25622 0.50364 0.5818 0.41606 0.7235-0.33848 0.54767-1.0757 0.20541-2.3611-1.0962zm41.709-1.7026c-9.0459-3.9377-20.18-9.1257-20.746-9.6668-1.3352-1.2765-1.4137-3.5782-0.17569-5.1521 0.52036-0.66154 4.6511-2.7642 11.772-5.9925 3.6345-1.6476 5.765-2.3105 5.765-1.7936 0 0.2447-2.2548 1.7115-7.7702 5.0548-5.5486 3.3634-5.8955 3.2063 6.8303 3.0933 6.9566-0.0618 10.465-0.0079 10.465 0.16082 0 0.13958-0.26586 0.32051-0.59081 0.40206-1.0319 0.259-18.589 2.4126-19.669 2.4126-0.11746 0-0.34803 0.29514-0.51238 0.65586-0.25389 0.55723-0.23167 0.70515 0.14776 0.98363 0.24562 0.18027 3.9432 2.4273 8.2168 4.9933 7.9915 4.7984 8.6475 5.2148 8.6475 5.4888 0 0.29443-0.61225 0.12982-2.3812-0.64022zm-3.7667-2.5401c-0.27193-0.18305-2.2991-1.3566-4.5049-2.6078s-4.8512-2.7934-5.8788-3.427c-1.1108-0.68486-2.1676-1.152-2.6063-1.152h-0.73789l0.83236-0.56397c1.1738-0.79527 1.2981-1.3136 0.26549-1.1071-1.1114 0.22229-0.73965-0.26023 0.42812-0.55563 0.51115-0.1293 2.2265-0.36102 3.8119-0.51493 1.5854-0.15391 5.2455-0.50608 8.1336-0.78259 5.4068-0.51765 7.3693-0.92212 3.1458-0.64831-5.4794 0.35522-15.706 0.48542-16.187 0.20609-0.4142-0.24041-0.34477-0.28048 0.49739-0.28704 0.94291-0.0073 0.96312-0.02494 0.55116-0.48016-0.2352-0.2599-0.78845-0.55767-1.2294-0.66173l-0.80181-0.18919 1.0033-0.16151c0.85163-0.1371 10.903-5.5968 10.903-5.9223 0-0.05559-1.7201 0.75465-3.8225 1.8005-2.1024 1.0459-5.2229 2.5943-6.9346 3.4408-3.5917 1.7764-4.1303 2.3448-3.9445 4.1629 0.15507 1.5177 0.87873 2.1119 4.426 3.6343 1.5847 0.68015 5.0808 2.335 7.7691 3.6774 4.5578 2.276 6.0665 2.9372 4.8808 2.139zm-41.365 0.81796c-0.35972-0.39748-0.29603-0.62518 0.76676-2.7413 0.63748-1.2693 1.0956-2.3713 1.0181-2.4488-0.07753-0.07753-0.14097-0.0094-0.14097 0.15146 0 0.53941-0.49003 0.29929-0.6444-0.31575-0.18628-0.74221-0.9825-1.5055-1.34-1.2846-0.16316 0.10084-0.20318 0.71841-0.1065 1.6434 0.14782 1.4143 0.12559 1.4952-0.48789 1.7747-0.91749 0.41804-1.8716 0.09168-2.4336-0.83242-0.45634-0.7504-0.45997-0.82524-0.0613-1.2658 0.40979-0.45281 0.43136-0.4449 0.65571 0.24032 0.22314 0.6815 0.57467 1.0726 0.97144 1.0807 0.1034 2e-3 0.18799-0.73174 0.18799-1.6308 0-1.5073 0.04961-1.6572 0.63673-1.9247 0.89614-0.40831 1.8585-0.0077 2.5372 1.0561 0.30668 0.48069 0.80702 1.1949 1.1119 1.5871 0.33008 0.42472 0.45385 0.77954 0.30601 0.87728-0.61278 0.40512-0.78319 1.1336-0.40146 1.7162 0.43703 0.66699 0.99043 0.73401 1.7379 0.21047 0.47321-0.33145 0.56993-0.31884 0.97329 0.12686 0.24633 0.27219 0.40156 0.53215 0.34497 0.5777-0.0566 0.04555-1.2587 0.47713-2.6713 0.95908-2.422 0.82634-2.5907 0.85157-2.9607 0.44278zm2.0826-1.4251c0.15345-0.46086-0.60923-0.3825-0.78704 0.08087-0.10548 0.27489-0.02507 0.36971 0.26573 0.31332 0.22935-0.04448 0.46394-0.22186 0.52132-0.39419zm55.564-1.2148c-4.0156-9.7961-10.066-16.474-17.372-19.173-2.8166-1.0406-6.6723-1.2805-9.7178-0.6046-3.3163 0.736-7.0488 2.4994-10.023 4.7355-4.0655 3.0561-7.2784 7.5454-10.227 14.291-0.35583 0.81388-0.6998 1.4269-0.76437 1.3624-0.20631-0.20631 0.58981-4.5382 1.1432-6.2206 1.844-5.6055 7.0247-11.783 11.976-14.279 1.8927-0.95443 0.89909-0.87241-1.1353 0.09371-2.4359 1.1568-5.3723 3.1295-7.995 5.3712-2.2558 1.9281-5.442 5.9521-7.8606 9.9275-1.654 2.7188-1.9086 2.6235-1.0464-0.3917 1.0978-3.8386 2.9249-6.6303 7.0451-10.764 3.6484-3.6604 6.9894-5.9365 11.258-7.6691 0.54036-0.21935 0.42298-0.2922-1.1279-0.70006-9.7977-2.5766-17.885-9.6577-21.409-18.745-1.075-2.7721-0.92988-3.0377 0.50267-0.92008 4.695 6.9403 9.8312 11.871 15.396 14.78 2.1092 1.1026 5.8111 2.4193 6.071 2.1593 0.062-0.062-0.48458-0.45056-1.2146-0.86347-3.8967-2.2039-8.0468-6.1247-10.514-9.9328-3.0196-4.6608-4.7416-8.9217-5.126-12.684l-0.14132-1.3829 1.359 2.7572c3.2187 6.53 5.6996 10.385 8.6925 13.508 4.7495 4.9556 10.367 7.8083 17.114 8.691 5.527 0.7231 11.362-0.97692 16.489-4.8042 2.0957-1.5644 6.0574-5.5044 8.0396-7.9955 1.2719-1.5985 5.4175-7.758 6.8496-10.177 0.3996-0.67504 0.76859-1.1073 0.81999-0.96058 0.17571 0.50157-1.182 4.6701-2.1585 6.6268-2.2126 4.4341-6.1402 9.8769-9.3077 12.898-2.2628 2.1585-2.0583 2.093 2.0776-0.66512 2.9398-1.9605 5.9344-4.4882 9.8454-8.3101 1.7912-1.7504 3.2959-3.065 3.3438-2.9213 0.1642 0.4926-2.3622 4.2746-4.6371 6.9416l-1.0444 1.2245 0.81586-0.09525c0.95853-0.1119 1.649 0.44445 1.649 1.3287 0 0.90005-0.67549 1.4226-1.7214 1.3317-0.85308-0.07416-0.92014-0.02399-1.2332 0.92291-0.26632 0.80542-0.27346 1.4232-0.03647 3.1573 0.2726 1.9948 0.35796 2.2065 1.1416 2.8318 0.52738 0.4208 0.84695 0.55094 0.84695 0.3449 0-0.18199 0.19521-0.6096 0.4338-0.95023 0.35814-0.51131 0.41953-1.0674 0.35197-3.1886-0.07603-2.3875-0.03605-2.6474 0.56527-3.6735 0.45548-0.77722 0.99392-1.2721 1.8184-1.6712 1.0621-0.51415 1.2318-0.53318 1.8208-0.20416 0.77902 0.43521 0.98276 1.4917 0.38358 1.9889-0.22912 0.19016-0.76779 0.34969-1.197 0.35452-1.1221 0.01263-1.3518 0.83301-0.96881 3.4605 0.16534 1.1344 0.41987 2.1022 0.56563 2.1508 0.14576 0.04859 0.48428 0.32369 0.75226 0.61134 0.5902 0.63351 0.68991 2.9561 0.14628 3.4072-0.26 0.21578-0.312 0.83672-0.219 2.6148 0.14701 2.8106-0.32545 4.7481-1.4779 6.0606-0.65151 0.74203-0.93455 0.8784-1.8231 0.8784-1.2196 0-1.6534-0.33389-1.6534-1.2727 0-0.85798 0.53254-1.2984 1.3284-1.0987 0.55002 0.13804 0.6611 0.04542 0.93276-0.77772 0.20952-0.63485 0.2531-1.6159 0.13592-3.06-0.16079-1.9817-0.22868-2.1786-1.0028-2.9087l-0.83032-0.7831-0.33267 0.75201c-0.18309 0.41389-0.3944 2.1247-0.46996 3.805-0.15634 3.4763-0.40123 4.0292-2.2397 5.0562-1.8326 1.0237-3.3374 0.32606-2.9862-1.3843 0.07624-0.37129 0.3052-0.44842 1.2041-0.40565 0.64963 0.03091 1.1899-0.07304 1.3028-0.25065 0.23319-0.36693 0.2626-3.5649 0.04289-4.6635-0.09857-0.49285-0.4193-0.94278-0.85593-1.2007-1.3083-0.77282-1.6065-2.3054-0.67834-3.4857 0.52528-0.66798 0.55792-0.91751 0.47588-3.6372-0.06022-1.9962 0.0101-3.1035 0.22227-3.5 0.20528-0.38357-0.40135-0.02419-1.7918 1.0615-4.015 3.135-8.3594 5.5752-11.815 6.6365-0.79269 0.24344-1.4365 0.504-1.4306 0.57902 0.0058 0.07502 0.79672 0.52977 1.7575 1.0106 5.1124 2.5582 10.328 7.3357 13.96 12.786 1.3211 1.9829 3.4283 5.9925 3.2455 6.1753-0.05928 0.05928-1.1052-1.0521-2.3244-2.4698-6.6559-7.7399-10.97-11.523-16.077-14.099-2.8016-1.4129-3.3595-1.4865-0.82269-0.10844 2.4509 1.3314 4.1993 2.6915 6.0667 4.7197 4.0708 4.4211 6.5019 9.214 7.2293 14.253 0.33796 2.341 0.18894 2.857-0.40595 1.4058zm-1.2539-5.2637c-2.9603-7.2096-8.4495-13.096-14.506-15.556-2.7392-1.1125-4.9238-1.4389-8.4095-1.2565-3.4809 0.18211-5.7884 0.78894-8.8645 2.3313-3.2671 1.6381-4.8001 2.7077-6.9427 4.8444-2.2694 2.263-3.84 4.4286-5.2249 7.204-1.4327 2.8713-1.2798 3.1312 0.25959 0.44117 1.5651-2.735 2.2851-3.6834 4.7204-6.2177 5.2814-5.4962 13.509-8.5702 19.94-7.4503 6.9506 1.2104 14.346 7.3469 18.565 15.405 0.82256 1.5711 1.0563 1.6994 0.4629 0.25412zm-48.106-4.4535c5.0584-6.8207 10.784-10.704 18.983-12.875 2.3971-0.63481 2.9173-0.68106 7.5866-0.67446 4.7258 0.0067 5.1392 0.04588 7.2142 0.68419 5.6352 1.7335 10.367 5.1019 16.136 11.486 1.6028 1.7738 2.9543 3.2252 3.0032 3.2252 0.10903 0-2.2591-3.3482-3.1024-4.3864-1.2516-1.5408-4.4629-4.7124-5.8594-5.787-2.9147-2.2428-8.4974-5.367-9.5903-5.367-0.20769 0-0.4386-0.09868-0.51315-0.2193-0.07454-0.12061 1.3005-0.68609 3.0557-1.2566 3.5739-1.1617 7.073-2.8195 9.7359-4.6127 2.1953-1.4783 8.4327-6.9775 9.6133-8.4756 0.79238-1.0055 0.70966-0.95946-0.94792 0.52761-9.1489 8.2078-13.881 10.907-22.479 12.823-2.3903 0.53256-11.137 0.45145-14.413-0.13365-10.21-1.8235-16.688-5.7358-22.783-13.759-1.9493-2.566-2.4527-3.0676-1.5045-1.4995 1.9625 3.2459 4.3743 6.1902 6.8048 8.3071 4.505 3.9239 8.4945 5.8433 14.684 7.0645 1.4703 0.2901 2.9553 0.58351 3.2999 0.65202 0.4679 0.09301-0.12918 0.373-2.357 1.1053-5.1334 1.6873-8.3177 3.6415-12.389 7.6032-2.5581 2.4892-4.3097 4.7147-5.5395 7.0381-0.43782 0.82715-0.64902 1.2911-0.46936 1.031 0.17967-0.26011 1.0034-1.3855 1.8306-2.5008zm53.013-4.6376c1.2189-0.86587 1.534-1.902 1.4593-4.7985-0.05582-2.1644 0.0092-2.7446 0.36433-3.2516 0.23775-0.33943 0.43226-0.87916 0.43226-1.1994 0-0.55748-0.84091-1.6289-1.4429-1.8384-0.37316-0.12986-0.92292-4.4482-0.71047-5.5807 0.25538-1.3613 0.94353-2.0386 2.0712-2.0386 0.79012 0 0.95942-0.08786 0.95942-0.49787 0-0.74596-0.78671-0.75662-1.8913-0.02565-1.9043 1.2602-2.4094 2.8084-1.9768 6.0592 0.27783 2.0878 0.27451 2.1136-0.36965 2.8792-0.3575 0.42486-0.65 1.0261-0.65 1.3362 0 0.57055 0.79288 1.4617 1.5302 1.7199 0.78939 0.2764 1.0342 5.1271 0.32767 6.4933-0.36443 0.70474-0.48056 0.75849-1.3786 0.63803-0.68323-0.09164-0.98063-0.03741-0.98063 0.17882 0 0.79053 1.0893 0.75486 2.2559-0.07387zm-0.95248-8.3552c-0.40049-0.40049-0.37994-0.99906 0.0547-1.5935 0.44505-0.60864 0.54648-0.49884 0.76585 0.82898 0.18408 1.1142-0.15495 1.4301-0.82055 0.76449zm1.8505-0.75428c-0.18642-1.1658-0.06755-1.4051 0.47456-0.95518 0.47712 0.39598 0.50122 1.6602 0.03506 1.8391-0.24692 0.09475-0.39388-0.16014-0.50962-0.88393zm4.6299 8.6868 0.86379-0.89047 0.0809-3.6057c0.06151-2.7413 0.16666-3.6769 0.43864-3.9026 0.19867-0.16488 0.35774-0.73425 0.35774-1.2805 0-0.8258-0.11842-1.0515-0.73825-1.4073-0.40604-0.23303-0.80124-0.65076-0.87822-0.92829-0.27606-0.99519-0.4535-4.0913-0.28573-4.9856 0.20755-1.1064 1.1913-1.8954 1.7671-1.4174 0.42132 0.34966 0.88701 0.14461 0.88701-0.39057 0-0.62439-0.6546-0.66383-1.7492-0.10539-1.5166 0.77371-1.8371 1.7081-1.7153 4.9999 0.08412 2.2724 0.03647 2.692-0.34959 3.0781-0.8261 0.8261-0.33019 2.9535 0.68847 2.9535 0.4443 0 0.61912 1.2081 0.61912 4.2785 0 2.512-0.04491 2.7637-0.6092 3.4151-0.48885 0.56435-0.67206 0.64138-0.92742 0.38996-0.46037-0.45327-0.71926-0.38561-0.71926 0.18799 0 0.86503 1.2628 0.64848 2.2694-0.38916zm-0.95344-8.5696c-0.37305-0.12684-0.42297-1.722-0.06089-1.9458 0.33851-0.20921 0.55316 0.41231 0.45453 1.3161-0.04968 0.45531-0.19985 0.6955-0.39364 0.62961zm1.6084-0.48251c-0.09191-0.09191-0.1671-0.55248-0.1671-1.0235 0-1.1716 0.60211-0.94076 0.70443 0.27003 0.07226 0.85506-0.1392 1.1516-0.53732 0.75347zm-25.608-1.826c2.5908-0.70644 6.6078-2.6331 8.534-4.093 1.86-1.4098 5.1912-4.8499 6.7664-6.9876 1.3375-1.8151 3.9707-6.1821 5.1407-8.5253 1.0189-2.0408 0.79616-1.777-1.8355 2.1734-3.6783 5.5216-7.4895 9.8293-11.086 12.53-5.8631 4.4031-14.092 5.987-20.804 4.0043-8.7517-2.585-15.34-8.1988-19.735-16.816-1.0001-1.9608-1.8523-3.5311-1.8939-3.4895-0.20055 0.20055 1.8961 4.8771 3.0998 6.9142 3.1873 5.3938 7.8268 9.7769 13.327 12.59 4.1971 2.1469 5.6337 2.4323 11.719 2.3275 3.9371-0.06776 5.1099-0.17672 6.7676-0.62874zm26.732 21.161c-2.0029-1.6853-0.76197-4.881 1.8953-4.881 0.89641 0 1.2562 0.1428 1.8461 0.73268 0.62025 0.62025 0.73268 0.9309 0.73268 2.0245s-0.11243 1.4042-0.73268 2.0245c-0.98902 0.98902-2.6322 1.0326-3.7414 0.09927zm3.4088-1.0471c0.46514-0.62427 0.38132-1.3479-0.23168-2.0004-1.0175-1.0831-3.2206-0.55162-3.211 0.77465 0.0115 1.575 2.5176 2.4673 3.4426 1.2258zm-78.49-0.72118c-0.30901-0.80526-0.12867-1.2793 0.85047-2.2354 0.55144-0.53846 1.0026-1.0689 1.0026-1.1788 0-0.10988-0.78196-0.19978-1.7377-0.19978-1.5386 0-1.7566-0.05961-1.9028-0.5202-0.09081-0.28611-0.12661-0.54857-0.07955-0.58325 0.04705-0.03468 0.95832-0.56195 2.025-1.1717 1.0667-0.60976 1.9409-1.1881 1.9426-1.2853 0.0046-0.26615-1.6636-0.52527-3.5523-0.55175-1.5347-0.02151-1.6942-0.0738-1.8279-0.59907-0.19208-0.75484-0.12662-0.84006 1.6971-2.2091 0.8556-0.64231 1.7558-1.3943 2.0005-1.671 0.52531-0.59406 0.62566-0.53099 0.83708 0.5261 0.11341 0.56704 0.06571 0.79634-0.16564 0.79634-0.65036 0-1.158 0.73067-1.0445 1.5035 0.10072 0.68623 0.195 0.75234 1.0729 0.75234 0.90356 0 0.99382 0.07095 1.4755 1.1598 0.28217 0.63789 0.51304 1.2356 0.51304 1.3282 0 0.09264-0.36658 0.30491-0.81462 0.4717-0.44804 0.16679-1.0869 0.5141-1.4198 0.77179-0.60417 0.46777-0.60224 0.46832 1.1906 0.34004 1.6564-0.11852 1.7958-0.09062 1.7958 0.3596 0 0.26845-0.34809 0.81938-0.77353 1.2243-0.42544 0.4049-0.88876 0.94885-1.0296 1.2088-0.23108 0.42647-0.18617 0.45539 0.46021 0.29631 0.39395-0.09695 1.0473-0.33956 1.4518-0.53912 0.7961-0.3927 0.99146-0.29779 1.2683 0.61623 0.1229 0.40571 0.09256 0.5411-0.09527 0.42502-0.30248-0.18695-4.0203 0.77108-4.4026 1.1345-0.34654 0.32938-0.56535 0.27891-0.73767-0.17015zm-0.65345-9.2536c0-0.20679-0.09898-0.37598-0.21996-0.37598-0.12098 0-0.36038 0.16919-0.532 0.37598-0.2607 0.31412-0.2245 0.37598 0.21996 0.37598 0.30578 0 0.532-0.15987 0.532-0.37598zm80.635 6.9854c-0.087-0.08704 7e-3 -0.39412 0.20888-0.6824 0.49877-0.71209 0.46124-1.0815-0.12546-1.2349-0.33548-0.08773-0.54072 0.02286-0.64352 0.34674-0.14818 0.46688-0.6317 0.62942-0.94384 0.31728-0.0871-0.08706-0.0518-0.3572 0.0783-0.60031 0.29128-0.54426-0.11058-0.92965-1.1956-1.1467-0.72713-0.14543-0.75457-0.19316-0.51159-0.89016 0.14121-0.40508 0.32852-0.69935 0.41624-0.65395 1.4239 0.73697 4.1894 1.9455 4.4519 1.9455 0.45884 0 0.44613 0.06712-0.28617 1.5122-0.5795 1.1436-1.0439 1.4918-1.4491 1.0867zm2.1863-3.5954c-0.142-0.14201-1.2674-0.55024-2.5008-0.90719-1.2335-0.35694-2.2869-0.69229-2.341-0.74521-0.25181-0.24627 0.62087-0.84598 2.1655-1.4881 0.93099-0.38704 1.7842-0.78327 1.8961-0.88052 0.11188-0.09725-0.48029-0.32849-1.3159-0.51388-1.4799-0.32832-1.6806-0.52441-1.3686-1.3375 0.1294-0.33722 0.21969-0.3446 0.63728-0.0521 0.26759 0.18743 1.3838 0.55238 2.4806 0.81102 2.7237 0.64232 2.6332 1.2489-0.3725 2.4964l-1.741 0.7226 0.989 0.29826c0.54396 0.16405 1.2428 0.30694 1.553 0.31753 0.57543 0.01965 0.66575 0.29917 0.35267 1.0914-0.12079 0.30567-0.25709 0.36445-0.43425 0.1873zm-0.79571-6.1079c-2.268-0.51335-2.3185-0.54056-2.3185-1.2488 0-0.59211 0.0799-0.69066 0.43865-0.54102 0.70664 0.29476 3.3864 0.8549 4.1358 0.86447 0.69455 0.0089 0.84339 0.31818 0.53715 1.1162-0.0837 0.21806-0.22467 0.38239-0.31332 0.36517-0.0886-0.01722-1.2045-0.26746-2.4797-0.55609zm-85.65-0.22722c-0.31363-1.424-0.58149-3.334-0.48864-3.4842 0.05637-0.09121 0.32797-0.10688 0.60355-0.03481 0.32935 0.08613 0.50106 0.34193 0.50106 0.74646 0 0.60176 0.03202 0.61167 1.4413 0.44604 0.79269-0.09317 1.7402-0.31261 2.1056-0.48766 0.63254-0.30305 0.67149-0.28233 0.81462 0.43334 0.08268 0.41339 0.14997 0.82211 0.14955 0.90827-4.26e-4 0.08616-0.5362 0.16181-1.1906 0.1681-1.9304 0.01856-3.0697 0.32553-3.0697 0.82707 0 0.2419 0.13535 0.57517 0.30078 0.7406 0.23394 0.23394 0.15145 0.30078-0.3712 0.30078-0.49297 0-0.70508-0.15024-0.7962-0.56397zm25.107-2.0052c-0.2305-0.17232-0.75876-1.0183-1.1739-1.8799-0.96521-2.0032-1.3257-2.0166-1.9806-0.07345-0.97551 2.8941-3.8341 2.6135-4.7571-0.46702-0.16909-0.56436-0.4138-1.0261-0.5438-1.0261-0.13 0-0.53238 0.58415-0.89418 1.2981-0.7537 1.4874-1.0477 1.8288-1.7731 2.059-0.97725 0.31017-1.7499-0.24176-2.484-1.7743-0.38395-0.80162-0.71806-1.4883-0.74246-1.526-0.18754-0.28979-0.91849 0.43289-1.4785 1.4617-0.3708 0.68128-0.77993 1.2387-0.90919 1.2387-0.32062 0-0.2977-2.308 0.03159-3.1795 0.46831-1.2395 1.4776-2.0842 2.4902-2.0842 1.1295 0 1.8832 0.66128 2.286 2.0058 0.16512 0.55114 0.39288 1.0021 0.50611 1.0021 0.11324 0 0.44649-0.47937 0.74057-1.0653 0.84061-1.6748 1.4336-2.1932 2.5088-2.1932 1.0792 0 1.7646 0.67735 2.2351 2.2089 0.15618 0.50836 0.33312 1.078 0.39321 1.2658 0.17496 0.54696 0.73267-0.07183 1.0653-1.1819 0.49158-1.6408 1.1696-2.2928 2.3843-2.2928 1.4414 0 1.9614 0.44246 2.778 2.3639 0.6006 1.4132 0.79011 1.6465 1.3372 1.6465 0.35059 0 1.0316-0.30062 1.5133-0.66804l0.87585-0.66804-0.1742 0.73071c-0.2323 0.97442-0.8951 1.8616-1.9036 2.5479-0.92926 0.63245-1.7083 0.71622-2.331 0.25065zm-4.5327-1.1598c0.22157-0.25877 0.64379-1.0765 0.93829-1.8172 0.43089-1.0838 0.66019-1.3613 1.1744-1.4213 0.77099-0.08993 1.2555 0.42211 1.8495 1.9544 0.24046 0.62037 0.55375 1.2689 0.6962 1.4413 0.30858 0.37329 1.8567 0.41998 2.0775 0.06266 0.0852-0.13786-0.05985-0.25065-0.32234-0.25065-0.67448 0-1.1859-0.65586-1.8063-2.3164-0.58314-1.5609-1.2429-2.1954-2.2829-2.1954-0.84326 0-1.0516 0.26171-1.7985 2.2587-0.55063 1.4724-0.67509 1.6264-1.314 1.6264-0.56689 0-0.75022-0.14797-0.93166-0.75196-0.5436-1.8096-1.0362-2.6455-1.6498-2.7995-0.89284-0.22409-1.324 0.13599-2.1766 1.8176-1.0529 2.0769-1.5451 2.087-2.5106 0.05171-0.7054-1.4869-0.79705-1.5763-1.6151-1.5763-0.70652 0-0.9737 0.15788-1.4413 0.85169-0.79303 1.1768-0.71786 1.3842 0.17725 0.4891 0.86102-0.86102 1.5194-0.85365 1.8807 0.02106 0.84803 2.0535 1.2704 2.6506 1.9289 2.7266 0.68899 0.07954 1.1382-0.43986 2.2139-2.5598 0.20295-0.39996 0.57299-0.85113 0.82232-1.0026 0.55435-0.33679 1.0578 0.23485 1.4326 1.6267 0.51783 1.9231 1.7952 2.7705 2.6576 1.7632zm63.997-1.0461c-0.41185-0.41185-0.499-0.7729-0.43865-1.8172 0.0669-1.1578 0.14221-1.3127 0.67458-1.388 0.50009-0.0707 0.56577-0.0085 0.39696 0.37598-0.33497 0.76288-0.28019 1.9646 0.0896 1.9646 0.18359 0 0.63931-0.45118 1.0127-1.0026 0.84207-1.2436 1.999-1.4999 2.6398-0.58495 0.70324 1.004 0.46269 2.7155-0.38168 2.7155-0.41664 0-0.45703-0.12769-0.31713-1.0026 0.131-0.81923 0.0869-1.0026-0.24125-1.0026-0.22087 0-0.57104 0.3277-0.77815 0.72821-0.82021 1.5861-1.7352 1.9352-2.6568 1.0137zm-85.209-0.47175c0-0.72161 0.05786-0.76885 0.94175-0.76885h0.94175l-0.08959-1.1264c-0.0945-1.1882-0.17126-1.221-1.7313-0.74042-0.20575 0.06339-0.31332-0.18045-0.31332-0.71023v-0.80676l1.5666-0.0032c0.86162-0.0018 2.0178-0.05818 2.5692-0.12533 0.96209-0.11716 1.0056-0.0917 1.0766 0.62987l0.07398 0.75196-1.3016-0.08935c-1.1381-0.07813-1.2812-0.03619-1.1393 0.33381 0.08931 0.23274 0.16239 0.75232 0.16239 1.1546 0 0.68626 0.06195 0.73146 1.0026 0.73146 0.55144 0 1.0026-0.11945 1.0026-0.26545s0.11279-0.19573 0.25065-0.11053c0.13786 0.0852 0.25019 0.45844 0.24962 0.82942l-1e-3 0.6745-2.1922 0.0671c-1.2057 0.0369-2.3896 0.1291-2.6308 0.20488-0.35237 0.11068-0.43864-0.01344-0.43864-0.63106zm87.29-2.961-2.5692-0.08123-5e-4 -0.80585-5e-4 -0.80585 5.2648 0.15758v0.86116c0 0.47364-0.0282 0.83737-0.0627 0.8083-0.0345-0.02907-1.2188-0.08942-2.6318-0.13409zm-42.172-1.9666c-1.0522-0.45504-2.2868-1.5969-3.2939-3.0467l-0.73954-1.0645-0.92844 0.46617c-3.1785 1.5959-6.1242 1.7152-8.1344 0.32928-1.6988-1.1712-2.0647-1.9807-2.0598-4.5568 0.0036-1.8718 0.10232-2.3404 0.81292-3.8582 0.44487-0.95019 1.147-2.2772 1.5603-2.9489 0.41332-0.67173 0.75149-1.3611 0.75149-1.5319 0-0.17084-0.67415-1.2125-1.4981-2.3148-0.82396-1.1023-1.5007-2.1452-1.5039-2.3175-0.0032-0.17232-0.1625-0.31332-0.35402-0.31332-0.19151 0-0.61449-0.21562-0.93995-0.47915-0.61309-0.49644-0.74306-1.3631-0.79559-5.3049-0.03742-2.8084 1.6679-4.2421 5.0458-4.2421 1.0193 0 2.5306 0.17551 3.3584 0.39003 0.82784 0.21452 1.5295 0.35551 1.5592 0.31332 0.02971-0.04219 0.3569-0.92266 0.72709-1.9566 0.74356-2.0768 2.1162-4.076 3.3863-4.9319 1.0603-0.71455 2.8194-0.9804 4.0492-0.61195 1.4072 0.42162 3.4766 2.7763 4.5135 5.1356 0.46217 1.0517 0.93146 1.9121 1.0429 1.9121 0.11141 0 1.078-0.24117 2.1479-0.53593 2.5231-0.69511 4.9267-0.73338 6.0057-0.09563 1.5243 0.9009 1.8937 1.7086 2.1513 4.7039 0.21055 2.4482 0.18969 2.7704-0.20781 3.2096-0.24302 0.26853-0.58284 0.48824-0.75516 0.48824-0.17232 0-0.62212 0.53577-0.99956 1.1906-0.37744 0.65483-1.2814 2.0481-2.0087 3.0961l-1.3225 1.9055 1.4863 1.9796c1.9682 2.6216 2.5914 4.2067 2.6012 6.6167 0.0094 2.3027-0.55377 3.5426-2.1061 4.6371-1.0214 0.72018-1.1709 0.75054-3.5361 0.71841l-2.4696-0.03355-0.07606 0.90296c-0.06075 0.72118-0.22744 0.97444-0.82802 1.258-0.41358 0.19529-1.1691 0.56541-1.6789 0.8225-1.1435 0.57665-3.7065 0.61196-4.9634 0.0684zm4.3238-0.70186c0.24125-0.18314 0.43864-0.3874 0.43864-0.45392 0-0.06652-0.71302-0.11048-1.5845-0.09769-1.3735 0.02015-1.7089-0.07145-2.5185-0.68793-3.1318-2.3846-5.2279-9.5563-5.646-19.317-0.17862-4.1702-0.25826-4.7791-0.66393-5.0757-0.25352-0.18538-0.56674-0.33706-0.69602-0.33706-0.37745 0-0.03519 10.819 0.42036 13.288 1.2272 6.651 3.6352 11.524 6.2589 12.665 1.0146 0.44133 3.4184 0.45134 3.9911 0.01662zm2.1818-1.2665c0.16532-0.1992 0.26373-0.62218 0.21868-0.93995-0.15347-1.0826-2.2125-0.82197-2.2125 0.28008 0 0.94117 1.381 1.3982 1.9938 0.65987zm-2.7457-0.80868c0-0.36826 0.16675-0.85382 0.37056-1.079 0.33618-0.37148 0.16093-0.51223-1.8887-1.5168-1.7885-0.87665-2.3488-1.051-2.6891-0.83666-0.67656 0.42605-0.62967 0.8959 0.21698 2.1741 0.91783 1.3857 1.7422 1.904 3.0503 1.918 0.85408 0.0091 0.93995-0.05113 0.93995-0.65952zm-10.277-1.2634c2.0617-0.99667 2.3584-1.2075 2.1571-1.5332-0.10377-0.1679-0.85328 0.06413-2.0633 0.63876-5.2843 2.5095-8.3384-0.24688-5.9804-5.3974 0.77045-1.6829 2.2743-3.917 4.0481-6.014 1.3658-1.6146 1.4124-1.731 1.1172-2.7876-0.16155-0.57819-0.24486-0.52409-1.6669 1.0824-2.119 2.3939-4.2516 5.6758-4.8613 7.4811-1.1546 3.4191-0.28438 6.2568 2.2365 7.2925 0.94392 0.38783 3.4088 0.01281 5.0131-0.76271zm19.273-0.18354c1.9064-0.98586 2.7979-3.9631 1.9012-6.3495-0.85429-2.2735-2.6509-4.654-6.1047-8.0888-3.7309-3.7104-6.0698-5.5656-9.9828-7.9187-4.3158-2.5952-7.8618-3.8533-10.842-3.8466-1.9267 0.0043-2.6705 0.32313-3.449 1.4783-0.44591 0.66168-0.57149 1.1979-0.57149 2.4402 0 1.1591 0.09084 1.5922 0.33394 1.5922 0.24945 0 0.30663-0.33294 0.22602-1.3159-0.08819-1.0754-0.0084-1.4419 0.43621-2.0052 0.51724-0.65523 0.64944-0.6893 2.675-0.6893 2.5101 0 4.5909 0.61436 8.1767 2.4143 4.2864 2.1516 8.1769 5.033 11.927 8.8334 2.2812 2.3119 5.0938 5.8411 5.7105 7.1653 0.99716 2.1414 0.67731 4.9339-0.64625 5.6422-0.26523 0.14194-1.4417 0.25808-2.6145 0.25808-2.1244 0-3.0633 0.34731-1.7334 0.64121 0.38475 0.08503 0.81234 0.19892 0.9502 0.25308 0.5284 0.20761 2.8614-0.11853 3.6073-0.50428zm-5.3578-1.3184c0.69935-2.4057 1.1243-5.0423 1.1163-6.9266-0.01018-2.3965-0.3855-1.7246-0.75998 1.3605-0.15746 1.2973-0.5355 3.3481-0.84009 4.5573-0.30458 1.2093-0.49983 2.2526-0.43388 2.3185 0.317 0.317 0.53539 0.0053 0.9177-1.3098zm-14.014-0.06886c1.1648-0.57341 1.5964-0.91236 1.4957-1.1746-0.0778-0.20274-0.38-1.1896-0.67156-2.193-0.4847-1.6681-0.66536-1.9454-2.109-3.2366l-1.5788-1.4122-0.80609 1.2562c-1.9397 3.0228-2.5395 5.9232-1.433 6.9299 0.31018 0.2822 0.73316 0.5809 0.93995 0.66376 0.77108 0.309 2.5764-0.05243 4.1628-0.83342zm12.38 0.65248c0-0.1896-0.96985-0.8101-2.1552-1.3789-1.1854-0.56878-3.1029-1.6519-4.2611-2.4068-2.1734-1.4167-2.748-1.4221-1.2526-0.0117 0.63256 0.59659 7.1392 4.1421 7.6014 4.1421 0.03709 0 0.06743-0.15513 0.06743-0.34473zm6.514-0.85576c0.94329-0.76383 0.96671-2.4652 0.06002-4.3611-0.41612-0.87012-1.2081-2.1162-1.76-2.7691-1.1253-1.3313-1.3039-1.2261-1.3064 0.76893-0.0015 1.2627-0.61405 5.6613-0.8875 6.3739-0.14907 0.38848 0.02344 0.43588 1.5864 0.43588 1.3114 0 1.8933-0.11312 2.3075-0.44853zm-5.8448-1.9327c0.17805-0.6893 0.32591-1.9578 0.32857-2.8189l0.0048-1.5657-2.2559 1.9329c-1.2407 1.0631-2.2559 2.0196-2.2559 2.1256 0 0.3158 2.842 1.6952 3.3686 1.635 0.35698-0.04083 0.57202-0.38838 0.80979-1.3089zm-7.4943 0.67363c0.05457-0.16371-0.07937-0.29765-0.29765-0.29765-0.21828 0-0.39687 0.17859-0.39687 0.39687 0 0.44264 0.5396 0.36555 0.69452-0.09922zm4.1851-3.0318c3.6737-2.9484 6.1055-5.5374 5.2014-5.5374-0.10771 0-0.86907 0.68371-1.6919 1.5194-0.82284 0.83565-2.5347 2.3767-3.8042 3.4247s-2.2486 2.0016-2.1759 2.1192c0.17218 0.2786 0.38977 0.14422 2.4706-1.5258zm-1.6211-0.50403c2.66-2.0051 5.5161-4.8351 5.5152-5.4647-1e-3 -0.64036-1.7184-2.4157-4.4662-4.6168-2.808-2.2493-2.5195-2.2293-4.5491-0.3146l-1.7635 1.6636v1.566c0 0.86132 0.17088 2.5678 0.37973 3.7921 0.36688 2.1507 0.4214 2.2663 1.6106 3.4166 0.67698 0.65483 1.3239 1.1895 1.4375 1.1882 0.11364-0.0013 0.93978-0.55507 1.8359-1.2305zm-2.4016-2.519c-0.28696-0.11609-0.82273-0.56877-1.1906-1.006-1.1591-1.3775-0.81478-4.1275 0.63426-5.066 2.1424-1.3875 5.0653-0.16174 5.3902 2.2605 0.2331 1.7379-0.09024 2.7245-1.1228 3.4261-0.96163 0.65345-2.622 0.82584-3.711 0.3853zm3.067-1.2438c1.4317-0.87301 1.3276-3.3817-0.1725-4.1574-1.8932-0.97901-3.7514 0.09754-3.7514 2.1734 0 2.0453 2.0902 3.1021 3.9239 1.984zm-9.4616 0.58553c-0.596-0.60727-1.1729-1.1041-1.2821-1.1041-0.52209 0-0.08528 0.79244 0.97609 1.7708 1.5295 1.4099 1.7891 0.84448 0.306-0.66665zm0.27402-1.4653c0-0.19865-0.105-0.42608-0.23333-0.50539-0.298-0.18418-0.59771 0.28518-0.3933 0.61593 0.23049 0.37294 0.62663 0.30306 0.62663-0.11053zm-3.7598-1.9123c0-0.34666-3.0594-4.4941-3.3151-4.4941-0.54144 0 0.38738 1.7121 2.0057 3.6971 0.85458 1.0482 1.3094 1.325 1.3094 0.79698zm22.968-2.305c1.6193-2.2824 2.4794-3.9445 2.0399-3.9417-0.17512 1e-3 -1.1072 1.2136-2.0713 2.6945-2.0707 3.1808-2.013 3.0696-1.5892 3.0644 0.18381-0.0023 0.91307-0.82001 1.6206-1.8172zm-21.033 0.01266 1.3238-1.3074v-6.09l-1.0653-0.39348c-2.544-0.93967-4.3144-1.1573-5.5607-0.68344-0.56983 0.21665-0.64295 0.38459-0.64295 1.4767 0 1.0879 0.06972 1.2498 0.5949 1.3816 0.7044 0.17679 1.2728 1.3735 1.0948 2.3049-0.08805 0.46061 0.11953 1.0112 0.71458 1.8955 0.98851 1.4689 1.9346 2.6896 2.0996 2.7091 0.0646 0.0076 0.71316-0.57445 1.4413-1.2935zm20.95-2.5025c0.74861-1.2655 0.92746-1.8183 0.92746-2.8671 0-1.136 0.09453-1.3789 0.75196-1.9321 2.4467-2.0587-1.1875-3.3397-4.7259-1.6658-1.2884 0.60949-1.5587 0.83698-1.4147 1.1904 0.2487 0.61023 1.3723 6.0915 1.3755 6.7101 0.0015 0.27951 0.19168 0.7781 0.42274 1.108l0.42011 0.59979 0.65765-0.78776c0.36171-0.43326 1.075-1.4933 1.5851-2.3555zm-12.885-1.3777c0.05411-0.03523-0.04429-0.23596-0.21868-0.44608-0.52852-0.63682-1.3559-0.43608-2.2995 0.55791-1.0125 1.0666-1.2922 1.6794-1.0766 2.3588 0.12982 0.40904 0.36955 0.28176 1.8229-0.96782 0.92039-0.79134 1.7177-1.4676 1.7718-1.5028zm8.5618 0.46776c-0.38917-2.3035-0.98079-4.3037-1.2729-4.3037-0.32214 0-0.30923 0.18445 0.11522 1.6464 0.19738 0.67985 0.48938 1.9693 0.6489 2.8653 0.15952 0.89608 0.35386 1.7984 0.43188 2.0052 0.30733 0.8146 0.35531-0.5656 0.07694-2.2133zm-21.814 0.19857c0.55356-1.0343-0.33806-1.9914-1.509-1.6198-0.3665 0.11632-0.50131 0.37924-0.50131 0.97773 0 0.99934 0.13788 1.1528 1.0356 1.1528 0.44917 0 0.79966-0.18366 0.97472-0.51077zm20.316-1.1963c-0.35316-1.4584-0.77902-2.554-0.99273-2.554-0.33147 0-2.0593 1.2986-1.9849 1.4919 0.16306 0.42374 3.0896 2.7113 3.1737 2.4807 0.04873-0.13369-0.03948-0.77202-0.19603-1.4185zm-9.6532-1.0261c-0.30761-0.49772-0.6415-0.28659-0.6415 0.40564 0 0.62686 0.03189 0.64845 0.40564 0.2747 0.2231-0.2231 0.32924-0.52926 0.23586-0.68034zm19.485 0.45339c0.35617-0.56925 0.01494-1.6686-0.57618-1.8562-1.3022-0.4133-2.251 0.91546-1.3581 1.902 0.52646 0.58173 1.5569 0.55732 1.9343-0.04583zm-11.428-2.6344c3.4244-2.1496 5.1163-2.8866 6.983-3.0416 2.356-0.19574 3.6185 0.65032 3.6185 2.4249 0 0.51595 0.12353 0.76844 0.37598 0.76844 0.50975 0 0.49966-1.5403-0.01662-2.5387-0.47529-0.91912-2.089-1.7107-3.4925-1.7132-1.4524-0.0026-3.8795 0.62222-5.8258 1.4997-2.1248 0.958-5.5789 3.0249-5.5789 3.3384 0 0.26237 0.75944 0.89731 1.0881 0.90974 0.11596 0.0044 1.3977-0.73706 2.8483-1.6477zm-2.6751-1.2895c1.0886-0.65483 1.9834-1.348 1.9882-1.5403 0.0049-0.19232-0.38822-1.1753-0.87358-2.1844-1.7268-3.5902-4.1933-4.1761-5.6402-1.3398-0.60173 1.1795-1.3685 4.3335-1.0781 4.435 0.11361 0.0397 0.88332 0.46205 1.7105 0.93855 0.82715 0.4765 1.5962 0.86978 1.7089 0.87396 0.11273 0.0042 1.0957-0.52818 2.1843-1.183zm-6.5223-1.5039c0.0035-0.87919 0.56264-2.7261 1.2043-3.9775 1.1134-2.1716 2.6985-2.811 4.6392-1.8715 1.3137 0.63595 2.1883 1.804 3.0816 4.1156 0.61968 1.6035 0.90252 1.9396 1.2114 1.4398 0.19733-0.3193-1.3819-3.6723-2.3447-4.9784-1.1094-1.5048-2.1174-2.0575-3.7545-2.0587-2.1148-0.0015-3.1987 0.86192-4.6313 3.689-0.71489 1.4108-1.1953 3.2039-0.99696 3.7209 0.11977 0.31211 0.56523 0.51511 1.2749 0.58096 0.18118 0.01682 0.31446-0.26163 0.31603-0.66022zm-36.257 29.754c-0.29479-0.11165-1.4503-0.2395-2.5678-0.2841l-2.0318-0.0811 2e-3 -0.87728c0.0034-1.513 0.23706-2.0052 0.95179-2.0052 0.50363 0 0.58069 0.06684 0.34674 0.30078-0.16543 0.16543-0.30078 0.56021-0.30078 0.87728 0 0.44783 0.13986 0.5765 0.62663 0.5765 0.50131 0 0.62663-0.12533 0.62663-0.62663 0-0.45688 0.1341-0.62663 0.49504-0.62663 0.41636 0 0.47114 0.11951 0.34465 0.75196-0.14224 0.71118-0.10655 0.75196 0.65814 0.75196 0.80374 0 0.808-0.0066 0.71934-1.1214-0.06729-0.84602 0.0035-1.1413 0.28808-1.2026 0.41039-0.08837-3.379-1.4358-4.0379-1.4358-0.30358 0-0.37146-0.17009-0.27511-0.6893 0.15976-0.86082 0.36318-0.99192 1.8582-1.1975 0.66127-0.09095 1.2608-0.26006 1.3324-0.37581 0.07154-0.11575-0.4939-0.58366-1.2565-1.0398-0.86818-0.51928-1.3384-0.9549-1.2577-1.1652 0.07087-0.18469 0.12886-0.47156 0.12886-0.63748 0-0.22198 0.67038-0.27475 2.5375-0.19976 1.3957 0.05606 2.4954 0.0037 2.4439-0.11646-0.18127-0.42256-3.1503-3.1009-3.4375-3.1009-0.31724 0-0.37777-0.48395-0.13851-1.1074 0.1185-0.3088 0.54808-0.39889 1.9426-0.4074 0.98473-6e-3 2.2698-0.10365 2.8557-0.217 1.1715-0.22664 1.1898-0.20418 0.78348 0.96146-0.20109 0.57686-0.35901 0.73113-0.55144 0.53871-0.1483-0.1483-0.57291-0.26964-0.94358-0.26964-0.57938 0-0.69848 0.13085-0.84891 0.9327-0.09958 0.5308-0.07291 0.96672 0.06189 1.0116 0.13027 0.04342 0.44846 0.23368 0.70709 0.4228 0.41685 0.30481 0.43511 0.44096 0.16087 1.1994-0.17015 0.47054-0.30936 1.0319-0.30936 1.2475 0 0.32793-0.27646 0.37361-1.6919 0.27954l-1.6919-0.11244 1.4413 0.91341c0.79269 0.50238 1.4413 1.0692 1.4413 1.2596 0 0.19866-0.45394 0.45889-1.0653 0.6107-2.797 0.69458-2.7419 0.63024-0.99179 1.1585l1.5774 0.47615-0.14219 2.3664c-0.07821 1.3015-0.16767 2.3881-0.19881 2.4146-0.03114 0.02656-0.29781-0.04306-0.59259-0.15472zm0.48328-13.524c0.1059-0.40495 0.0077-0.5013-0.51092-0.5013-0.62614 0-0.6308 0.01241-0.18834 0.5013 0.24952 0.27572 0.47944 0.50131 0.51092 0.50131 0.03148 0 0.11624-0.22559 0.18834-0.50131zm84.234 12.787 0.14963-0.74817-1.9355 0.15586c-1.0646 0.08572-2.0765 0.26702-2.2488 0.40288-0.23846 0.188-0.31332 0.03007-0.31332-0.66095v-0.90797h2.1306c1.1718 0 2.1306-0.10545 2.1306-0.23434 0-0.12888-0.11-0.52366-0.24445-0.87728-0.20969-0.55152-0.17615-0.64295 0.23586-0.64295 0.66982 0 0.77854 0.26486 0.98169 2.3917 0.17767 1.8601 0.17554 1.8694-0.4286 1.8694-0.54026 0-0.59068-0.08244-0.45753-0.74817zm-4.447-2.6928c-0.41928-0.41928-0.0777-1.5683 0.75564-2.5419l0.90737-1.0601-0.71938 0.17221c-0.39565 0.09472-0.85903 0.28216-1.0297 0.41654-0.34711 0.27326-0.44278 0.08283-0.66114-1.3161-0.0753-0.48251-0.21088-1.1311-0.30125-1.4413-0.11595-0.39795-0.0591-0.56397 0.19299-0.56397 0.79796 0 1.2236-0.59669 1.0489-1.4704-0.16225-0.81124-0.2032-0.83693-1.1352-0.71192-0.86669 0.11625-0.98282 0.06602-1.1211-0.48493-0.08484-0.33804-0.10894-0.65992-0.05356-0.71531 0.05538-0.05538 0.94024 0.01564 1.9664 0.15784 1.0261 0.1422 2.2318 0.21579 2.6794 0.16354 0.82708-0.09656 1.0854 0.14765 1.0725 1.0138-3e-3 0.22998-0.72277 0.95796-1.5985 1.6177-1.6916 1.2744-2.5586 2.1149-2.373 2.3004 0.0622 0.06222 1.1237-0.0938 2.3588-0.3467 1.2351-0.25291 2.3145-0.42038 2.3986-0.37216 0.0841 0.04822 0.22559 0.61742 0.31434 1.2649 0.26718 1.9493-0.92848 3.0267-2.141 1.9294-0.25296-0.22892-0.49987-0.36991-0.54871-0.31332-0.0488 0.0566-0.48743 0.63175-0.97467 1.2781-0.48725 0.64637-0.95417 1.1069-1.0376 1.0235zm3.8119-3.3893c0.0649-0.34074-0.0883-0.43864-0.68674-0.43864-0.83465 0-0.84628 0.01176-0.6131 0.61938 0.20497 0.53416 1.1897 0.39724 1.2998-0.18074zm-2.2069-5.0524c-0.60522-0.27074-0.82276-0.11787-0.61239 0.43035 0.12597 0.32829 0.24026 0.34597 0.63708 0.09854 0.4748-0.29605 0.47436-0.30564-0.0247-0.52888zm-5.3596-4.621c-0.24448-0.46085-0.408-0.85906-0.36337-0.8849 0.04463-0.02584 0.79174-0.37717 1.6603-0.78074 1.9677-0.91432 2.2656-1.2351 1.7134-1.8453-0.44173-0.48811-0.31742-0.79217 0.32105-0.78532 0.4255 0.0046 2.3651 3.333 2.0979 3.6002-0.29993 0.29993-1.0744 0.15158-1.0744-0.2058 0-0.19865-0.12641-0.43931-0.28091-0.5348-0.37029-0.22885-3.4406 1.4146-3.5468 1.8986-0.05235 0.23837-0.24527 0.0693-0.5271-0.46194zm-72.345 0.22805c0-0.12864-0.76136-0.6382-1.6919-1.1324-1.5387-0.81712-1.7195-0.86082-1.9962-0.48253-0.16735 0.22878-0.3432 0.53272-0.39077 0.67544-0.1247 0.3741-0.68354-0.0366-0.68354-0.50234 0-0.21605 0.56536-1.4385 1.2564-2.7165l1.2564-2.3237 2.0421 1.2274c1.1232 0.67505 2.1369 1.2274 2.2528 1.2274 0.32453 0 0.23534 0.57291-0.1733 1.1132-0.32761 0.43314-0.4024 0.44412-0.68132 0.10007-0.30777-0.37964-3.4826-2.2159-3.8312-2.2159-0.09787 0-0.03357 0.17397 0.1429 0.3866 0.24302 0.29283 0.25047 0.45698 0.03069 0.67676-0.15959 0.15959-0.29016 0.42108-0.29016 0.58108 0 0.33531 2.7527 1.8647 3.3562 1.8647 0.4981 0 0.49996 0.08912 0.02113 1.0151-0.3855 0.7455-0.62018 0.93683-0.62018 0.50562zm70.329-3.8142-0.86935-1.2909 1.4267-0.85844c0.78466-0.47214 1.7871-1.133 2.2276-1.4686l0.80097-0.61018 0.78714 1.1441c0.76665 1.1143 0.84122 1.8685 0.18475 1.8685-0.17842 0-0.43575-0.24649-0.57183-0.54775-0.29175-0.64587-0.61406-0.78249-1.1086-0.46989-0.29691 0.18768-0.30297 0.29603-0.03462 0.61936 0.34078 0.41062 0.20743 1.1502-0.20739 1.1502-0.1329 0-0.31323-0.22559-0.40074-0.50131-0.19606-0.61774-0.41461-0.62802-1.1248-0.05291l-0.55374 0.44839 0.74365 0.79608c0.77636 0.8311 0.7813 1.0643 0.02253 1.0643-0.26557 0-0.81242-0.5339-1.3222-1.2909zm-70.129-2.1556c-1.1852-1.2659-1.1969-2.6942-0.03334-4.077 0.51936-0.61723 0.70955-0.69903 1.1176-0.48067 0.46968 0.25136 0.45755 0.29502-0.27113 0.97571-0.478 0.44652-0.76281 0.96003-0.76281 1.3754 0 0.84868 1.0372 1.8933 1.8799 1.8933 0.82816 0 1.8436-1.009 2.049-2.0361 0.14751-0.73754 0.18374-0.76196 0.49632-0.33448 0.54241 0.74179 0.39902 1.2818-0.6266 2.36-0.84548 0.88879-1.1013 1.0132-2.0837 1.0132-0.8981 0-1.2476-0.13649-1.7652-0.6893zm67.512-1.6531c-0.61952-0.65945-0.67659-0.91607-0.20371-0.91607 0.18371 0 0.70662-0.46364 1.162-1.0303 0.7832-0.97458 0.79563-1.0204 0.22994-0.84726-0.32892 0.10068-0.9784 0.33874-1.4433 0.52901-1.7315 0.7087-1.8752 0.42338-0.89872-1.7846 0.35049-0.79252 0.59963-1.4786 0.55366-1.5245-0.04597-0.04598-0.65466 0.34863-1.3526 0.8769l-1.269 0.96049-1.1941-1.0964c-0.65677-0.60302-1.2784-1.0964-1.3814-1.0964-0.10299 0-0.48445-0.23377-0.84768-0.5195-0.86394-0.67957-0.89244-1.9224-0.06669-2.9077 0.32656-0.38969 0.8792-1.1306 1.2281-1.6464l0.63435-0.93784 0.58914 0.48295c0.52817 0.43297 0.54824 0.51705 0.19394 0.81252-0.76399 0.63712-1.986 2.4121-1.986 2.8847 0 0.5965 0.46478 1.0793 1.039 1.0793 0.24057 0 0.96364-0.64856 1.6068-1.4413s1.2415-1.4656 1.3297-1.4954c0.08815-0.0298 0.36677 0.10209 0.61915 0.29308 0.44333 0.3355 0.44233 0.3638-0.02952 0.83565-0.79042 0.79042-2.5599 3.2092-2.5599 3.4992 0 0.47584 0.84148 0.06536 2.677-1.3059 1.6881-1.2611 1.8218-1.3164 2.1922-0.90711 0.52888 0.58441 0.50286 0.82586-0.249 2.3096-0.35392 0.69842-0.60098 1.3124-0.54903 1.3643 0.05195 0.05195 0.68111-0.12845 1.3981-0.4009 1.6103-0.61186 1.8548-0.61518 2.2202-0.03017 0.25042 0.40098 0.08575 0.68579-1.193 2.0634-0.81592 0.87899-1.4835 1.7345-1.4835 1.9012 0 0.57011-0.4282 0.56809-0.96618-0.0046zm-63.577-1.959c-0.94063-0.51729-1.3672-1.2971-1.373-2.5096-0.0047-0.97776 0.12188-1.2988 0.76566-1.9426 0.64785-0.64785 0.96451-0.77124 1.9793-0.77124 1.069 0 1.2975 0.10193 1.9859 0.88601 1.1625 1.324 0.92577 3.2177-0.52968 4.2372-0.64365 0.45083-2.097 0.50236-2.8282 0.10027zm2.8737-1.4472c0.42908-0.80175 0.29665-1.5099-0.40376-2.159-0.81689-0.75707-1.9132-0.79545-2.617-0.09164-0.58182 0.58182-0.49828 1.516 0.20542 2.2968 0.5723 0.63505 2.4674 0.60396 2.8153-0.04618zm2.2647-1.7764c0-0.3541-2.4991-3.5038-2.7801-3.5038-0.50548 0-0.17114-0.49959 0.82422-1.2316 0.5786-0.4255 1.2943-0.77364 1.5904-0.77364 0.77169 0 1.4557 0.84964 1.3077 1.6242-0.13269 0.69413-0.06783 0.72836 2.0485 1.0811l1.1108 0.18516-0.71422 0.46797c-0.62869 0.41193-0.86375 0.43345-1.9629 0.17973-0.6868-0.15853-1.2869-0.25002-1.3337-0.20331-0.04671 0.04671 0.25259 0.43015 0.66511 0.85208l0.75004 0.76716-0.61876 0.40543c-0.7209 0.47236-0.88705 0.50034-0.88705 0.14939zm-0.16001-3.3784c0.19501-0.5082-0.06797-1.1279-0.47865-1.1279-0.50901 0-0.66845 0.43365-0.36673 0.99743 0.32138 0.60049 0.6458 0.65058 0.84537 0.13051zm49.974 0.30222c-0.57418-0.47167-0.68319-0.77377-0.74216-2.0568l-0.06913-1.5039-0.58669 1.1914c-0.36106 0.73317-0.69845 1.1279-0.87728 1.0262-0.87797-0.49882-0.86522-0.62087 0.23943-2.2919 0.61091-0.92414 1.1768-1.934 1.2575-2.2442 0.08071-0.31018 0.23853-0.56397 0.35073-0.56397 0.49892 0 2.3812 1.7051 2.4563 2.2251 0.09823 0.68026-0.59749 1.5347-1.2496 1.5347-0.53906 0-0.59718 0.63268-0.19214 2.0914 0.14714 0.5299 0.2267 1.0043 0.1768 1.0542-0.0499 0.0499-0.3936-0.15806-0.76376-0.46215zm0.81795-4.1725c0-0.70271-0.52141-0.91984-0.91531-0.38116-0.48733 0.66646-0.42038 0.86767 0.28868 0.86767 0.45318 0 0.62663-0.13467 0.62663-0.48651zm-47.425 3.557c-0.20906-0.24125-0.8025-1.1081-1.3188-1.9264-0.8824-1.3986-0.91166-1.5075-0.48812-1.8172 0.2478-0.18119 0.51358-0.32822 0.59062-0.32673 0.07704 0.0015 0.53486 0.68913 1.0174 1.5281 0.48251 0.83895 1.0465 1.614 1.2533 1.7222 0.59314 0.31059 1.5039-0.15663 1.5039-0.7715 0-0.58609-0.77594-2.0122-1.5899-2.922-0.49916-0.55796-0.49947-0.57086-0.02211-0.93198 0.58473-0.44235 1.1107-0.4874 1.1107-0.09514 0 0.38957 2.0715 3.7235 2.3135 3.7235 0.10614 0 0.19299-0.19775 0.19299-0.43944 0-0.42787-0.77259-3.2595-1.1272-4.1315-0.1329-0.32676-0.0037-0.50104 0.51867-0.69965 0.64094-0.24369 0.7908-0.17078 1.9054 0.92704l1.2097 1.1915v-1.781c0-1.3928 0.08642-1.8142 0.39648-1.9331 0.60165-0.23088 1.1074-0.18238 1.1074 0.10617 0 0.36504 2.0456 3.7521 2.266 3.7521 0.10013 0 0.24361-0.2354 0.31885-0.52311 0.08845-0.33825 0.29808-0.49253 0.5932-0.43659 0.60162 0.11404 0.75733 1.5045 0.21856 1.9517-0.3305 0.27429-0.38878 0.24291-0.38878-0.20934 0-0.63669-0.05819-0.6444-1.0384-0.13754-0.41954 0.21695-0.79144 0.35795-0.82644 0.31332-0.035-0.04463-0.3911-0.69367-0.79133-1.4423l-0.7277-1.3612-0.07364 1.7998c-0.04253 1.0394-0.18449 1.7998-0.336 1.7998-0.1443 0-0.87252-0.52127-1.6183-1.1584s-1.3559-1.1084-1.3559-1.0473c0 0.28794 0.84887 2.6148 1.0462 2.8676 0.14953 0.19165-0.0069 0.37661-0.47416 0.56064-1.0166 0.40042-2.3067 1.1779-2.9369 1.7699-0.67332 0.63256-1.9339 0.67268-2.4492 0.07797zm40.235-2.8074c-1.014-0.61829-1.3319-1.2202-1.3319-2.5218 0-1.4614 1.0423-2.5037 2.5037-2.5037 1.9185 0 2.9961 0.97523 3.0051 2.7196 0.0047 0.90966-0.13564 1.2316-0.84664 1.9426-1.0039 1.0039-2.086 1.122-3.3302 0.36339zm2.539-1.0709c0.59581-0.85064 0.50742-2.3402-0.16689-2.8125-0.74977-0.52516-1.3472-0.49111-1.9494 0.11111-0.6212 0.6212-0.66863 2.1568-0.08648 2.8001 0.57942 0.64026 1.7211 0.5891 2.2028-0.0987zm-6.2521-0.42766c-1.7744-0.42823-2.6319-1.3442-2.6319-2.8116 0-1.9349 1.9254-3.1243 4.0346-2.4924 1.0203 0.30568 1.1122 0.42584 0.75582 0.9882-0.16503 0.26044-0.33492 0.27499-0.73164 0.06266-0.78232-0.41869-1.926-0.3317-2.3907 0.18185-0.56061 0.61947-0.53596 2.1115 0.04355 2.6359 0.28882 0.26138 0.89149 0.41483 1.6292 0.41483 0.64398 0 1.1709 0.09531 1.1709 0.2118 0 0.22335-0.84173 1.0597-1.0223 1.0158-0.05807-0.01411-0.44397-0.10732-0.85755-0.20713zm-4.5744-1.1974c-0.60278-0.1161-0.70326-0.32974-0.33532-0.71292 0.12576-0.13097 0.37092-1.1405 0.5448-2.2433 0.17388-1.1029 0.39306-2.0961 0.48706-2.2071 0.094-0.11103 0.46204-0.1288 0.81786-0.03949 0.55199 0.13854 0.61244 0.24176 0.4118 0.70317-0.37259 0.85683-0.95428 3.9669-0.81152 4.3389 0.12981 0.33829-0.05475 0.36491-1.1147 0.16076zm-17.44-1.9219c-0.08592-1.0165-0.26837-2.1431-0.40544-2.5036-0.21863-0.57504-0.17886-0.67315 0.32404-0.79937 0.31529-0.07913 1.1276-0.10865 1.8052-0.0656 1.0853 0.06896 1.2604 0.15988 1.4718 0.76394 0.1998 0.57116 0.14098 0.79091-0.35225 1.3159-0.32566 0.34665-0.85161 0.63027-1.1688 0.63027-0.51472 0-0.56032 0.08751-0.42447 0.81462 0.08371 0.44804 0.25008 0.92178 0.36971 1.0527 0.40724 0.44583 0.2188 0.63916-0.623 0.63916h-0.84051zm1.9219-1.4539c0.31365-0.49724 0.04699-1.2098-0.45276-1.2098-0.27328 0-0.38384 0.25872-0.38384 0.89817 0 0.92941 0.36187 1.0642 0.8366 0.31158zm1.9206 0.56532c0-1.2295-0.06846-2.4138-0.15214-2.6319-0.11862-0.30911 0.01947-0.39648 0.62663-0.39648 0.73308 0 0.77878 0.05526 0.77878 0.94175v0.94175l2.1804-0.17342-0.17927-0.98037-0.17928-0.98037h1.6639c1.6445 0 1.6694 0.01022 2.1364 0.87728 0.25985 0.48251 0.54316 0.87728 0.62959 0.87728 0.26279 0 1.0153-1.4222 0.84348-1.5941-0.08827-0.08827 0.19668-0.1605 0.63324-0.1605 0.43655 0 0.79374 0.05813 0.79374 0.12918 0 0.07105-0.40663 0.74161-0.90362 1.4901-0.77441 1.1663-0.89051 1.5258-0.81191 2.5141 0.09136 1.1488 0.08884 1.1528-0.66296 1.0791-0.71992-0.07066-0.76077-0.13756-0.88713-1.4527-0.08678-0.90318-0.36878-1.746-0.81776-2.4439-1.051-1.6338-1.2806-1.4082-1.0901 1.071 0.09031 1.1749 0.19155 2.2747 0.22497 2.4439 0.03482 0.17625-0.26035 0.33933-0.6912 0.38188-0.74131 0.07321-0.75196 0.05725-0.75196-1.1279v-1.2022l-1.0653-0.07708c-0.98894-0.07155-1.0653-0.03231-1.0653 0.54765 0 0.3436 0.10636 0.90446 0.23634 1.2464 0.25262 0.66444-0.02356 0.91493-1.0088 0.91493-0.43803 0-0.4808-0.19887-0.4808-2.2354zm9.4263 1.8389c-0.36587-0.95344-0.19636-1.1204 0.70236-0.69184 0.89602 0.42728 1.6587 0.32525 1.6425-0.21974-0.0052-0.17665-0.46327-0.63518-1.0179-1.019-0.86868-0.60112-0.99756-0.80834-0.93044-1.4961 0.10254-1.0506 1.0063-1.5808 2.2856-1.3408 0.68031 0.12763 0.92545 0.29948 0.92545 0.64877 0 0.55502-0.39601 0.87789-0.6241 0.50883-0.23298-0.37697-1.3811-0.31106-1.3811 0.07929 0 0.18372 0.45118 0.6966 1.0026 1.1397 1.1101 0.89209 1.294 1.6939 0.54423 2.3725-0.62443 0.5651-2.9343 0.57856-3.1493 0.01835zm-29.71 87.31c-0.18018-0.47088-0.10644-0.61201 0.44672-0.85502 0.59687-0.26221 0.69604-0.22795 1.0008 0.34574 0.28398 0.53452 0.28398 0.67122 0 0.85118-0.60337 0.38237-1.2267 0.23513-1.4475-0.3419zm52.76-0.0199c-0.37757-0.27608-0.40573-0.42637-0.16442-0.87729 0.52358-0.97831 1.7009-0.52 1.4307 0.55691-0.18167 0.72382-0.57753 0.82398-1.2662 0.32038zm-66.766-4.7545c-0.91287-0.94185-0.98427-1.1755-0.36249-1.1863 0.65356-0.0113 4.5744-3.824 4.5744-4.4482 0-0.28531-0.29201-0.86578-0.64891-1.2899-1.0797-1.2831-1.7818-1.0884-4.1162 1.142-1.1014 1.0522-2.0025 2.0674-2.0025 2.2559 0 0.54689-0.34336 0.40422-1.2308-0.51142l-0.82788-0.85415 0.59072-0.31422c1.0958-0.58289 5.2398-4.5804 5.3968-5.206l0.1557-0.62036 0.70818 0.85393c0.3895 0.46966 0.71121 0.99492 0.71492 1.1672 0.0037 0.17232 0.13709 0.31332 0.2964 0.31332 0.49587 0 1.9484 1.2438 2.3425 2.0057 0.20664 0.39961 0.37667 1.0987 0.37785 1.5536 0.0018 0.72058-0.30472 1.1175-2.3812 3.0829-1.3108 1.2407-2.3833 2.3969-2.3833 2.5692 1.7e-5 0.5136-0.35586 0.36191-1.2041-0.51323zm77.91-0.0442c-0.55416-0.58988-0.55934-0.62763-0.10636-0.77469 1.6325-0.53001 2.4615-1.6151 1.7655-2.311-0.3211-0.3211-0.56001-0.30068-1.9417 0.16592-2.0358 0.68749-2.7593 0.67077-3.5721-0.0826-1.2761-1.1827-0.75459-3.3939 1.1547-4.8957 0.7756-0.61008 1.3883-0.63935 2.1542-0.10291l0.57447 0.40238-1.2507 0.57947c-1.281 0.5935-1.7919 1.1946-1.7919 2.1084 0 0.42108 0.15812 0.51778 0.84668 0.51778 0.46567 0 1.2516-0.16919 1.7465-0.37598 2.2304-0.93192 3.6731-0.1457 3.6731 2.0017 0 1.1164-0.094 1.3075-1.1323 2.3024-0.62279 0.59673-1.2235 1.085-1.3349 1.085-0.1114 0-0.4647-0.27904-0.7851-0.62009zm4.8572-4.3631c-0.27318-0.5691-4.7559-4.3434-5.5575-4.6793l-0.56882-0.23833 0.77506-0.93995c0.80972-0.98198 1.2399-1.1854 1.2399-0.58646 0 0.42001 5.0396 4.7102 5.8505 4.9805 0.26819 0.0894-1.0005 1.935-1.3302 1.935-0.10043 0-0.28443-0.21214-0.40889-0.47141zm-89.061-2.6914c-0.34306-0.43614-0.49766-0.8939-0.40955-1.2127 0.07784-0.28168 0.52022-1.7811 0.98308-3.332s0.79523-2.8198 0.73861-2.8198c-0.4073 0-3.8401 2.6023-3.8401 2.911 0 0.58109-0.46151 0.317-1.0385-0.59424l-0.51146-0.80779 0.59419-0.22591c0.32681-0.12425 1.9939-1.1975 3.7046-2.385 4.0215-2.7916 4.1399-2.6761 2.6146 2.5515-0.49659 1.702-0.84262 3.1548-0.76895 3.2285 0.18518 0.18518 3.3469-2.0985 3.799-2.7441 0.2023-0.28882 0.40694-0.47554 0.45476-0.41493 0.40456 0.51284 1.1779 1.7214 1.1779 1.8408 0 0.08211-0.23349 0.1493-0.51888 0.1493-0.59148 0-5.1007 3.0127-5.8998 3.9417l-0.52837 0.6143zm91.447-0.81329-0.57671-0.46699 0.5294-0.28332c0.9113-0.48771 1.3204-1.0481 1.3204-1.8084 0-0.97804-0.71122-0.97269-2.3812 0.0179-1.7277 1.0248-2.872 1.0093-3.7643-0.05112-0.56893-0.67614-0.65646-0.9742-0.55374-1.8856 0.12544-1.1129 1.1839-2.924 1.9478-3.3329 0.26635-0.14254 0.71458-0.11661 1.2088 0.06993 0.89049 0.33613 0.99417 0.58787 0.32904 0.79897-0.87555 0.27789-2.0501 1.6673-2.0501 2.4252 0 0.64852 0.0836 0.72222 0.8191 0.72222 0.46069 0 1.2226-0.27419 1.7413-0.62663 1.31-0.89017 2.973-0.87493 3.6878 0.0338 0.87124 1.1076 0.59191 2.8405-0.67128 4.1646-0.77984 0.81745-0.84075 0.82599-1.5863 0.2223zm4.3561-5.1493c-0.11025-0.19391-1.816-1.1944-3.7906-2.2232l-3.5902-1.8707 0.66024-0.51934c0.36313-0.28564 1.3019-0.65164 2.0863-0.81334 0.78431-0.1617 2.3284-0.48903 3.4312-0.7274l2.0052-0.43339-2.0623-1.0418c-1.1343-0.57298-2.3491-1.0418-2.6996-1.0418h-0.63729l0.51149-1.0026c0.561-1.0996 0.68719-1.174 1.1003-0.6488 0.37188 0.47281 5.9719 3.406 6.5027 3.406 0.51083 0 0.51532 0.0872 0.0507 0.98569-0.20197 0.39058-0.62495 0.77086-0.93994 0.84507-0.315 0.07421-1.8134 0.38103-3.3299 0.68183-1.5164 0.3008-2.7971 0.58455-2.8458 0.63056-0.16981 0.16033 3.9664 2.1206 4.4746 2.1206h0.51196l-0.51149 1.0026c-0.56625 1.1099-0.6376 1.1599-0.92749 0.65005zm-101.29-2.7873c-0.68256-1.4049-0.68448-1.3719 0.07956-1.3719 0.85513 0 6.004-2.6082 6.4743-3.2796 0.36847-0.52606 0.39111-0.50965 1.0265 0.7442l0.6497 1.2821h-0.54545c-0.63448 0-6.2225 2.8618-6.6342 3.3976-0.39708 0.51675-0.43896 0.48596-1.0504-0.77249zm-1.263-2.261c-0.15999-0.35114-0.29496-0.77411-0.29993-0.93995-0.0049755-0.16584 1.0384-1.2856 2.3185-2.4884l2.3276-2.1869-2.8074-0.0063c-2.4163-0.0055-2.8419 0.05476-3.0551 0.4323-0.21384 0.37866-0.30123 0.3112-0.63909-0.49326-0.21526-0.51254-0.39137-1.0483-0.39137-1.1906 0-0.2806 7.7065-0.36971 8.7102-0.10072 0.41175 0.11034 0.56397 0.33745 0.56397 0.84145 0 0.53471-0.43764 1.1072-1.9416 2.54-1.0679 1.0173-2.4781 2.3854-3.134 3.0402-0.65582 0.65483-1.2303 1.1906-1.2767 1.1906-0.04636 0-0.21519-0.28729-0.37518-0.63842zm106.26-4.6449-0.60401-0.24449 0.519-0.48352c0.47608-0.44354 0.99726-1.9102 0.7623-2.1451-0.0549-0.05486-0.4786-0.13139-0.94164-0.17007-0.76063-0.06353-0.86286 0.0083-1.0592 0.7443-0.23808 0.89244-0.34802 0.93767-1.3517 0.55607-0.59077-0.22461-0.62914-0.29865-0.29228-0.56397 0.21328-0.16798 0.46313-0.55911 0.55524-0.86919 0.13472-0.45356 0.0395-0.61242-0.48705-0.81262-1.6165-0.61459-1.8063-0.59056-2.1051 0.26653-0.15505 0.44478-0.28191 1.3071-0.28191 1.9163v1.1076l-0.75196-0.53544c-0.41357-0.29449-0.75195-0.67324-0.75195-0.84166 0-0.16842 0.3414-1.3984 0.75869-2.7334 0.74096-2.3705 0.76963-2.4162 1.2272-1.9587 0.51944 0.51944 5.8229 2.2752 6.8724 2.2752 0.3666 0 0.66654 0.0897 0.66654 0.19933 0 0.10963-0.32035 1.153-0.7119 2.3185-0.7339 2.1847-0.95928 2.4047-2.0226 1.9743zm-109.66-5.1814c-0.64691-2.8627-0.64467-2.8862 0.29431-3.0852l0.81462-0.17262v1.2295c0 1.3505 0.29125 1.6344 1.3933 1.3578 0.59811-0.15012 0.62946-0.23215 0.47707-1.2484-0.16024-1.0685-0.14941-1.0897 0.61527-1.2019 0.66673-0.09785 0.77239-0.03952 0.73665 0.40672-0.090699 1.1324 0.032249 1.3982 0.64655 1.3982 1.0375 0 1.8962-0.44893 1.8962-0.99133 0-0.67989-0.75174-2.5178-1.0298-2.5178-0.12289 0-0.22344-0.11279-0.22344-0.25065 0-0.30328 1.2465-0.32674 1.711-0.03221 0.18284 0.11592 0.54652 1.1575 0.80819 2.3147 0.59721 2.6411 0.61119 3.0819 0.09142 2.8824-0.46028-0.17663-6.8729 1.253-7.2323 1.6123-0.44419 0.44419-0.5579 0.25053-0.99903-1.7015zm108.68-2.2145c-2.0921-1.3214-3.8038-2.5446-3.8038-2.7183 0-0.76786 1.1348-1.2593 4.7051-2.0378 2.0305-0.44274 3.9066-0.89301 4.1691-1.0006 0.44033-0.18045 0.46374-0.11052 0.30184 0.90191-0.0965 0.60364-0.19853 1.115-0.22668 1.1363-0.0282 0.02131-1.5133 0.30753-3.3003 0.63605l-3.2491 0.59731 2.4403 1.4563c1.7904 1.0684 2.582 1.4113 2.9724 1.2874 0.46381-0.14721 0.51176-0.09283 0.37352 0.42362-0.0872 0.32588-0.16014 0.84629-0.16202 1.1565-2e-3 0.31018-0.0964 0.56397-0.21008 0.56397-0.11366 0-1.9184-1.0811-4.0104-2.4025zm-109.92-4.032c-0.087219-0.52787-0.15982-1.6135-0.16134-2.4124-0.00231-1.2102 0.099907-1.5553 0.61248-2.0679 0.86946-0.86947 1.978-0.81778 2.9325 0.13672 0.41358 0.41358 0.78688 0.75196 0.82956 0.75196 0.14938 0 2.8917-3.4415 2.8917-3.6289 0-0.10412-0.28198-0.1354-0.62663-0.06952-0.34465 0.06589-0.62663 0.09281-0.62663 0.05983s0.17516-0.47916 0.38923-0.99152c0.21408-0.51236 0.35507-1.4003 0.31332-1.9732-0.06726-0.92276-0.15319-1.0505-0.75314-1.1197-0.59484-0.06864-0.75829 0.08382-1.3436 1.2533-0.94614 1.8904-1.5363 2.4593-2.5511 2.4593-0.46754 0-1.0778-0.12187-1.3561-0.27083-0.94412-0.50528-1.4773-2.6119-1.0576-4.1783 0.11897-0.44395 0.33161-0.56397 0.99919-0.56397 0.87235 0 1.0477 0.20141 0.58132 0.66777-0.1467 0.1467-0.2313 0.76142-0.18799 1.3661 0.065354 0.91245 0.17253 1.1127 0.63046 1.1778 0.44613 0.06347 0.67929-0.17638 1.2183-1.2533 1.0117-2.0215 1.5101-2.4597 2.7974-2.4597 0.84898 0 1.2279 0.14213 1.6803 0.63019 0.78855 0.85086 0.91595 1.6858 0.73796 4.8364l-0.15138 2.6797-3.4795 3.3944 1.0798-0.1464c1.7778-0.24102 2.3189-0.39038 2.5049-0.69141 0.26181-0.42362 0.36945-0.1867 0.54663 1.2032l0.15976 1.2533-1.1911-0.07246c-1.154-0.07021-5.6609 0.47944-6.7321 0.82102-0.4595 0.14653-0.54852 0.04391-0.68654-0.79141zm3.0317-1.4811c0.31018-0.06319 0.56397-0.28193 0.56397-0.4861 0-0.57273-0.93439-1.3738-1.6024-1.3738-0.65379 0-0.9041 0.41244-0.9041 1.4897 0 0.73464 0.079519 0.7498 1.9426 0.37025zm103.92-0.79464c0.0854-0.51697 0.1566-1.1148 0.15812-1.3285 2e-3 -0.26751 0.25647-0.39323 0.81738-0.40367 0.44804-0.0083 1.1248-0.1409 1.5039-0.29458 0.58817-0.23843 0.68929-0.42441 0.68929-1.2677 0-0.54357 0.057-1.1385 0.12664-1.3221 0.14058-0.37055-1.8985-1.3312-2.4399-1.1495-0.236 0.07921-0.39441-0.67844-0.61106-2.9225-0.16085-1.6662-0.3021-3.4806-0.31388-4.0321l-0.0214-1.0026 1.6925 0.07694c1.5314 0.06962 5.3903-0.22057 6.3295-0.476 0.28668-0.07796 0.39316 0.16566 0.44829 1.0257l0.0723 1.1279-2.9169 0.0417c-3.901 0.05577-4.1207 0.12106-4.1207 1.2244 0 0.48431 0.16919 1.2855 0.37598 1.7804 0.48239 1.1545 0.49071 1.1276-0.28804 0.93217-0.47675-0.11966-0.61254-0.08336-0.48148 0.12869 0.3026 0.48961 6.6027 3.5376 7.3122 3.5376 0.56155 0 0.63701 0.08372 0.50831 0.56397-0.0831 0.31018-0.15268 0.81291-0.15457 1.1172-3e-3 0.49366-0.43401 0.69008-4.0037 1.8248-2.2002 0.69936-4.0679 1.381-4.1506 1.5147-0.37089 0.6001-0.67973 0.19571-0.5322-0.69684zm6.1507-3.0053 0.85146-0.14278-1.1021-0.57653c-0.60616-0.31709-1.1867-0.58163-1.2901-0.58786-0.10339-0.0062-0.18799 0.39552-0.18799 0.89278 0 0.76003 0.0699 0.87646 0.43865 0.73063 0.24125-0.09541 0.8218-0.23772 1.2901-0.31624zm-105.75-8.4925c-0.81934-0.38815-6.6486-1.1691-7.2654-0.9733-0.4262 0.13527-0.46309 0.04945-0.34437-0.80098 0.21024-1.5059 0.27994-1.6289 0.77581-1.3682 0.68092 0.35797 6.3203 1.1075 7.1238 0.94677 0.66889-0.13378 0.7113-0.09273 0.68785 0.66579-0.01374 0.4446-0.09834 1.0375-0.18799 1.3176-0.14307 0.44692-0.23964 0.47289-0.78964 0.21234zm99.741-3.6747c-0.94765-0.73291-1.9358-3.3775-1.5944-4.2672 0.1155-0.30097 1.1277-0.92592 1.4997-0.92592 0.0624 0 0.11353 0.71568 0.11353 1.5904 0 1.2871 0.0984 1.6794 0.51598 2.0573 0.92022 0.8328 1.3956 0.20795 1.8463-2.4266 0.32539-1.9024 2.1764-2.829 3.6248-1.8145 0.72216 0.50582 1.5197 2.2077 1.5271 3.2587 4e-3 0.60505-0.12399 0.82009-0.55847 0.93652-1.0523 0.28201-1.1492 0.20474-1.0133-0.80849 0.15353-1.1447-0.25466-2.0414-0.9293-2.0414-0.59077 0-0.88718 0.5267-1.1285 2.0052-0.22399 1.3726-0.71957 2.3926-1.264 2.6015-0.67102 0.2575-2.2179 0.16046-2.6395-0.16559zm-106.4-0.62424-0.52145-0.43307 0.74638-3.0705c0.41051-1.6888 0.87075-3.068 1.0228-3.0649 0.15201 0.0031 0.55836 0.22782 0.90301 0.49946 0.43953 0.34642 0.53776 0.55209 0.329 0.68882-0.1637 0.10721-0.41345 0.49956-0.55501 0.87188-0.24738 0.65066-0.21635 0.68757 0.79894 0.95042 0.58097 0.15041 1.932 0.50481 3.0022 0.78756 1.0702 0.28275 2.17 0.4555 2.4439 0.38388 0.5781-0.15118 0.59525-0.03353 0.21511 1.4761-0.2551 1.0131-0.32272 1.0874-0.6893 0.757-0.41412-0.37323-5.0861-1.6583-6.0289-1.6583-0.44747 0-0.51855 0.1546-0.51855 1.1279 0 1.2367-0.28084 1.404-1.1481 0.68372zm8.1824-3.8169c-0.42276-0.82368-5.0572-5.5144-5.4482-5.5144-0.51728 0-0.63101-0.47505-0.33119-1.3835l0.28791-0.87238 4.179-0.0038c4.1024-0.0038 5.7455-0.2512 4.087-0.61546-0.9302-0.2043-0.99073-0.43932-0.21947-0.85209 0.80891-0.43291 1.7441-1.8996 1.6472-2.5835-0.13578-0.95838-1.0259-0.85494-2.6798 0.31144-1.2865 0.90724-1.609 1.0288-2.3573 0.88844-1.2607-0.23651-1.8167-0.97158-1.7948-2.3727 0.01267-0.80941 0.22358-1.4884 0.69244-2.2292 0.73892-1.1675 1.0211-1.2665 1.8854-0.6611l0.57703 0.40417-0.76519 0.46534c-1.1689 0.71085-1.4041 2.4861-0.32932 2.4861 0.25578 0 1.0203-0.39478 1.699-0.87728 3.4476-2.4512 6.017 0.61015 3.5358 4.2127-0.50695 0.73607-0.92172 1.4053-0.92172 1.4872 0 0.08188-0.227 0.67843-0.50444 1.3257-0.38827 0.90581-0.57873 1.1152-0.82706 0.90906-0.17744-0.14726-0.79436-0.34318-1.3709-0.43538l-1.0483-0.16763-0.50582 1.18c-0.2782 0.64902-0.50582 1.2889-0.50582 1.4219 0 0.38168 1.3323 1.4544 1.8172 1.4632 0.55041 0.0099 0.54476 0.36958-0.02575 1.6372l-0.45125 1.0026zm-1.8108-5.1502c0.40364-0.88589 0.42448-0.86549-0.88395-0.86549h-1.1748l0.72042 0.75196c0.87596 0.9143 0.96987 0.92227 1.3384 0.11353zm97.81 3.4583c-0.18503-0.51697-0.38895-1.0809-0.45315-1.2533-0.0738-0.19814 0.11325-0.31332 0.50887-0.31332 0.85159 0 6.4662-1.952 7.0039-2.435 0.39628-0.35597 0.4535-0.33245 0.68729 0.28246 0.60749 1.5978 0.60321 1.9019-0.0267 1.9019-0.95025 0-6.7559 2.0253-6.9028 2.408-0.22098 0.57586-0.46223 0.40149-0.81739-0.59078zm-1.7394-4.5153c-0.67658-1.3262-0.66776-1.563 0.0582-1.563 0.32431 0 1.7919-0.5671 3.2613-1.2602l2.6717-1.2602-0.36229-0.70059c-0.19926-0.38533-0.55389-0.85961-0.78807-1.054-0.39325-0.32637-0.38015-0.36615 0.17146-0.52073 1.2797-0.35862 1.3514-0.28796 2.7266 2.6858 1.4137 3.0571 1.422 3.3497 0.0959 3.3593-0.42773 0.0031-0.56334-0.19257-0.69226-0.99877-0.0882-0.55144-0.25607-1.0026-0.37309-1.0026-0.48238 0-5.6651 2.5732-5.94 2.9492-0.259 0.3542-0.36748 0.27126-0.82941-0.63421zm-1.3818-3.2749c-0.98266-1.5566-1.0429-1.7972-0.45015-1.7972 0.30892 0 0.71797-0.34026 1.0448-0.86908l0.53712-0.86908-0.66582-1.1361c-0.36621-0.62488-0.79684-1.1361-0.95698-1.1361-0.62323 0-2.018 0.50806-2.2238 0.81004-0.16218 0.23795-0.32419 0.16253-0.64426-0.29992-0.23518-0.3398-0.90697-1.2576-1.4929-2.0396-1.2039-1.6068-1.2568-2.0117-0.59511-4.5488 0.2427-0.93055 0.39786-1.6919 0.34481-1.6919-0.30501 0-1.9646 1.4829-2.3275 2.0797l-0.42873 0.70499-1.5849-2.0011 0.82316-0.39451c0.45274-0.21698 1.9232-1.4484 3.2678-2.7365l2.4446-2.342 1.0883 1.2794c1.9817 2.3297 2.1918 3.4254 0.86977 4.5378-0.77574 0.65274-0.92066 0.67204-2.4701 0.32906-0.26513-0.05869-0.42995 0.44677-0.65737 2.016-0.35415 2.4438-0.15987 3.2947 0.75221 3.2947 1.0871 0 7.2522-1.2491 7.6033-1.5405 0.18922-0.15704 0.37871-0.24125 0.42109-0.18714 0.45087 0.57563 0.91344 1.392 0.91344 1.6121 0 0.15083-0.99874 1.6838-2.2194 3.4067-1.2207 1.7229-2.3297 3.4632-2.4644 3.8675l-0.245 0.73501zm2.5189-5.2437c0.18985-0.24125 0.46796-0.65081 0.61801-0.91013 0.25329-0.43776 0.20381-0.45854-0.69163-0.29056-1.3257 0.2487-1.3956 0.32527-0.93663 1.0258 0.479 0.73105 0.56139 0.74532 1.0102 0.17492zm-4.9105-8.343c0.58531-0.31325 0.65466-1.5434 0.11237-1.9935-0.30501-0.25314-0.52867-0.17926-1.2352 0.40795-1.0232 0.85046-1.0935 1.1733-0.33494 1.5391 0.73151 0.3528 0.87667 0.35742 1.4577 0.04645zm-83.389 4.1605c-1.29-0.56143-2.1807-1.9683-2.3012-3.6347-0.12107-1.6738 0.27124-2.6413 1.6581-4.0888 1.0252-1.07 1.2966-1.1349 1.9104-0.45671 0.42052 0.46467 0.40842 0.49818-0.315 0.87228-1.2279 0.63496-1.7992 1.5622-1.7992 2.9202 0 1.5008 0.84022 2.6121 2.265 2.9957 1.768 0.47606 3.3684-0.62247 4.2358-2.9073l0.46305-1.2198 0.40322 0.96503c0.22177 0.53077 0.40322 1.0539 0.40322 1.1626 0 0.50547-2.1169 2.7958-3.0009 3.2468-1.1374 0.58025-2.7823 0.64097-3.9224 0.14478zm74.374-5.1761c-0.33108-0.13241-1.3231-0.82585-2.2045-1.541-1.3522-1.0971-1.5291-1.3274-1.1326-1.4741 0.5152-0.19058 4.4221-4.6499 4.9277-5.6245l0.3152-0.60755 0.97707 0.81203c2.343 1.9472 2.9185 2.9363 2.3873 4.1023-0.15573 0.34178-0.60109 0.73226-0.9897 0.86773-0.60803 0.21196-0.69094 0.35277-0.59452 1.0097 0.27876 1.8993-1.7302 3.2375-3.686 2.4553zm1.6798-1.7828c0.49307-0.49307 0.34332-1.434-0.33639-2.1138-0.71174-0.71174-0.95831-0.61948-1.9077 0.71384-0.49413 0.69394-0.49734 0.74594-0.07478 1.2129 0.49635 0.54846 1.8484 0.65753 2.3189 0.18705zm1.8875-3.4964c0.19115-0.30542 0.14282-0.59017-0.18513-1.0907l-0.44382-0.67735-0.72953 0.69894c-0.78103 0.74827-0.92094 1.2348-0.41622 1.4472 0.57267 0.24105 1.5125 0.04081 1.7747-0.37811zm-71.586 4.5298c-0.51939-0.27416-1.2908-0.97414-1.7143-1.5555-0.69898-0.95958-0.7612-1.1987-0.67493-2.5935 0.1657-2.6791 1.9164-4.3512 4.5573-4.3529 1.8194-0.0012 2.9096 0.60574 3.7916 2.1108 1.3589 2.3188 0.49259 5.0548-1.9926 6.2933-1.487 0.74101-2.6923 0.77075-3.967 0.09789zm4.3771-1.9075c0.86674-0.83039 0.92882-1.9896 0.17808-3.3254-0.66526-1.1837-1.6479-1.7661-2.9795-1.7661-2.0993 0-3.2331 2.2839-2.0355 4.1004 1.1619 1.7624 3.5262 2.2469 4.8369 0.99113zm3.7108-2.4087c0-0.85172-1.9308-6.4462-2.406-6.9712-0.38563-0.42612-0.34416-0.48389 0.71771-0.99979l1.127-0.54753 2.1969 1.9207c1.2083 1.0564 2.2293 1.8883 2.2688 1.8487 0.03957-0.03956-0.02951-0.85974-0.15351-1.8226-0.12399-0.96288-0.22913-2.2656-0.23364-2.8949-0.0076-1.0661 0.05228-1.173 0.87759-1.5666 1.0373-0.49465 1.1194-0.50669 1.1194-0.16402 0 0.47113 3.7149 5.917 4.3023 6.307l0.57694 0.38308-1.0511 0.53621c-1.2383 0.63173-1.5723 0.66753-1.5723 0.16853 0-0.43581-2.5174-4.4674-2.6849-4.2999-0.06341 0.0634 0.0069 1.1113 0.15619 2.3287 0.41568 3.3894 0.38116 3.8442-0.29109 3.8347-0.64011-9e-3 -0.77914-0.10357-2.9401-1.9989-1.9569-1.7164-2.4147-2.0038-2.1495-1.3493 0.10556 0.26049 0.46229 1.2632 0.79275 2.2282 0.33046 0.96501 0.8321 1.9466 1.1148 2.1814 0.5078 0.42174 0.50194 0.43294-0.49188 0.93995-1.2539 0.63971-1.2764 0.6386-1.2764-0.06259zm52.261-0.2145c-1.6064-0.8769-1.6293-0.90732-1.2415-1.6507 0.19861-0.38074 0.3618-1.0396 0.36265-1.464 0.001253-0.68153-0.14534-0.84057-1.2546-1.3601l-1.2561-0.58833-0.74912 0.7177c-0.41202 0.39474-0.74912 0.92219-0.74912 1.1721 0 0.56796-0.05186 0.56602-1.2533-0.0469-0.54045-0.27572-1.2045-0.5013-1.4757-0.5013-0.7164 0-1.3295-0.91207-2.6533-3.947-0.64661-1.4824-1.2646-2.7879-1.3734-2.901-0.26343-0.27405-1.3645 4.2224-1.1627 4.7483 0.13622 0.355 0.01569 0.38803-0.88847 0.24345-1.3467-0.21534-1.5927-0.37987-1.1032-0.73778 0.48009-0.35105 2.2339-6.5442 2.0511-7.2431-0.11419-0.43666-0.03726-0.47732 0.64496-0.34087 0.42604 0.085208 0.90971 0.26704 1.0748 0.40408 0.16512 0.13703 0.89855 1.6616 1.6299 3.388l1.3296 3.1388 0.60108-2.3204c0.3306-1.2762 0.54902-2.5195 0.48538-2.7628-0.13495-0.51605-0.08805-0.52335 1.1516-0.17906 0.89201 0.24773 0.92088 0.28785 0.58507 0.81322-0.29054 0.45456-2.15 6.7473-2.15 7.2759 0 0.69267 6.0974-4.0239 6.6179-5.1192 0.27533-0.57936 0.45764-0.58903 1.4481-0.076851 0.76672 0.39649 0.77108 0.41029 0.614 1.9426-0.08701 0.84878-0.23166 2.925-0.32144 4.6137-0.08978 1.6888-0.23069 3.0671-0.31314 3.0629-0.08244-0.0042-0.37548-0.13077-0.6512-0.28128zm-0.52503-6.2615c0.09112-0.56984 0.10436-1.0974 0.02942-1.1723-0.13913-0.13913-1.6349 1.1819-1.6349 1.4439 0 0.13347 0.92715 0.66332 1.2839 0.73372 0.08578 0.01693 0.23051-0.43546 0.32163-1.0053zm-40.864 1.6351c0.17483-0.55084-1.4064-6.7082-1.8645-7.2601-0.16858-0.20313-0.24957-0.42626-0.17998-0.49585 0.06959-0.069591 1.1249-0.4012 2.345-0.7369 2.3596-0.6492 2.6012-0.59714 2.6091 0.56223 0.0032 0.46926-0.13296 0.56454-0.81078 0.56739-0.44804 0.00188-1.054 0.067674-1.3466 0.1462-0.48582 0.13038-0.51023 0.22862-0.28113 1.1312 0.18642 0.73442 0.35533 0.95755 0.65734 0.86831 1.448-0.42786 1.785-0.44037 1.785-0.066252 0 0.21046 0.06846 0.56107 0.15214 0.77913 0.1239 0.3229-0.04395 0.39648-0.90446 0.39648-1.0144 0-1.05 0.02617-0.89199 0.65587 0.09054 0.36073 0.22676 0.96659 0.30271 1.3464 0.1336 0.66799 0.17199 0.68308 1.1785 0.46325 0.57222-0.12498 1.3506-0.45223 1.7297-0.72723l0.6893-0.5v1.9587l-2.0679 0.52888c-1.1373 0.29088-2.3345 0.60323-2.6604 0.6941-0.50066 0.13962-0.56904 0.09128-0.44111-0.31179zm5.8544-1.8738c0.21536-0.82355-0.44604-6.5613-0.82552-7.1615-0.29455-0.46586-0.28829-0.56134 0.045145-0.6893 1.1394-0.43722 1.6769-0.14132 4.141 2.2796 1.3593 1.3355 2.4714 2.3121 2.4714 2.1704 0-0.90434-0.59862-4.5231-0.78696-4.7572-0.27386-0.34052 0.26518-0.59324 1.2654-0.59324 0.62262 0 0.6775 0.071831 0.57717 0.75543-0.06098 0.41549 0.08519 2.3379 0.32482 4.2721 0.23963 1.9342 0.37396 3.5784 0.2985 3.6539-0.36413 0.36413-1.497-0.43948-3.8585-2.737-1.4205-1.3821-2.5828-2.4006-2.5828-2.2633 0 1.1914 0.63054 4.5492 0.91488 4.8719 0.31684 0.35959 0.29183 0.42463-0.21556 0.56055-0.3157 0.08457-0.87361 0.1553-1.2398 0.15718-0.55222 0.0028-0.6425-0.08579-0.5291-0.51944zm18.404 0.29723-1.0887-0.15034-0.03924-1.4204c-0.021588-0.78121-0.095643-1.4717-0.16457-1.5344-0.068929-0.062694-0.72336-0.16888-1.4543-0.23598l-1.329-0.12199-0.50576 0.99137c-0.27817 0.54525-0.43961 1.1637-0.35876 1.3744 0.12395 0.323-0.06981 0.36508-1.2358 0.26839-0.76052-0.06307-1.3828-0.02079-1.3828 0.09394 0 0.11474-0.62036 0.20861-1.3786 0.20861-1.3777 0-1.6258-0.15388-1.0983-0.68133 0.31177-0.31177 0.18907-6.6353-0.14363-7.4022-0.16643-0.38364-0.03764-0.43869 1.0271-0.439l1.2174-3.509e-4 -0.08098 3.6243c-0.04454 1.9934 0.01594 3.7975 0.13442 4.0093 0.1908 0.34094 0.27581 0.34261 0.74408 0.01462 0.80169-0.56153 4.1319-6.6201 3.9514-7.1887-0.13538-0.42653-0.04767-0.45537 0.93467-0.30736 0.59623 0.089837 1.1567 0.23351 1.2455 0.31928 0.08879 0.085768 0.57703 1.7915 1.085 3.7904 0.50794 1.999 1.0839 3.8843 1.2798 4.1896 0.19596 0.30533 0.35628 0.61552 0.35628 0.6893 0 0.14265-0.03232 0.14092-1.7153-0.09149zm-1.8188-5.1007c-0.01374-0.31018-0.10525-0.84595-0.20335-1.1906l-0.17837-0.62663-0.33696 0.62663c-0.18533 0.34465-0.50157 0.88042-0.70276 1.1906-0.35565 0.54831-0.34065 0.56397 0.54031 0.56397 0.77997 0 0.90263-0.07851 0.88113-0.56397z" stroke-width=".25065"/></svg>
