<svg xmlns="http://www.w3.org/2000/svg" width="123" height="123"><path d="M63 41c-2 0-4 2-4 4 0 1 2 3 4 3 1 0 3-1 3-3s-1-4-3-4zm0 1c2-1 3 2 2 4-1 1-4 1-5-1l2-3z"/><path d="M62 22c-3 0-4 2-6 4l-1 4h-9c-2 1-1 4-1 6l2 4 3 4c-1 3-3 5-3 8 0 2 0 4 2 5 2 2 6 1 9 0l1 1c1 2 3 3 5 3l5-2c1 0 0-2 1-1l6-1c2-2 2-5 1-7 0-3-2-4-4-6l4-6c2-1 2-3 2-5s-1-4-3-4c-2-1-5 0-8 1l-2-5c-1-1-2-3-4-3zm-1 1c3 0 4 2 5 4l1 3-4-5c-2-1-4 0-5 2l-1 4c-2 0-1-3 0-4 1-2 2-4 4-4zm1 2l4 5c0 2-3 2-4 3l-4-2 2-5 2-1zm12 4c2 0 4 1 4 3s-1 2-1 1c0-3-3-3-4-2l-9 4c-3-1 1-2 2-3l8-2zm-24 1c5 0 9 3 13 6l11 10c2 2 4 5 3 8l-4 3-3-1 5-1c1-2 0-5-1-7-6-7-13-13-21-16h-6c-2 0 0 3-1 3-1-1 0-4 1-5h3zm24 1c2 0 3 2 1 3l-2 6s-1 2-2 1l-1-4c0-2-2-4 0-5l4-1zm-25 1l5 2v6l-2 2-3-4c0-2-3-3-2-5l2-1zm19 1l2 5c0 1 0 3-1 1l-1-6zm-13 1c2 0 1 3 2 4l3 18c1 2 3 4 5 3l1 1c-2 1-5 0-6-2l-4-11-1-13zm12 0l1 4c-1-1-4-2-2-3l1-1zm10 0c2 0 1 4-1 2-1-1 0-2 1-2zm-19 1v0zm-11 1c2 0 0 4-1 2l1-2zm13 0c2 1-1 2-2 3l1-2 1-1zm16 1l-2 4-1 1 3-5zm-14 1l4 3c1 1 4 3 2 4l-6 6c-2-1-3-2-3-4l-1-6 4-3zm-14 1l3 4c-1 1-2-2-3-3v-1zm6 2c1 2-1 3-2 4l-4 8c0 3 3 4 5 3l4-1c1 1-2 1-3 2-2 1-4 1-5-1-2-2-2-6 0-8l5-7zm0 4c2 1-1 1 0 0zm16 0l-3 4-4 3 3-3 4-4zm-17 1l2 2-2-2zm17 1v5l-1 4v-4l1-5zm1 0l3 4c1 1 1 4-1 4-1 0-4 1-3-1l1-7zm-19 0c2 1 4 3 4 5 1 1 1 3-1 3-1 1-3 2-5 0-1-1 0-3 1-5l1-3zm16 2v5c-1 1-4-1-4-2l5-3zm-9 2l6 3s3 1 2 2l-7-4-1-1zm1 2c1 1-1 1 0 0zm2 1l4 3c0 1 0 2-2 1-2 0-3-2-3-3l1-1zm5 3c3 0 0 4-1 1l1-1zM34 62l-2 2-1 1v-1l-3-2-2 2v3l1-1 1-1 1 1 2 2 2-2 1-1 1 1c1 3 3 3 4 0 1-2 1-2 2 0l2 2h2l2-3h-1l-1 1-2-2-2-2c-2 0-2 1-3 2l-1 2v-2l-2-2zm6 0l3 3 1 2h-1l-1-1-2-2-1 1-1 2c-1 1-2 0-3-2l-1-2-1 1-2 3-2-3h-2c-1 1-1 1 0 0l1-1 2 2c1 2 1 2 2-1l3-1 1 3h1l2-1 1-3z"/><path d="M34 37c0 7 3 13 8 18l8 7c-5-1-10-5-15-9l-7-9 3 7c5 7 12 12 20 14l-6 4c-5 3-9 7-11 12-1 2-3 7-1 4 4-6 8-11 14-15l3-1c-6 4-12 11-12 19l2-3c3-7 8-12 14-15 7-3 14-2 20 2 5 4 9 11 12 17 1-2-1-5-1-7-3-6-8-12-14-15l8 5c5 3 9 8 13 13-3-9-10-16-18-20-1-1 3-1 4-2l10-7c-1 3 1 6-1 9 0 2 3 3 2 6 1 3-4 1-2 4 3 2 5-3 5-6 0-1 0-5 2-2 1 2 1 6-2 6 0 5 5 1 5-2v-9c-2-1-3-6 1-6 1-5-6-1-5 2 1 2 0 8-2 4-1-3-2-7 2-6 2-2-2-3-2-3l6-8-12 10c-1 1-4 4-5 3 5-4 9-10 12-16 0-2 2-6 0-3-4 6-8 12-13 16-6 6-14 8-22 6-9-2-16-9-20-17l-3-7zm1 5c3 5 5 9 9 13 7 6 17 10 25 7 10-2 15-10 20-17l1-1c-3 6-7 12-13 16-4 2-8 4-13 4-4 0-8 0-12-2-8-4-14-12-17-20zm-5 6c4 4 7 8 12 11 7 5 15 6 24 5 7 0 15-4 21-8l6-6-10 10-13 5 8 4c4 3 8 7 11 12-5-6-10-12-18-15H58c-8 1-16 6-21 13-1 1-3 4-2 1 4-5 8-10 14-12l6-3a32 32 0 01-25-17zm62 7c2 1-3 0-2 3-1 2 0 5 2 7-2 3 0 6-2 9-1 2-4 0-2 0 3 0 3-6 0-8-1-2 2-3 1-6-1-2 0-5 3-5zm5 0c2 1-3 0-2 2-1 3 0 5 2 7l-1 7-1 3h-2c3 0 2-5 2-7-1-1-2-3-1-5 0-2-1-7 3-7zM63 67c8-1 16 6 20 13l2 4c-4-7-11-14-20-16-9-1-18 4-23 12-1 1-3 5-2 2 4-9 13-15 23-15z"/><path d="M70 70l-11 4-7 4c-1 2-1 5 2 6l19 9h3l-7-3-10-7c-1-2 2-2 3-2l17-2H59c-1-1 1-2 2-2l9-6v-1zm-3 2l-9 5-2 1 1 1h17l-3 1-14 1v1c2 0-1 1-1 1l4 2 10 6-5-3-11-5c-2-1-2-3-1-4l5-3 9-4zM76 98l-1 1h-2l-1 1-1 2-1-1v-1l-4 1h-1v1h2v1h-1l1 1v1h-1v1h3l-1-3v-2l2 2 2 2 1-1v-4h1v1-1h3l1 1-2 2v1h1c2-1 3-4 1-5h-2zm-4 4v1h-1l1-1zM95 84v2l-3 1v1l1 3-3-2v3c1 0 1 1 0 0l-2-1-2 2v2l-1-1h-1l-1 1 4 2h2l-1-5 1 1 3 2v-2l-1-2 3 1c1 0 2-1 1-2-1 0-2-1-2-3h2c0 1 0 2 2 2l2-2-2-2-2-1zm1 2l1 2-1-1zm-9 9v0zM99 79c-3 0-4 5-1 6 2 1 4-2 3-4l-2-2zm0 2c2-1 2 4-1 3-2-1-2-4 0-3zM99 47c0 3 3 0 3 3-1 1-2 1-1 2-1 3 2 1 2 2-1 0-3 3-1 3 1-1 1-3 3-2 2 0 1-5-1-3h-2c1-1 5-4 2-4l-5-1zm4 1c2 1-2 2 0 0zm1 5c3 1-1 2 0 0zM84 22c0 1-3 3-2 5l2-2 1 4c1-1-1-4 1-4 2-1-1-3-2-3zm1 1c2 2-3 2 0 0zM79 20c-2 0-3 2-2 4s4 2 5 0c1-1 0-4-2-4zm0 1c3 0 2 5 0 3v-3zM53 17c-2 0 0 3-1 4l1 1c2 0-1-3 2-3 2-1 0-3-2-2zm1 1c1 0-1 2-1 0h1zM34 26l-2 2 3 3c1 0 2 0 1-1l-1-1h4l-2-1c-2 0-1-2-3-2zm0 1c1 0 0 2-1 0h1zM31 29c-2 0-3 2-3 4s4 3 5 1 0-5-2-5zm0 1c1 0 3 4 0 4-2 0-3-3-1-3v-1zM25 45c-2 1-6-1-6 2l4 3c-2 1-6-1-5 1 1 1 4 2 1 2-2 0-3 3 0 3 1 0 3 0 2 2 1 2-2 1-1 0-1-1-1 2-2 1l-1-2v3l5 1v-5l-3-1c3 0 5-2 2-3v-1c2 2 4-2 1-3 0-1 1-2 3-1v-2zm-4 1c2 1-1 2 0 0zM23 70c-1 1-5 2-4 4l5 1c-1 1-6 2-3 4 1 0 4 0 2 1s-1 4 1 2c1-1 5 0 2-2-1 1-3 2-1 0s0-3-2-2c-3 0 3-1 2-3 0-2-4-1-3-3l1-2zm-2 3c1 1-2 0 0 0zM28 84c-2-1-1 5-3 2-1-2-1 3 1 2 3 1 0-5 3-3 2 2 0 3-1 5 0 3 4 1 5 0h-1c-3-1 0-3-2-5l-2-1zm2 6c1 0-2 1 0 0zM49 99v4c0 1 1 3 2 1l3-3h-2c-1 1-2 0-2-2h-1zm2 3c1 0-1 2-1 0h1zM119 53l-5 1h-3l1 6v2h2v2l-1 1-2 1v2l3-1 5-2 1-1-1-1-4-2-3-1 1-1-1-2 1-1 5-1h1v-2zm-3 10l2 1-2 1v-2zM103 20l-6 5 1 2 3-2-1 1v4l3 3 1-1 2 1 1 1-2 2 1 2v1l3-4 2-4s0-2-1-1l-7 1c-1 1-2 0-1-1v-4h2l2-2-3-4zm0 2l1 3c-1 0-3 0-2-1l1-1zm6 10l-1 1v-1h1zM96 14l-4 6c-2 1 0 2 1 3h4c2 0 0-3 2-3 2-2 0-4-1-4l-1-2zm1 3c2 1 0 3-1 1l1-2zm-2 2c2 1 2 4 0 3-2 0-1-2 0-3zM74 4l-1 7c-2 1-1 2 1 2l1-5 4 7c1 0 3 1 3-1 1-2 5 1 4 2-1 2 2 3 2 1V9c-2-2-3 2-5 3-1 1-4 3-3 1l1-5c2-2-2-3-1-1l-2 4c-1-2-1-6-4-7zm12 7c1 1-1 3-1 1l1-1zM61 3c-2 0 0 3-1 4v5l5-1c0-2 2-3 3-2s0 4 2 3c3 1 0-2 0-4l-1-5c-2 0-3 0-3 2l-4 6V6l-1-3h-1zm7 2c1 1-1 4-2 2l2-2zM29 14c-2 0-5 2-5 4s0 3 2 4c2 3 6 1 7-2s-2-6-4-6zm-1 2c2 0 4 2 3 4s-4 2-5 0c-1-1 0-4 2-4zM12 31l-1 2v4h3l3-2v2l-2 2s2 0 1 1h-6-2v2l2 2 3 4h1v-3l-2-1 1-2h3l1-3 2-3c0-2-1-3-2-3l-4 2-1-1 2-2-2-1zM9 42h2c1 1 0 1-1 1l-1-1zM10 56c-3 0-3 6-5 3 0-1 1-3-1-2-1 2 0 5 2 5s3-6 5-3c0 1-2 4 0 3-1 2-2 5-4 3-3-1-3 3-3 5h5l4-1c0-1 0-3-2-1 0-1-3 1-2-1l3-2v-7l-2-2zM6 66c3 1 1 3-1 2l1-2z"/><path d="M61 13c-25 0-47 22-47 47-1 21 13 41 33 47a48 48 0 1014-94zm1 1c24-1 46 21 47 45 1 23-17 45-40 49-19 3-41-7-49-26-9-16-6-37 6-51 9-11 22-17 36-17z"/><path d="M62 0C32-1 5 23 1 52c-4 23 8 48 28 61 22 14 52 12 72-5A61 61 0 0062 0zm0 1c29-1 57 24 59 53 4 27-14 56-40 64A60 60 0 1162 1z"/><path d="M51 12l-1-7c0-2 3-1 4 0l3 3V3c2-1 1 3 2 5 0 1 1 5-2 3l-5-4c0 2 2 4 1 5h-2z"/><path d="M46 14l-1-5-1-3 2-1h2c1 2-1 1-2 1v2l3 1-2 1c0 1 0 3 1 2l3-1v2l-5 1c-1 0 0 0 0 0zM35 19l-3-8h3l3 2V9c0-1 2-2 3-1 0 2 2 3 3 5 2 1-1 3-2 2l-2-4v3c0 1 0 3-1 2-2 0-3-2-4-3-1 1 1 3 1 4 1 1 0 2-1 2zM20 29c-3-2-3-6-1-8h3l-3 3c0 3 4 4 5 3l2-4 1 2c-1 2-3 4-5 4h-2zM107 41v-1h1l5-3-1-2c-1 0 0 0 0 0h2l1 4 1 2h-1l-1-1v-1h-1l-5 3h-1v-1zM109 46v-2l7-2h1v2l-7 3-1-1zM5 51v-2l1-4c2 0 1 1 1 3l7 1c0 1-1 3-2 2-2 0-7-3-6 1l-1-1z"/><path d="M111 52c-1-1-2-3-1-5 1-1 1 1 1 2 0 2 2 2 2 1 0-2 1-4 3-4l3 3c0 2-3 1-2 0 0-2-2-1-2 0 0 2-1 4-3 3h-1zM12 56l-8-1c0-2 0-3 2-2l6 1v2zM114 74l-3-3c-1-1 0-1 1-1l7-2v1l-1 1-5 1 5 3v1h-1l-3-2zM5 76c-1-1 0-4 2-3-1 1 0 3 1 1-1-1 2-2 2 0s4 0 2-2v-1c2 0 2 4 2 5l-7 2-1-2zM115 81v-1-2l-2 1-1-1v-1h-2v3l-2-2 2-4 2 1 5 1 1 2-2 3h-1zM9 86c-1-2 2-3 2-4l2-2H8c-1 2-2-2 0-1h7c1 2-2 3-3 5-1 0-2 3-3 2z"/><path d="M10 88c-2-2 2-2 4-3 1 0 3-4 4-1 1 2-1 1-2 2l-5 3-1-1zM111 91l-7-4 1-1 3-1 4-1-3-1-2-1 1-2 1 1 4 2 2 1-1 1-3 1-3 1 3 2 1 1-1 1z"/><path d="M107 96c-1-1 2-2 1-3s-2 0-3 1-3 0-3-2c-1-1 0-3 1-4s3 0 2 1l-2 3c1 1 2-1 3-1 2-1 4 0 4 2l-2 3h-1zM16 97c-1-2 0-5 1-7s-3 1-4 2l-1-1 7-5c1 2-1 5-1 6s0 3 1 1c1 0 3-4 4-1l-5 4c-1 0-2 2-3 1zM105 99l-6-4v-1l1-1h1l6 5-2 2v-1zM100 104c-1-1 2-1 2-2-1-2-2-1-3-1-2 1-4 0-4-2l3-3c1-1 2 1 1 1s-3 2-2 3c2 0 3-2 5-1s2 4 0 5h-2zM22 104c-2-2 2-2 3-4 3-1 0-5-2-3-2 1-3 4-4 3-1 0-2-1-1-2l5-5c1-1 2 2 2 2 3 1 4 5 1 6-1 1-2 4-3 3h-1zM89 108l-1-1c1-1 2 0 2 1h-2zM36 108c0-2 3-1 1 0h-1zM66 21c-2-2 3 1 2-1-2-1-3-4 0-4v1c-2 1 3 3 0 4h-2zM56 19c0-1-1-3 1-3 1 1 0 3 1 2 1 0 2 0 1-1l1-1c1 0 3 0 3 2 1 0 2-3 3-2l-2 5c-2 0-1-4-3-5-1 2 1 5-1 5l-1-2c-1 0-2 1-1 2-2 2-2 0-2-2zM70 22v-4c-1-1 2-2 1 0l-1 4zM74 23c-2 0-3-2-2-3 0-2 5-3 4-1-1 0-3-1-3 2-1 2 3 1 3 2h-2zM38 28l-2-4h1l2 3 1-1-2-3c0-1 2-2 2 0l2 3v-3l-1-2h3l1 2v-4l1 1 3 3c0-1 0-2 1-1l-1 2c0-2-1 0-2 0l-1-3-1 3-2-1c0-1-1-1 0 0l1 2-3 2-3 1v-1zM93 37c-2-1 3-3 1-3-1 1-4 1-2-1 1-1 0-3-1-1-2 2-3-2-5-2-1-2 1-4 2-5 2 1-2 3-1 5 2 0 4-5 5-2-1 1-4 3-2 4 1-1 3-4 4-2 0 1-2 4 0 3 3-2 3 1 1 2 0 0-1 3-2 2zM26 38c-2-1-1-3 0-4 2 0-2 2 0 3 1 2 3 1 3 0l1-1c0 2-2 3-3 3l-1-1zM96 40l-1-1 4-3c1 1 2 2 1 3 0-1-2-2-2 0h-1v2l-1-1zM25 44c-1 0-3-3-4-1v-2l2-3 5 2c0 1-1 2-2 1l-3-2c1 1-1 2 1 3 0 1 3 0 2 2h-1zM98 44c-2-2 4-2 3-4l2 2c1 2-1 1-1 0l-4 2zM106 60c1-1-1-1-1-1-2 0-4 1-3-1h2c1 0 2 0 2-2l1 4h-1zM104 63l-3-1c1 0 0-2 1-1h5c0 2-1 1-3 1zM17 65c0-1 2 1 2-1 0-3-3 0-2-2l3-1c1-1 3 1 1 2-1-1-2-1-2 1 1 2 4-1 3 2h-5v-1z"/><path d="M102 66c-1-1 0-4 1-3-1 1 0 3 1 1 1-3 4 1 2 2-1 0 0-3-1-1-1 1-2 2-3 1zM17 70c0-1 0-5 1-3s5-2 5 1c-1 1-6 0-4 3l-2-1zM103 70c-1 0-3-1-2-2 1 2 6 1 4 3l-2-1zM104 77c-1-1-4-1-5-3l4-2c-1 0-4-1-2-2 1 2 5 1 4 3l-4 2c2 0 4 0 3 2z"/><path d="M102 80c1-1 1-3-1-2-1 2 0-1-2-1-1 0 1-2 2-1s4 1 2 3c0 1 0 2-1 1zM96 65v-1 1zM94 65v-1 1zM90 65c0-3 2 0 1 1l-1-1zM89 66v-1c0 1 0 2-1 1zM32 95l-1-2c1 1 2-1 3-2h2l-3 3c1 1 2 2 0 2l-1-1zM36 98c-1-1 1-2 1-3 2-2-2-2 0-2l3 1-3 4h-1zM82 101l1-1-2-3 1-1 2 3h2l-3 2h-1zM41 101c-1-1 1-2 1-3 1-1-2-3-2-1-1 1-1 3-2 2s1-2 1-3c1 0 1-3 2-1 1 0 3 1 2 3l-1 3h-1zM80 102l-1-2v-3l1 1 1 2v2h-1zM44 103c-2 0-1-2 0-1s3 0 3-2l-4-1c1-1 2-2 3-1 1 0 3 2 2 4-1 1-3 2-4 1zM60 103l1-1 1 1h-1-1zM54 106v-1-1c-1-2 2 0 1-2h1v4h-2zM76 117l-2-6 5-2c1 2 3 1 2-1-1-1 3-2 2 0s-2 3 0 4c1 1 5 1 2 2-1 1-4-3-4 0 0 1 1 2-1 2v-3c1-2-2-2-3-3-1 1 0 3 1 5 0 1 1 2-1 2h-1zM49 117c-2-1 0-2 0-4 0-1 1-2 0 0l-4 3v-4-2l-2 5c-1 0-3-1-2-2l3-5c2-1 2 1 2 3l1 2 3-3c1-1 2 0 1 2l-1 5h-1zM68 119c0-2 3-3 2-4l-3-3c2-1 3 0 4 1 1-1 0-3 2-2l-1 3 3 3c2 1-2 2-2 0h-2c0 2-1 2-2 2h-1zM55 119c-3 0-4-3-3-5 0-2 3-3 4-3 2 0 3 3 1 2-1-1-4 0-4 2 0 1 1 3 3 3h2l-3 1z"/><path d="M58 119l1-6h2l2 3 1-4h3v6c2 2-2 2-2 0v-3l-2 4-3-4v3l-1 2-1-1z"/></svg>