<svg xmlns="http://www.w3.org/2000/svg" width="123" height="123" viewBox="0 0 123 123"><path d="m62.6 40.7c-2-0.2-3.8 1.9-3.5 3.9 0.2 1.7 1.7 3.2 3.5 3.1 1.6 0 3.3-1.1 3.4-2.8 0.3-1.8-1-3.9-3-4.1l-0.2 0zm-0.1 0.9c2-0.2 3.4 2.5 2.1 4-1 1.4-3.5 1.3-4.2-0.3-0.8-1.5 0.3-3.8 2.1-3.7z"/><path d="m61.9 22.4c-2.4-0.2-4.3 1.5-5.4 3.5-0.9 1.3-1.1 3.1-1.9 4.2-2.7-0.6-5.7-1.3-8.2 0.1-2 1.3-1.6 3.8-1.5 5.9-0.2 1.6 0.6 3.2 2 3.7 0.8 1.7 2.2 3 3 4.6-1 2.5-3 4.6-3.1 7.4-0.1 1.9-0.1 4.2 1.7 5.3 2.7 2.1 6.3 1.1 9-0.4 0.7-0.5 0.9 0.8 1.3 1.1 1.2 1.7 3 3.3 5.3 3.2 1.9 0.1 3.7-0.7 5.1-1.7 0.5-0.6-0.2-2.1 1-1.7 1.8-0.1 3.8 0.5 5.3-0.7 2.4-1.5 2.4-4.7 1.8-7.1-0.7-2.4-2.4-4.2-3.8-6.1 1.4-1.9 2.6-3.9 3.9-5.8 2-0.7 1.5-2.9 1.3-4.6-0.1-1.8-0.7-3.8-2.6-4.4-2.6-0.7-5.2 0.3-7.7 0.8-1-1.5-1.6-3.4-2.8-4.8-0.9-1.1-2.1-2.4-3.7-2.4zm-0.5 0.9c2.4-0.2 3.9 2 4.9 3.9 0.3 0.8 2 3.1 0.7 3.2-1.1-2-1.6-4.6-3.8-5.6-1.9-1.2-4.1 0.2-4.8 2.1-1 1.2-0.5 3.7-1.6 4.4-2.2-0.5-0.4-3.2 0.1-4.5 0.9-1.8 2.3-3.6 4.5-3.4zm0.3 2c2.2 0.3 3.1 2.7 3.9 4.5 0.7 1.8-2.3 2.4-3.5 3.3-1.3 0.3-2.8-1.1-3.9-1.8 0.3-2 0.7-4.2 2.2-5.6 0.4-0.3 0.8-0.4 1.3-0.4zm12.3 4.1c1.7 0 3.8 1 3.9 3 0.5 1.3-1 1.7-0.7 0.2-0.2-2.2-2.9-2.4-4.6-1.9-3.3 0.8-5.8 3.1-8.8 4.5-2.4-0.9 0.8-2.2 1.8-2.8 2.6-1.5 5.5-2.7 8.5-2.9zm-24.4 0.7c5 0.1 9.4 2.9 13.5 5.6 4.2 2.9 7.9 6.5 11.1 10.4 1.7 2.2 3.3 5 2.3 7.8-0.5 1.7-2.1 2.9-3.8 2.9-0.9 0.2-3.1 0.1-3.1-0.7 1.7-0.6 4.1 0.4 5.4-1.1 1.3-2.3 0.3-5.2-1.3-7-5.3-7-12.4-13-20.8-15.9-1.9-0.5-3.9-0.7-5.8-0.3-1.7 0.6-0.4 3.2-1.4 3.7-0.5-1.8-0.2-4.2 1.7-5.1 0.7-0.3 1.4-0.3 2.2-0.3zm24.5 1.2c2.3-0.5 3.1 2 1 3-0.2 2-0.6 4-2 5.6-0.5 0.3-1.2 2.4-1.7 1.4-0.9-1.3-0.6-2.9-1.1-4.4 0.1-1.5-1.9-3.9 0.1-4.6 1.1-0.6 2.3-1 3.6-1zm-24.7 1c1.7 0.1 3.4 0.7 5 1.3v6.1c-0.9 0.9-1.8 1.8-2.8 2.6-1.1-1.3-2.6-2.8-2.8-4.6 0.4-2.1-3-2.8-1.4-5 0.6-0.3 1.3-0.4 2-0.4zm19 1c0.9 1.4 1 3.3 1.4 4.9 0.3 0.9 0 2.8-0.4 0.9-0.1-1.9-1.3-4.1-1-5.8zm-12.9 0.5c1.9 0.6 1 3.2 1.3 4.7 0.3 5.8 0.8 11.9 3.4 17.2 1 1.8 2.5 3.9 4.8 3.6 1-0.2 2.3 0.3 0.7 0.8-1.9 0.4-4.2 0-5.4-1.7-2.6-3.3-3.7-7.6-4.4-11.7-0.4-4.1-0.6-8.2-0.4-12.3l0-0.3zm11.6 0.3c0.7 1 1.3 3 1 4-1.1-0.8-4.4-2.4-1.8-3.5 0.3-0.1 0.5-0.4 0.8-0.4zm9.8 0c2.3 0.1 0.8 3.8-0.9 2-0.8-0.7-0.2-2 0.9-2zm-18.8 1.2c1.1 0.4-0.8 2-0.3 0.4 0-0.1 0.1-0.4 0.3-0.4zm-11.4 0.8c2.4-0.1 0.7 3.5-0.8 1.9-0.2-0.7-0.2-1.9 0.8-1.9zm13.4 0.2c2.2 0.8-1 2.2-1.7 3.1-1.8 1.3-0.7-2 0.4-2.3 0.4-0.3 0.8-0.7 1.4-0.7zm15.9 0.7c0 1.5-1.5 3-2.3 4.3-0.3 0.9-2.3 2.2-1.1 0.5 1.1-1.6 2-3.4 3.4-4.8zm-14.2 1c1.7 0.7 3 2.2 4.4 3.3 1 1.1 3.7 2.7 1.9 4.2-2 2.1-4.1 4.1-6.6 5.6-1.4-1-2.9-2.3-3-4.2-0.4-1.9-0.5-3.8-0.4-5.7 1.1-1 2.1-2.2 3.4-3zm-14.1 0.8c1.3 1.4 2.4 2.9 3.3 4.5-1 0.4-2-2-2.8-2.8-0.2-0.4-1-1.2-0.5-1.7zm6.6 2.2c1.2 1.7-1.1 3-1.9 4.3-1.8 2.4-3.8 5.1-3.9 8.2-0.1 2.2 2.3 3.4 4.3 2.9 1.6-0.2 2.9-1.2 4.4-1.5 0.4 1-2.4 1.6-3.3 2.1-1.7 0.5-3.8 0.8-5.1-0.7-2.1-2.2-1.4-5.8 0-8.2 1.5-2.5 3.2-4.9 5.3-7zm0.1 3.7c1.5 1.5-1.4 0.8 0 0zm15.7 0.2c0.1 1.3-2.1 2.6-3 3.7-1.5 1.2-2.8 2.6-4.5 3.5 0.3-1.3 2.5-2.4 3.6-3.6 1.4-1.1 2.5-2.5 4-3.6zm-16.9 0.8c0.7 0.4 2.8 2.3 1.9 2.5-0.6-0.5-2.5-1.7-1.9-2.5zm16.9 1c0.5 1.5 0.1 3.3-0.1 4.9-0.3 1.6-0.6 3.4-1.4 4.8-0.8-0.8 0.6-3 0.5-4.3 0.4-1.8 0.4-3.7 1-5.4zm1.2 0.1c1.3 0.8 2 2.3 2.8 3.7 0.8 1.4 1.3 4.2-0.9 4.7-1.2 0.1-4 0.7-2.8-1.5 0.4-2.1 0.6-4.3 0.7-6.5l0.1-0.3zm-19 0.2c1.4 1.4 3.4 2.5 3.7 4.7 0.6 1.3 1.1 3-0.8 3.4-1.5 0.7-3.7 1.7-5.1 0.2-1.1-1.5-0.3-3.5 0.4-5 0.5-1.1 1.2-2.2 1.9-3.2zm16.2 1.5c0 1.8 0.1 3.7-0.7 5.4-1 0.7-3.5-0.7-3.6-1.5 1.4-1.4 2.9-2.6 4.3-3.8zm-9.4 2.3c2 0.8 3.6 2.2 5.5 3.1 0.8 0.5 3.2 1.2 2.7 2.1-2.6-1.2-5.1-2.5-7.4-4.1-0.2-0.3-1-0.8-0.7-1zm1.3 2.4c1 0.4-1.1 1-0.2 0zm1.2 1.1c1.5 0.5 3.5 1.1 4.4 2.3-0.5 1-0.5 2.4-2.1 1.8-1.5-0.3-2.6-1.9-3-3.3-0.1-0.4 0.4-0.8 0.8-0.9zm5.7 2.7c2.6-0.1 0.1 3.5-1 1.3-0.3-0.7 0.4-1.2 1-1.3z"/><path d="m34.4 61.9c-1.1 0-1.7 0.5-2.5 2.2-0.3 0.6-0.6 1.1-0.7 1.1-0.1 0-0.3-0.5-0.5-1-0.4-1.3-1.2-2-2.3-2-1 0-2 0.8-2.5 2.1-0.3 0.9-0.4 3.2 0 3.2 0.1 0 0.5-0.6 0.9-1.2 0.6-1 1.3-1.7 1.5-1.5 0 0 0.4 0.7 0.7 1.5 0.7 1.5 1.5 2.1 2.5 1.8 0.7-0.2 1-0.6 1.8-2.1 0.4-0.7 0.8-1.3 0.9-1.3 0.1 0 0.4 0.5 0.5 1 0.9 3.1 3.8 3.4 4.8 0.5 0.7-1.9 1-1.9 2 0.1 0.4 0.9 0.9 1.7 1.2 1.9 0.6 0.5 1.4 0.4 2.3-0.3 1-0.7 1.7-1.6 1.9-2.5l0.2-0.7-0.9 0.7c-0.5 0.4-1.2 0.7-1.5 0.7-0.5 0-0.7-0.2-1.3-1.6-0.8-1.9-1.3-2.4-2.8-2.4-1.2 0-1.9 0.7-2.4 2.3-0.3 1.1-0.9 1.7-1.1 1.2-0.1-0.2-0.2-0.8-0.4-1.3-0.5-1.5-1.2-2.2-2.2-2.2zm6 0.5c1 0 1.7 0.6 2.3 2.2 0.6 1.7 1.1 2.3 1.8 2.3 0.3 0 0.4 0.1 0.3 0.3-0.2 0.4-1.8 0.3-2.1-0.1-0.1-0.2-0.5-0.8-0.7-1.4-0.6-1.5-1.1-2-1.8-2-0.5 0.1-0.7 0.3-1.2 1.4-0.3 0.7-0.7 1.6-0.9 1.8-0.9 1-2.1 0.2-2.7-1.8-0.4-1.4-0.9-2-1.4-1.6-0.2 0.2-0.6 0.6-0.8 1-1.1 2.1-1.5 2.6-2.2 2.6-0.7-0.1-1.1-0.7-1.9-2.7-0.4-0.9-1-0.9-1.9 0-0.9 0.9-1 0.7-0.2-0.5 0.5-0.7 0.7-0.9 1.4-0.9 0.8 0 0.9 0.1 1.6 1.6 1 2 1.5 2 2.5-0.1 0.9-1.7 1.3-2 2.2-1.8 0.6 0.2 1.1 1 1.7 2.8 0.2 0.6 0.4 0.8 0.9 0.8 0.6 0 0.8-0.2 1.3-1.6 0.7-2 1-2.3 1.8-2.3z"/><path d="m33.5 37c0.5 6.7 3.9 13 8.3 18 2.5 2.8 5.6 4.9 8.7 6.9-5.8-1.1-10.9-4.8-15.1-9-2.9-2.8-5.1-6.2-7.5-9.3 0.2 2.5 1.9 5.3 3.3 7.6 4.5 7.1 12 11.9 20.1 13.9-1.9 1.2-4.5 2.1-6.4 3.6-4.5 3.4-8.9 7.5-11.3 12.7-0.7 1.3-2.2 6.8-0.1 3.3 3.4-5.8 7.8-11.1 13.7-14.5 0.8-0.8 6.7-3.1 3.1-1.2-6.7 4-11.8 11.2-12.6 19.1-0.3 2.9 1.5-2.4 2.1-3.2 3-6.4 8-12 14.7-14.7 6.1-2.9 13.7-2.1 19.1 2 5.9 4.1 9.8 10.6 12.5 17.1 0.5-2.1-0.6-5.4-1.5-7.7-2.6-6-7.2-11.3-13.1-14.2 1.6 0.3 5.6 2.7 7.7 4.4 4.9 3.7 8.6 8.6 12.8 13-3.5-8.5-10.2-15.6-18.4-19.6-0.6-1.2 3.5-1.4 4.7-2.5 3.5-1.6 6.6-4.1 9.8-6.3-0.8 2.7 0.7 5.8-1.2 8.2 0 2.5 3.2 3.8 2.2 6.7 1.2 3.1-4.3 0.8-2.4 3.8 3.4 1.6 5.5-2.8 5-5.8 0-1.6 0.3-5.5 2.1-2.7 0.9 2.4 1.4 6.6-1.8 6.8 0.3 4.3 5.5 0.2 4.8-2.7-0.6-2.9 1.2-5.7 0.1-8.4-1.8-1.5-2.7-6.7 0.8-6.6 1-4.3-5.6-0.9-4.6 2.1 0.5 1.9-0.3 8.3-2.5 4-0.6-2.3-1.2-6.3 2.3-6 2.1-2-1.9-2.3-1.8-2.5 2-2.5 4.3-4.9 5.5-7.9-3.9 3.1-7.2 7-11.2 9.9-1.3 0.8-4.7 3.6-5.2 3.2 5-4.8 9.2-10.5 11.7-16.9 0.6-1.2 1.7-5.8-0.1-2.3-3.6 5.7-7.3 11.4-12.5 15.9-5.8 5.6-14.5 8.3-22.3 5.9-8.9-2.1-15.7-9.1-19.8-17.1-1.3-2.3-2.5-4.8-3.6-7.2zm1.6 4.8c2.5 4.8 5.1 9.7 9.2 13.4 6.6 6.1 16.3 9.6 25.2 6.9 9-2.3 14.9-10.1 19.8-17.5 0.9-1.5 2.5-3.5 0.9-0.7-3.2 6.1-7.2 12-13 15.9-4 2.5-8.6 4.1-13.3 3.9-4.1 0.2-8.4 0.1-12-2.1-8-3.9-14.1-11.2-16.8-19.7zm-5 6c3.4 4.2 6.8 8.6 11.5 11.4 7.1 4.4 15.7 5.6 23.9 5.2 7.8-0.3 15.2-3.9 21.1-8.8 2.2-1.6 4.5-4 6.5-5.4-3.1 3.6-6.7 6.6-10.5 9.4-3.7 2.5-8 3.8-12.1 5.4 1.5 1 5 2.2 7 3.7 4.9 3 8.9 7.4 11.9 12.2-5.3-5.8-10.8-12.1-18.6-14.5-4-1.4-8.3-0.8-12.4-0.8-8.6 1.3-16.6 6.1-21.7 13.1-0.8 1-3.2 4.5-1.4 1.4 3.2-5.2 7.9-9.7 13.4-12.5 2-1.2 5.2-1.6 6.7-2.8-6-1-12.1-2.6-16.7-6.7-3.5-2.8-6.4-6.3-8.5-10.3zm61.9 6.8c1.8 1.6-3.2 0.7-2.5 3.1-0.2 2.7 0.3 5.5 2.2 7.4-1.8 2.7 0.3 6.4-1.8 8.9-0.5 1.7-4.2 0.4-1.7 0.2 2.8-0.5 2.4-6.6 0-7.9-1.2-1.9 1.9-3.6 0.5-5.8-0.5-2.5 0.6-5.5 3.4-6zm5 0c1.5 1.7-2.9 0.1-2.2 2.7-0.5 2.7 0.7 4.9 2 6.9-0.8 2.1-0.8 4.4-0.8 6.6-0.1 1.1 0.3 2.3-0.8 3-0.4 1.3-3.4 1.2-2 0.1 2.9 0.5 1.7-4.9 1.7-6.8-0.9-1.4-2.4-2.9-0.8-4.8 0.2-2.7-1.1-7.2 3-7.6zm-34.1 12c8.5-0.3 15.7 6 19.7 13 0.7 1.2 2.4 4.5 2 4.6-3.9-7.6-10.5-14.5-19.1-16.3-9.4-1.3-18.6 4.2-23.6 11.9-0.8 1.4-3.2 5.3-1.6 1.8 4-8.6 12.9-15 22.5-14.9z"/><path d="m69.5 70.2c-3.6 0.8-6.9 2.8-10.2 4.2-2.3 1.1-4.7 2.2-6.8 3.7-1.6 1.7-1.1 5 1.2 5.8 6.4 3.2 13 6.1 19.6 9 0.6 0.1 2.3 1.3 2.2 0.4-1.9-1.4-4.1-2.5-6.1-3.8-3.5-2.1-7-4.2-10.5-6.3-0.9-1.8 1.9-1.9 3.1-1.9 5.7-0.6 11.3-1.3 16.9-2.1 0.7-0.9-1.5-0.4-2-0.6-5.8-0.1-11.6 0.2-17.5 0-1.7-0.6 0.5-1.8 1.3-2.1 3.1-1.9 6.3-3.7 9.3-5.9 0.2-0.2-0.2-0.4-0.3-0.3zm-2.4 1.4c-3 2.1-6.3 3.6-9.5 5.3-0.5 0.4-2.3 0.7-2 0.8 0.7-0.1 2.6 1.3 1 1.2-1.2 0.5 1 0.5 1.4 0.5 5.5 0.2 11-0.2 16.5-0.4-0.9 0.3-2.2 0.4-3.2 0.5-4.6 0.5-9.2 0.7-13.8 1.5-0.6 0-1.7 0.8-0.4 0.6 1.5 0.2-1.3 1.3-0.8 1.7 1.4 0 2.6 0.9 3.7 1.6 3.3 2.1 6.7 3.8 10 5.8-1.9-0.5-3.6-1.7-5.4-2.5-3.5-1.7-7.1-3.3-10.6-5-1.5-0.9-2.1-3.3-0.6-4.5 1.4-1.2 3.2-1.7 4.8-2.7 3-1.5 6-3 9.1-4.4z"/><path d="m76.2 98.3c-0.5 0-1 0.2-1.6 0.5-0.5 0.3-1.3 0.5-1.8 0.6-0.8 0.2-0.9 0.2-0.7 1.1 0.1 0.9 0.1 1-0.7 1.1-0.7 0.1-0.9 0.1-1.3-0.4-0.2-0.3-0.4-0.7-0.3-0.8 0.1-0.2-1.9-0.1-4 0.3-0.8 0.1-1 0.3-1.1 0.8-0.1 0.5 0 0.6 0.4 0.4 0.3-0.1 0.8-0.2 1.2-0.3 0.6-0.1 0.7-0.1 0.7 0.7 0 0.6-0.1 0.8-0.5 0.8-0.3 0-0.5 0.2-0.5 0.4 0 0.2 0.2 0.4 0.6 0.4 0.5 0 0.6 0.1 0.6 0.7 0 0.6-0.1 0.6-0.8 0.5-0.7-0.1-0.8 0-0.8 0.5 0 0.6 0 0.6 1.4 0.4 0.8-0.1 1.5-0.2 1.5-0.2 0 0-0.1-1.1-0.3-2.4-0.2-1.3-0.3-2.4-0.3-2.4 0.2-0.1 0.7 0.5 2 2.4 1.1 1.6 1.3 1.8 2 1.7 0.6-0.1 0.7-0.2 0.7-0.6-0.1-0.7 0.4-4 0.7-4.5 0.2-0.3 0.2-0.2 0.2 0.3l0 0.7 0.6-0.6c0.3-0.4 0.9-0.7 1.5-0.8 0.8-0.1 1 0 1.6 0.5 0.4 0.4 0.6 0.9 0.6 1.3 0 0.8-1 1.9-1.9 1.9-0.7 0-0.8 0.2-0.4 0.7 0.2 0.3 0.4 0.3 1.1 0 2.4-0.8 3-4.1 0.9-5.1-0.5-0.3-1-0.4-1.5-0.4zm-4.5 4.1c0.1 0 0.2 0.1 0.2 0.4 0 0.5-0.3 0.6-0.6 0.3-0.3-0.3-0.2-0.5 0.2-0.7 0.1 0 0.1 0 0.2 0z"/><path d="m94.9 83.6c-0.6 0.2-1.3 1.1-0.3 1.4 0.5 0.2 1.3 1 0.3 1-0.8 0.1-1.9-0.2-2.5 0.6-0.5 0.6-1.5 1.5-0.4 1.9 0.5 0.6 1.1 1.2 1.3 2-1.1-0.4-2.2-1.1-3.4-1.1-0.6 0.7 0.5 1.7 0.6 2.4 0.2 0.4 0.4 1.2-0.2 0.6-0.6-0.5-1.2-1-1.8-1.6-0.7 0.6-1.5 1.1-2 1.8 0.4 0.6 0.8 1.7-0.2 2.1-0.6 0.7-1.2-0.1-1.6-0.6-0.2-0.4-0.4-0.3-0.7 0-0.4 0.3-0.7 0.6-1.1 0.8 1.6 0.6 3 1.6 4.4 2.5 0.5 0.6 2-0.2 1.4-0.9-0.5-1.3-0.8-2.7-1-4.1 0.3-0.7 1.2 0.6 1.7 0.8 0.7 0.6 1.4 1.2 2.1 1.8 0.3-0.5 1-0.9 0.7-1.6-0.3-0.8-0.8-1.6-0.9-2.5 1.1 0.1 2 1.1 3.1 0.9 0.7-0.2 1.3-1 0.4-1.4-0.8-0.9-1.5-1.9-2-3 0-1 1.6-0.6 2.3-0.5 0.1 0.8 0.4 2.2 1.6 1.8 0.9-0.4 1.6-1.2 2-2-0.1-0.8-1.4-1-1.9-1.6-0.7-0.5-1.3-1.1-1.9-1.6zm1.4 2.9c0.8-0.1 1.5 1.1 0.4 1.2-0.6 0.1-1-1.1-0.4-1.2zm-9.1 8.6c0.5 0.3 0.3 1.6-0.3 0.7-0.3-0.3-0.1-0.7 0.3-0.7z"/><path d="m98.7 79.2c-2.9-0.2-4 4.3-1.2 5.3 2.2 1.1 4.5-1.3 3.7-3.5-0.3-1-1.4-1.9-2.5-1.8zm-0.2 1.3c2.8-0.3 2.3 4.2-0.4 3-1.9-0.5-1.8-3.1 0.4-3z"/><path d="m99.3 47.2c-0.5 2.3 3 0.1 2.3 2.5-0.6 1-1.9 1-1 2.5-0.7 2.7 2 1 2.3 1.3-0.8 0.7-2.5 3.3-1.1 3.2 1-1.1 1.6-2.8 3.1-1.3 2.2-0.4 1.6-5.1-1-3.3-1 0.2-4.1 1-2-0.6 1-0.9 4.9-3.2 2.1-3.9-1.6 0.1-3.1-0.3-4.6-0.3zm3.3 1.2c2.2 0.6-1.4 1.1 0 0zm1.9 4.7c2.2 0.4-1.6 1.6-0.5 0z"/><path d="m84 21.8c-0.4 1.6-2.9 3.3-2.1 4.9 1 0.6 1.4-1.8 1.8-1.9 0.1 1.4-0.2 3.1 1.3 3.8 0.7-0.5-1.2-3.3 1-3.3 1.6-1.3-0.8-2.9-1.9-3.4zm0.8 1.6c1.9 1.5-2.5 1.6 0 0z"/><path d="m79.2 19.8c-1.9-0.1-3 2.1-2.3 3.7 0.8 2 3.8 2.4 4.9 0.5 1.1-1.5 0.1-4.1-1.9-4.1l-0.3 0zm0.2 0.8c2.7-0.1 1.7 4.9-0.8 3.5-1.1-0.9-0.8-3.3 0.8-3.5z"/><path d="m53 16.8c-2.3-0.1-0.3 2.7-0.6 4.1 0 0.7 0 1.5 0.9 1.2 2.1 0.2-1.3-2.9 1.3-2.7 2.3-1.3 0.3-3-1.6-2.5zm0.8 0.7c1.7 0.6-0.9 2.9-0.4 0.5 0-0.2 0.1-0.5 0.4-0.5z"/><path d="m34.2 25.8c-1 0.3-3.7 1.7-1.9 2.5 1.1 0.8 1.7 2.8 2.7 3.1 0.6-0.3 1.5-0.7 0.5-1.2-0.5-0.5-1.4-1.5-0.1-1 1.1 0.4 2.2 0.3 3.1-0.5-0.2-0.2-1.5-0.2-2-0.4-2 0.1-0.2-2.4-2.4-2.5zm-0.3 1c1.4 0.5-0.3 2.5-0.5 0.6-0.1-0.3 0.2-0.6 0.5-0.6z"/><path d="m30.8 29.3c-1.8-0.2-3.2 1.7-2.7 3.4 0.2 2.4 3.9 2.9 5 0.9 1.1-1.6-0.2-4.5-2.3-4.2zm-0.3 1c1.9-0.2 3 3.2 0.7 3.3-1.8 0.6-3.3-2.4-1.3-3.1l0.3-0.1z"/><path d="m24.7 45c-1.7 0.9-5.6-0.9-5.5 1.8 1.2 0.8 3.1 2.2 3.5 3.3-1.3 0.5-5.5-1.1-4.7 1.3 0.9 0.7 3.6 2 0.9 2.1-2-0.3-2.6 2.5-0.3 2.2 1.3 0.6 3.4 0.6 2.4 2.3 0.6 1.7-2.3 1.4-1.3-0.2-1.1-0.7-0.8 2.2-2.1 0.8 0.1-0.9 0.8-2-0.7-1.2-0.3 0.8-1 3.1 0.6 2.7 1.4 0.1 2.9 0.1 4.3 0.5 0.2-1.6 0.2-3.2 0.3-4.8-0.7-0.4-2.7-0.5-2.6-1.1 2.2-0.1 4.2-1.4 1.3-2.6-1.1-0.6-1.2-0.8 0.1-0.6 2.1 1.2 3.8-2.3 1.6-3.1-0.7-1.4 0.8-2.5 2-1.6 0.1-0.3 1-1.6 0.2-1.6zm-3.6 1.3c1.5 0.4-0.6 1.5-0.4 0z"/><path d="m22.6 69.7c-1.1 1.7-4.5 2.3-4 4.6 1.4 0.7 4.4-0.2 5.1 1-0.8 1.1-5.3 1.9-3.1 3.4 1.3 0 4.2-0.2 2 1.4-1.7 1.1-0.8 3.6 1 1.9 1.2-0.6 5-0.4 2.6-1.9-1 0.7-3.7 1.4-1.7-0.4 2.1-1.4 0.5-2.5-1.3-1.9-2.9-0.1 3-1.1 1.3-2.5 0.1-2.3-3.9-0.9-2.5-3.4 1.2-0.4 1.4-1.2 0.6-2.2zm-1.7 3c1 1.2-1.9 0.7 0 0z"/><path d="m27.9 83.5c-2.3-0.6-0.6 5.5-2.4 2.8-1.3-1.9-1.1 2.3 0.7 1.9 3.1 1 0.2-5.3 2.8-2.8 2.1 1.2-0.3 3-0.7 4.8-0.2 2.6 3.3 0.3 4.7 0 1.8-0.8-0.4-1.6-1.1-0.7-2.4-0.8 0.4-2.8-1.5-4.1-0.6-0.8-1.3-1.8-2.3-1.8zm2.1 6c1.1 0.7-1.8 1 0 0z"/><path d="m48.8 98.8c0.1 1.2 0.4 2.6 0.4 3.9-0.2 1 0.9 3 1.7 1.6 0.9-1.3 2-2.7 3.2-3.7-0.9-0.8-1.7-0.4-2 0.6-1.2 0.9-2.1-0.6-1.8-1.7-0.4-0.4-1-0.6-1.5-0.6zm1.8 3.2c1 0.4-0.7 2-0.3 0.4 0-0.2 0.1-0.4 0.3-0.4z"/><path d="m119 53.1c-1.7 0.3-3.4 0.4-5.1 0.5-1 0-1.9 0-2.9-0.1 0 2.2 0.3 4.3 0.5 6.5 0.2 0.4 0 1.6 0.6 1.5 0.8 0.1 1.5 0.4 2.1 0.9 0.2 0.5-0.1 1.2 0 1.7 0.1 0.7-0.4 1.1-1 1.2-0.6 0.2-1.2 0.1-1.8 0.3-0.4 0.4-0.2 1.2-0.4 1.7-0.2 0.4 0.2 1.3 0.5 0.6 0.9-0.5 2-0.8 3-1.1 1.6-0.5 3.2-0.9 4.7-1.6 0.6-0.2 0.4-0.9 0.6-1.4 0.2-0.5 0.1-1-0.5-0.8-1.3-0.4-2.6-1.1-3.9-1.6-1.1-0.6-2.3-1.1-3.3-1.8-0.3-0.7 1.1 0.3 1.1-0.3-0.3-0.8-0.7-1.6-0.7-2.4-0.1-0.6 0.2-1.3 0.9-1.3 1.7-0.2 3.4-0.1 5.1-0.2 0.3 0 0.7 0 1 0-0.1-0.7 0-1.3-0.2-2 0-0.1-0.2-0.2-0.3-0.2zm-3.3 9.8c0.8 0.3 1.6 0.8 2.4 1.2-0.8 0.1-1.6 0.3-2.4 0.5-0.4-0.4-0.2-1.2-0.1-1.7z"/><path d="m103 19.9c-1.8 1.7-3.6 3.6-5.6 5-0.3 0.2-0.6 0.3-0.9 0.4 0.5 0.7 1.1 1.3 1.6 2 0.6-1.1 1.5-2 2.6-2.7 0.4 0.1-0.1 1.2-0.2 1.6-0.3 1.2-0.8 2.5 0 3.6 0.7 1.1 1.6 2.2 2.3 3.2 0.5 0.4 1.1-0.7 1.7-0.6 0.9-0.6 1.5 0.3 1.9 1l0.6 1.1c-0.4 0.6-0.7 1.6-1.6 1.7-0.9 0.2 0.3 1.4 0.5 1.9 0.2 0.3 0.4 0.6 0.6 1 0.4-1.4 1.4-2.6 2.2-3.8 0.9-1.4 2-2.7 2.8-4.2-0.3-0.6-0.7-2.1-1.5-1.4-2.2 0.6-4.5 1.1-6.7 1.4-1 0.4-1.8-0.4-1.6-1.4 0.1-1.2 0.2-2.5 0.6-3.7 0.6-0.5 1.6 0.4 2.2-0.2 0.8-0.5 1.6-1.3 1.3-2.3-0.5-1.5-1.7-2.6-2.7-3.9zm0.2 2.6c1 0.1 1 1.7 0.3 2.1-0.6 0.5-2.1 0-1.9-0.8 0.4-0.5 1-1 1.6-1.3zm5.7 9.2c0.7 0.1-0.5 1.2-0.7 1.6-0.6 0.2-1.5-1.4-0.4-1.4 0.4-0.1 0.8-0.2 1.1-0.2z"/><path d="m96.4 14.3c-1.1 2.1-2.9 3.9-4.5 5.6-1.8 0.9 0.3 2 1.2 2.7 1.1 1 2.9 1.7 4.2 0.7 1.6-0.7 0.1-3.1 2-3.4 1.7-1.4-0.2-3.4-1.4-4.3-0.5-0.4-1-0.8-1.4-1.2zm1 2.2c1.6 1.1-0.1 3.2-1.4 1.9-0.1-0.9 0.9-1.3 1.4-1.9zm-2.3 2.7c1.9 0.5 1.5 3.6-0.6 2.8-1.9-0.4-0.4-2.4 0.6-2.8z"/><path d="m74.3 4.3c-0.7 2-0.7 4.3-1.7 6.2-1.1 1.3-0.3 2.9 1.4 2 0-1.6 0.4-3.3 1.1-4.8 1.6 2.1 1.7 5.5 4.1 6.8 1.3 0.5 2.9 1.6 3.2-0.3 1.1-2 4.6 0.4 3.2 2.3-0.8 1.8 2.8 2.8 2.1 0.4 0-2.5 0.4-4.9 0.4-7.4-2.1-2.3-3.5 1.9-5.4 2.7-0.9 0.7-3.8 3.2-3 0.6 0.7-1.7 0.8-3.5 1.6-5.1 1.4-1.7-2.3-2.7-1.6-0.5-0.3 1.1-0.7 4.1-1.2 3.8-1.3-2-1.4-6.2-4.3-6.6zm12 6.5c0.9 1.3-1.6 3-1.4 1.1 0.4-0.4 0.8-0.9 1.4-1.1z"/><path d="m60.6 3c-2.1 0-0.1 3-0.7 4.3 0.5 1.3-0.7 3.5 0.1 4.2 1.6 0 3.4-0.1 4.8-0.5-0.2-2.2 2-3.1 3.6-1.8 0.7 1.1-0.5 3.4 1.7 3 2.6 0.5-0.1-2.4 0-3.8-0.4-1.6-0.8-3.3-1.4-4.9-1.5-0.9-2.6-0.1-2.7 1.5-1 2-2 4.1-3.5 5.7-1.6-0.3-0.5-3.3-0.8-4.7-0.2-1.1 0.8-3.4-1-2.9h-0.2zm7 2.1c1 1-0.2 3.6-1.1 2 0.3-0.7 0.9-1.2 1.1-1.9z"/><path d="m28.7 14.3c-2.1-0.1-4.2 1.5-4.5 3.6-0.5 1.7 0.2 3.4 1.6 4.4 2.4 2.2 6.6 0.2 7.2-2.8 0.5-2.6-1.6-5.5-4.3-5.2zm-0.6 1.5c2.2-0.1 4.1 2.4 3.3 4.4-1 2-3.9 1.6-5.1 0-1.4-1.4-0.7-4.2 1.4-4.4l0.2 0z"/><path d="m12.2 31.4c-0.9 0.3-1.3 1.3-1.6 2.1-0.3 1-0.3 2.3 0.5 3 0.8 0.6 1.9 0.7 2.7 0.1 0.9-0.5 1.7-1.4 2.8-1.5 1.1 0.2 0.5 1.6 0 2.2-0.3 0.7-1.3 0.9-1.5 1.6 0.2 0.4 1.6 0.2 1.1 0.7-1.9 0.3-3.9 0.2-5.8 0.2-0.9 0-1.9 0-2.8 0-0.1 0.7-0.9 1.7-0.1 2.2 1.1 0.6 1.9 1.6 2.8 2.4 1 1 2 2 2.8 3.1 0.2 0.4 0.4 0.9 0.5 0.2 0.2-0.7 1.2-1.9 0.2-2.3-0.7-0.2-1.6-0.7-1.7-1.5 0.1-0.7 0.5-1.4 0.8-2.1 0.1-0.7 0.9-0.2 1.4-0.2 0.5 0 1.1 0.6 1.5 0.3 0.7-0.8 0.7-2 1.3-2.8 0.7-1.1 1.6-2.2 1.5-3.6 0-1.1-0.7-2.2-1.8-2.3-1.4-0.2-2.5 0.8-3.6 1.5-0.8 0.7-1.8-0.3-1.3-1.2 0.3-0.8 1-1.1 1.7-1.5-0.4-0.3-0.8-0.7-1.4-0.8zm-3 10.2c0.7 0.1 1.8-0.3 2.3 0.3 0 0.7-0.7 1.6-1.2 0.8-0.3-0.3-0.7-0.7-1-1z"/><path d="m9.7 56.4c-2.5-0.8-2.7 5.2-4.6 3.1-0.2-1.3 0.9-3.5-1.3-2.3-0.7 1.8-0.1 4.9 2.3 4.7 2.3 0.4 2.8-5.7 4.6-2.9 0.6 1.4-1.9 3.8 0.6 3.3-1.3 1.5-2.6 5.1-4.5 2.3-3-1-3.1 2.9-2.6 4.9 0.6 1.9 3.5-0.3 5.1 0.1 0.9-0.6 3.5 0.6 3.5-0.6-0.1-1.2-0.1-2.8-1.6-1.5-0.5-0.1-3.5 1-2-0.2 1-0.9 1.9-1.9 2.9-2.8 0-2.3 0.6-4.6-0.1-6.8-0.4-0.8-1.2-1.4-2.1-1.3zm-3.5 9.8c2.7 0.3 1.1 3-0.9 1.9-0.1-0.7-0.1-1.9 0.9-1.9z"/><path d="m61 13.1c-24.7-0.2-47.3 21.9-47.2 46.6-1.1 20.8 13.3 41.2 33.2 47.3 17.6 5.8 38.5 0.4 50.6-13.8 12.4-13.7 16.1-34.8 8.1-51.6-7.7-17.1-25.6-29.2-44.6-28.5zm0.6 1.1c24.4-1.1 46.8 20.8 47.2 45 1.3 22.9-16.6 45.2-39.4 48.5-19.7 3.4-41-7.2-49.7-25.3-8.3-16.4-6.2-37.7 6-51.6 8.8-10.4 22.1-17.2 35.9-16.7z"/><path d="m61.7 0.1c-29.3-1-56.4 22.9-60.5 51.7-3.8 23.5 7.6 48.5 27.9 61.1 21.6 14.1 52.2 12.3 71.7-4.8 16.2-13.3 24.7-35.1 21.4-55.9-3.8-29.1-30.9-53.1-60.4-52.1zm0.1 0.8c29.5-0.7 56.7 23.9 59.6 53.1 3.6 27.4-14.4 55.7-40.7 64.1-21.6 7.4-47.1 1.2-62.6-15.7-16.3-16.8-21.4-43.5-11.8-64.9 9.3-21.7 31.7-37.3 55.5-36.6z"/><path d="m51.3 11.8c0.1-2.4-0.2-4.8-0.8-7.2-0.3-1.8 2.9-0.2 3.4 0.8 1 0.7 2.8 3.3 3.3 2.5 0.2-1.5-1.2-3.7-0.4-4.8 2.7-0.8 1 3.1 1.8 4.6 0 1.2 1.3 5.4-1.1 3.5-1.8-1.3-3.2-3.2-5-4.4-0.3 1.8 1.3 4.3 0.7 5.4-0.4 0-2 0.6-1.8-0.4z"/><path d="m45.5 13.6c-0.1-1.5-0.6-3-0.9-4.4-0.3-1.1-0.5-2.2-1.1-3.1 0.4-0.6 1.6-0.6 2.3-0.9 0.8-0.1 2.1-0.9 2.6 0 0.5 1.4-1.2 1-2 1.2-1 0.1-0.4 1.8 0.1 2.1 0.7-0.2 2.2-0.9 2 0.5 0.4 1.1-1.6 0.1-1.8 0.9 0.4 0.7 0 2.6 1.2 2.3 1-0.2 2-0.7 2.8-1.3v2c-1.7 0.4-3.4 0.9-5.1 1.3-0.2 0-0.1-0.3 0-0.4z"/><path d="m34.6 18.5c-0.5-2.5-1.4-4.8-2.4-7.1 0.2-1.3 2.1-1.6 2.8-0.6 1 0.8 1.9 2 3.1 2.5 1-0.9-0.3-2.9 0.1-4.2-0.5-1.5 1.9-2.6 2.4-1.1 0.8 1.8 2.1 3.4 3.3 5 1.7 0.9-0.4 2.7-1.5 1.7-0.9-0.9-1-2.3-1.9-3.3-1.4-0.9-0.4 1.7-0.5 2.5 0.2 1 0.4 3.4-1.4 2.5-1.4-0.8-2.2-2.4-3.7-3-0.6 0.9 0.8 2.7 1.1 3.8 1.3 0.8-0.1 1.8-1.1 1.8-0.1-0.1-0.2-0.2-0.3-0.4z"/><path d="m20.1 28.7c-2.7-1.3-3.1-5.5-0.9-7.5 0.4-1.2 2.6-1.6 2.3-0.1-1.4 0.5-2.4 1.9-2.2 3.4 0 2.4 3.3 3.8 5 2.1 1.1-0.9 1.5-2.2 2-3.5 0.2 0.8 0.9 1.6 0.7 2.4-1.1 1.6-2.7 3.5-4.9 3.5-0.7 0-1.3-0.1-2-0.3z"/><path d="m107 41.4c-0.2-0.4-0.5-0.8-0.5-1.3 0.1-0.5 0.7-0.2 1.1-0.4 1.8-0.6 3.5-1.5 5.2-2.3 0.2 0 0.2-0.2 0.1-0.3-0.3-0.6-0.7-1.3-1.2-1.7-0.3-0.4 0.5-0.4 0.8-0.5 0.5-0.2 0.9 0.1 1.1 0.5 0.6 1 1 2.1 1.5 3.1 0.3 0.7 0.6 1.3 0.7 2 0 0.5-0.6 0.5-0.9 0.5-0.5 0.1-0.7-0.4-0.7-0.8-0.1-0.4-0.1-0.9-0.4-1.2-0.4 0-0.8 0.3-1.1 0.4-1.5 0.7-3.1 1.4-4.5 2.3-0.3 0.2-0.6 0.7-0.9 0.1-0.1-0.2-0.2-0.4-0.3-0.5z"/><path d="m109 45.9c-0.2-0.5-0.4-1.1-0.5-1.2-0.1-0.2 0.1-0.3 0.5-0.3 0.9 0 6.5-1.9 7-2.4 0.4-0.4 0.5-0.3 0.7 0.3 0.6 1.6 0.6 1.9 0 1.9-0.9 0-6.8 2-6.9 2.4-0.2 0.6-0.5 0.4-0.8-0.6z"/><path d="m4.9 51.4c-1-0.4-0.1-1.4-0.1-2.1 0.4-1.5 0.6-3.1 1.4-4.4 1.9 0.4 0.9 1.5 0.6 2.7 2.1 0.7 4.4 1.5 6.7 1.5 0.3 1.2-0.3 3.3-1.8 1.9-1.9-0.3-6.2-2.9-5.7 0.8-0.3 0.4-0.8-0.1-1-0.3z"/><path d="m111 52.1c-1-1.2-2.3-3.2-1.2-4.7 1.4-1 1.4 0.9 1.2 1.8-0.3 1.6 2 2.3 2.1 0.4 0.2-1.5 0.6-3.6 2.5-3.7 1.8-0.1 2.8 2 3 3.5 0 1.9-2.2 1.1-1.6-0.5 0.4-1.9-2.5-1.3-1.9 0.3 0 1.6-1.1 3.7-3 3.1-0.3-0.1-0.6-0.1-0.9-0.3z"/><path d="m11.5 55.7c-2.5-0.7-5.1-1-7.6-1-0.2-1.6 0.4-2.9 2.1-1.8 2.1 0.4 4.3 0.7 6.4 0.6 0.1 0.5 0.3 2.9-0.9 2.2z"/><path d="m114 73.5c-1.1-0.9-2.7-1.3-3.5-2.6-0.3-0.6 0.5-1.1 1-1.2 2.4-0.8 5-1.1 7.4-1.9 0.6-0.1 0.8 0.8 0.5 1.2-0.2 0.7-0.8 1.1-1.5 1.1-1.8 0.3-3.5 0.7-5.3 1 1.7 0.9 3.2 2.1 5 2.7 0.7-0.2 1.1 0.8 0.8 1.3-0.2 0.6-1.1 0.8-1.5 0.3-0.8-0.8-1.9-1.2-2.8-1.9z"/><path d="m5.4 75.8c-1-1.2-0.3-4 1.1-3-0.5 1.4 0.9 3.6 1.9 1.7-1.1-1.6 1.8-2.8 1.3-0.7 0.6 1.9 3.8-0.2 2.2-1.8-0.6-0.9-1.3-1.8 0.4-1.4 1.3 0.9 2.1 4.3 1.4 5.4-2.4 0.2-4.9 0.8-7.2 1.6-0.8 0.8-0.8-1.4-1-1.7z"/><path d="m115 80.9c-0.9-0.2 0.1-0.9 0.3-1.4 0.5-0.6 0.5-1.8-0.5-1.7-0.8-0.2-1.1 0.6-1.3 1.2-0.4 0.7-1.7 0.2-1.4-0.6 0.7-0.4 0.7-1.6-0.2-1.7-0.6-0.4-1.7-0.5-1.9 0.4-0.2 1-0.2 2-0.2 2.9-0.7-0.5-1.8-1-1.3-2.1 0.4-1.3 0.8-2.6 1.2-3.9 0.7-0.5 1.3 0.5 2 0.6 1.7 0.6 3.4 1.2 5.1 1.6 0.8-0.3 1.3 0.7 0.8 1.3-0.4 1.1-0.6 2.3-1.3 3.2-0.3 0.3-0.8 0.3-1.2 0.1z"/><path d="m8.8 85.6c-0.8-1.7 1.7-2.7 2.6-4 0.5-0.5 1.5-1.3 1.6-1.6-1.8 0.1-3.7-0.2-5.5 0.2-0.9 1.4-2-2.6 0-1.6 2.6 0 5.2-0.3 7.8 0.2 0.9 2-2.1 3.3-3.1 4.7-0.9 0.3-2.6 3.8-3.3 2.1z"/><path d="m10.1 87.8c-1.6-2.1 2.4-1.5 3.5-2.8 1.7-0.3 3.6-3.8 4.3-0.8 1.3 1.4-1.3 0.9-2.1 1.7-1.7 0.8-3.6 1.8-5.1 2.9-0.3-0.3-0.4-0.7-0.6-1z"/><path d="m111 90.6c-2.2-1.6-4.7-2.6-7-3.9-0.1-0.6 0.6-1 1.1-1.1 0.9-0.2 1.7-0.5 2.6-0.7 1.3-0.3 2.7-0.5 4-0.8-0.7-0.7-1.7-0.9-2.5-1.4-0.8-0.4-1.7-0.4-2.5-1-0.1-0.8 0.6-1.7 1.4-1.4 0.4 0.2 0.7 0.6 1.2 0.8 1.1 0.7 2.3 1.1 3.4 1.8 0.7 0.4 1.7 0.4 2.1 1.1 0.1 0.6-0.4 1.2-1 1.4-0.9 0.4-1.8 0.4-2.7 0.6-1.2 0.2-2.4 0.5-3.5 0.8 0.9 0.9 2.2 1.2 3.3 1.8 0.6-0.1 1.3 0.3 1.3 1-0.1 0.5-0.4 1-0.8 1.2-0.1 0-0.3-0.1-0.3-0.2z"/><path d="m107 95.8c-0.8-1.2 1.9-1.3 1.3-2.7-0.8-1.2-2.2 0.2-3.1 0.6-1.3 0.9-3.3 0.1-3.6-1.5-0.2-1.4 0.6-2.9 1.6-3.8 0.7-1 2.8 0 1.5 0.9-0.9 0.4-2.1 1.6-1.4 2.7 1.1 0.6 2.1-0.6 3.1-0.9 1.4-0.8 3.4 0.2 3.4 1.9 0 1.3-0.8 2.8-2 3.4-0.3 0.1-0.6-0.1-0.8-0.4z"/><path d="m15.6 96.6c-1-1.9 0.8-4.1 1-6.1 1-2.7-2.7 0.9-3.5 1.7-0.2 0.9-2.3-1.7-1-1.6 2.3-1.2 4.3-3.1 6.7-4.2 1.3 1.3-0.7 4.1-0.8 5.8-0.5 1.1-0.5 2.4 0.8 1.1 1.6-0.7 3.2-4 4.1-1-1.1 1-3.7 2-5.1 3.4-1 0.2-1.5 2.6-2.3 0.9z"/><path d="m105 99.3c-0.3-0.6-4.8-4.3-5.6-4.7l-0.6-0.2 0.8-0.9c0.8-1 1.2-1.2 1.2-0.6 0 0.4 5 4.7 5.9 5 0.3 0.1-1 1.9-1.3 1.9-0.1 0-0.3-0.2-0.4-0.5z"/><path d="m99.8 104c-0.8-1.3 2-1 1.9-2.4-0.4-1.6-2.2-0.4-3.1-0.2-1.5 0.7-3.5-0.4-3.3-2.1 0.1-1.5 1.2-2.9 2.5-3.5 1.1-0.6 2.6 1 0.9 1.2-1 0.3-2.6 1.7-1.4 2.6 1.6 0.3 3.1-1.2 4.7-0.6 1.6 0.9 1.6 3.5 0.1 4.5-0.5 0.6-1.5 1.7-2.1 0.5z"/><path d="m21.9 104c-2-1.6 2.2-2.1 2.8-3.8 3.1-1.3 0-5.7-2.1-3.1-1.5 0.7-2.5 3.7-3.8 3.3-0.9-0.8-1.9-1.6-0.3-2.1 1.8-1.5 3.7-3 4.9-5 0.5-1.2 1.3 1.9 2.1 1.9 2.5 1 3.4 4.5 0.8 5.9-1.4 0.7-2.5 3.5-3.7 3.2l-0.3-0.2z"/><path d="m88.6 108c-0.4-0.3-0.4-0.4-0.2-0.9 0.5-1 1.7-0.5 1.4 0.6-0.2 0.7-0.6 0.8-1.3 0.3z"/><path d="m35.9 108c-0.3-1.7 2.8-0.7 1.2 0.4-0.4 0.3-1.1 0.2-1.2-0.4z"/><path d="m65.6 21.2c-1.1-2.1 3.3 0.8 2-1.3-1.9-0.6-2.3-3.6 0.2-3.5 1.7-0.4 1.7 2.1 0.2 1-2.5 0.4 3.3 2.8 0.4 4-0.9 0.3-2.1 0.5-2.8-0.2z"/><path d="m56.1 19.3c0.3-1.1-1-3.8 1.1-2.9 0.3 0.7-0.4 2.2 0.9 1.7 0.6-0.1 1.8 0.2 1.3-0.8-0.1-0.7-0.5-1.6 0.6-1.3 1.4-0.1 3-0.2 3.4 1.5 0.9 0.5 1.2-2.8 2.5-1.2-1.3 1.4-1.7 3.4-1.9 5-2.3-0.1-0.8-4-3-4.9-1.3 1.2 1.4 4.9-1.1 5-0.9-0.4 0.3-2.3-0.7-2.4-1.6-0.5-2.2 0.7-1.5 2.2-1.5 1.6-1.7-0.5-1.6-1.7z"/><path d="m69.7 22.1c-1.1-0.6 0.6-2.5 0.3-3.7-0.6-1.7 2.4-2.1 1.4-0.3-0.7 1.2-0.1 3.7-1.1 4.2l-0.3 0z"/><path d="m74.3 23.3c-1.8-0.2-3.2-2.1-2.4-3.8 0.4-1.9 4.7-2.4 4.6-0.5-1.1 0-3.8-0.8-3.5 1.6-0.5 2.3 2.9 1.2 3.1 2.2-0.5 0.7-1 0.9-1.7 0.6z"/><path d="m37.8 27.6c-0.8-1-1.5-2.1-2-3.2 0-0.8 1.2-1.1 1.3-0.2 0.6 0.9 1 1.9 1.8 2.6 0.7 0.4 1.8-0.4 1.4-1.2-0.4-1.1-1.1-2.1-1.9-3 0.1-0.8 1.7-1.3 1.6-0.1 0.6 1.1 1.2 2.3 2.1 3.2 0.5-0.8-0.2-1.8-0.3-2.7 0-0.8-1-1.8-0.4-2.5 0.9-0.7 1.7 0.2 2.3 0.9 0.4 0.4 0.8 0.7 1.1 1.1 0-1.1-0.1-2.3 0.1-3.4 0.4-0.8 1.6-0.5 1.6 0.4 0.6 1.1 1.2 2.2 2 3.2 0.3-0.4 0.7-1.5 1.3-0.7 0.4 0.5 0.1 2-0.5 1.7 0.2-1.7-1.4 0.2-2-0.2-0.5-0.9-1-1.8-1.4-2.7-0.1 1.2 0 2.4-0.4 3.6-0.9-0.3-1.6-1.1-2.3-1.7-0.4-0.3-1-0.8-0.6 0 0.2 0.9 0.8 1.8 0.9 2.6-0.7 0.5-1.6 0.7-2.3 1.2-0.9 0.5-1.7 1.6-2.9 1.3-0.2-0.1-0.5-0.2-0.7-0.4z"/><path d="m93 36.5c-1.7-0.9 3.3-2.9 0.7-2.6-1.1 0.8-3.5 0.8-2-1.1 0.8-1.1 0.6-2.5-0.7-1-1.7 2.3-3.3-1.4-5-2-1.1-1.8 1.2-4.2 2.4-5 1.9 1.4-2.8 2.9-1 4.8 1.7 0.9 3.5-4.4 4.2-1.6-0.7 0.9-3.2 2.9-2 3.7 1.4-0.5 3.6-3.9 4.5-1.4-0.2 0.9-2 3.6 0.2 2.3 2.3-1.3 2.9 1.2 0.9 2.3-0.5 0.5-1.4 2.8-2.3 1.7z"/><path d="m25.5 38.2c-1.5-1.3-1-3.6 0.6-4.6 2.3 0.3-2 2.1-0.1 3.4 0.8 1.5 2.9 0.9 3.4-0.5 0.1-0.8 0.5-1.8 1-0.4-0.1 1.6-1.9 3.2-3.6 2.8-0.5 0-0.9-0.3-1.2-0.7z"/><path d="m95.6 40.3c-0.3-0.6-1.4-1.4-0.2-1.7 1.3-0.8 2.6-1.6 3.8-2.5 0.5 0.9 2.2 2.4 1 3-0.2-0.8-2.2-1.8-1.7-0.4 0.7 1.4-0.7 1.3-1 0.2-1.4 0.4-1.4 1.2-0.3 2 1.1 1.7-1.5 0.3-1.5-0.5z"/><path d="m25.3 44.1c-1-0.6-3-2.7-3.9-1.2-0.9 1.3-0.9-1.2-0.2-1.8 0.6-1.2 1.2-2.3 1.9-3.5 1.5 0.9 2.9 1.8 4.5 2.6 0.1 1.2-1 1.7-1.7 0.6-1-0.5-2.2-1.6-3.2-1.6 0.9 0.8-0.8 1.9 0.8 2.3 0.8 1 3.9 0.6 2.3 2.4-0.1 0.2-0.5 0.8-0.5 0.3z"/><path d="m97.7 43.9c-1.3-2 4-1.5 3-3.5-0.3-2.1 2.1 1.2 2.3 2.1 0.5 1.6-1.2 0.4-1.4-0.1-1.4-0.2-3.2 2.8-3.8 1.4z"/><path d="m106 59.7c0.6-1.2-0.8-0.6-1.5-0.6-1.3-0.1-3.4 1.3-2.8-0.9 0.1-0.6 1.4-0.1 2-0.3 1.6 0.3 2.6-0.2 2-1.7 1.7 0.1 1.3 3.1 1.1 4.2-0.5 0.2-1.1 0-0.8-0.7z"/><path d="m104 62.5c-0.9 0-1.7-0.1-2.6-0.1 0.1-0.6-0.4-1.9 0.6-1.6 1.5 0 3.1 0.1 4.6 0.1 0.4 2.4-0.9 1.5-2.7 1.5z"/><path d="m16.8 65.4c-0.2-1.6 2.6 0.1 1.8-1.7 0.5-2.3-2.7 0.2-2.1-2.2 0.4-0.7 2.2 0 3-0.3 1.2-0.9 3.2 0.8 1.9 1.3-1.2-0.2-2.7-0.3-1.9 1.4 0.3 1.8 3.2-0.8 2.5 1.9-1.7 0-3.5 0.2-5.2 0.2l-0.1-0.2 0-0.4z"/><path d="m102 65.9c-1.2-0.7-0.1-4.3 0.6-2.8-0.7 1.2 0.2 2.9 1.1 1 1.3-3 4.7 0.9 2.3 2.1-0.9-0.2 0.3-3-1.2-1.6-0.5 1-1.6 2.6-2.8 1.3z"/><path d="m17.4 70.1c-0.5-1.1-0.8-5.1 0.6-2.8 0.7 2 4.6-1.8 4.5 1-0.4 1.2-5.4-0.3-3.8 2.3-0.5 0.1-1.2 0.1-1.3-0.5z"/><path d="m103 70.3c-1 0.2-3.4-1.1-1.9-1.8 1.3 1 5.9 0 4.4 2.4-0.8-0.2-1.6-0.4-2.5-0.6z"/><path d="m104 76.5c-1.2-1-4.5-0.7-4.7-2.1 0.8-1 3.8-1.3 3.6-2.2-0.9-0.1-3.6-0.9-2-1.8 1.1 1.1 5.2 0.6 4.3 2.5-1.1 0.8-2.5 1.2-3.7 1.7 1.1 0.6 4 0.2 2.7 2l-0.1 0-0.1-0.1z"/><path d="m102 80.1c0.7-0.6 0.6-2.7-0.6-1.6-1.5 1.6-0.1-1.9-2.1-1.4-1.6-0.4 0.2-2.5 1.2-0.9 1.5 1 4.9 0.9 2.7 3.2-0.2 0.4-0.7 1.2-1.2 0.7z"/><path d="m95.7 64.8c-0.7-1 0.4-2.8 0.5-0.8 0.1 0.3 0 1.3-0.5 0.8z"/><path d="m94.1 65.2c-1-0.8 0.4-3.2 0.4-1 0 0.3 0 1-0.4 1z"/><path d="m90.4 65.1c-0.6-2.6 2 0.4 0.3 0.9-0.3-0.2-0.2-0.6-0.3-0.9z"/><path d="m88.5 65.9c-1-1 1-3 0.8-0.8 0.2 0.7-0.1 1.6-0.8 0.8z"/><path d="m31.6 94.6c-0.7-0.4-1.7-2-0.2-1.6 0.9 1.4 2-1.1 2.8-1.7 0.4-1.3 1.2-0.6 1.8 0.1-1.1 0.9-2 2-2.9 3.1 0.8 0.3 1.5 1.9 0 1.3-0.5-0.3-1-0.7-1.4-1.2z"/><path d="m35.9 98.1c-0.9-1.1 1.4-2.2 1.6-3.3 1.2-1.3-2.9-1.7-0.6-2.2 1.1 0.3 1.8 1.1 2.7 1.7-1.2 1.2-2.1 2.7-3.1 4.1-0.2 0-0.4-0.2-0.6-0.3z"/><path d="m82 101c-0.2-0.8 1.4-0.6 0.7-1.5-0.5-1.1-1.1-2.1-1.8-3 0.3-0.5 1.5-1.4 1.4-0.3 0.5 1.1 1.1 2.2 1.9 3.1 0.4 0 1.3-1.3 1.3-0.2-0.2 0.9-1.3 1.3-2.1 1.8-0.5 0.2-1.6 1.3-1.4 0z"/><path d="m40.8 101c-1.2-0.7 1-1.8 1-2.9 1.2-1.4-1.3-2.8-1.8-1-0.8 0.8-0.8 3.4-2.3 2-0.5-0.8 1.2-1.8 1.4-2.8 0.6-0.7 0.9-2.9 1.8-1.3 1.1 0.4 2.9 0.9 2.5 2.5-0.3 1.4-1.2 2.6-1.8 3.8-0.2-0.1-0.5-0.3-0.7-0.4z"/><path d="m80.2 102c0-0.2-0.4-1.2-1-2.3-0.9-1.8-0.9-2-0.6-2.3 0.6-0.4 1.1-0.4 1.1 0.1 0 0.2 0.4 1.3 1 2.4 0.9 1.8 0.9 2 0.5 2.2-0.6 0.3-1 0.3-1-0.1z"/><path d="m43.8 103c-1.3 0.1-0.9-1.9 0.1-1 1.4 1.3 3.6-0.3 2.9-2-0.5-1.3-2.1-1.3-3.3-1.4 0.7-0.5 1.5-1.1 2.3-0.6 1.6 0.4 2.9 2.3 2 3.9-0.7 1.5-2.6 1.9-4 1.2z"/><path d="m60.3 103c-0.3-0.8 0-1.3 0.8-1.3 0.7 0 0.7 0.1 0.7 0.8 0 0.6-0.1 0.8-0.7 0.8-0.4 0.1-0.7-0.1-0.8-0.3z"/><path d="m53.8 106c-1.2 0.1-0.6-2.1 0.2-0.9 1.2 0.5 1.1-1.5 0-1.3-0.7-1.3 1.7-0.2 1.3-1.7-0.6-1.4 1.9-1.5 1.2-0.1-0.3 1.3-0.3 2.8-0.9 4-0.5 0.4-1.2 0-1.8 0z"/><path d="m76.1 117c-0.3-2.2-0.9-4.3-1.7-6.4 1.2-0.8 3.3-1.7 4.8-1.2 1.1 1.2 2.4 0.5 1.9-1-0.7-1 2.5-1.9 1.5-0.2-0.4 1.5-1.2 3.3 0.9 3.8 0.7 0.6 4.1 1.4 1.8 2.2-1.5 1.2-3.8-3-4-0.3-0.3 1.1 0.5 2.5-1.2 2.6-1.2-0.2 0.1-2.5 0.1-3.5 0.4-1.8-2.3-2.2-3.5-2.8-0.7 1.2 0.7 3.2 0.9 4.6 0.3 1 1.5 2.5-0.4 2.5-0.3 0-1.1 0.3-1-0.3z"/><path d="m48.7 117c-1.4-0.6 0.5-2.5 0.4-3.7 0.3-0.8 0.4-1.9-0.4-0.7-1.1 1-1.8 2.8-3.3 3.2-0.8-1.1-0.5-2.7-0.7-4 0-0.6-0.1-1.2-0.1-1.8-0.7 1.6-1.8 3.1-2 4.8-0.9-0.1-2.6-0.6-1.2-1.5 1-1.7 2.1-3.5 2.5-5.5 1.8-0.7 2.6 1.3 2.2 2.8 0.1 0.8 0.1 2.1 0.4 2.6 1-1.1 1.8-2.5 3.1-3.4 1.4-0.5 2.4 0.6 1.4 1.8-0.4 1.8-0.9 3.6-1 5.5-0.2 0.6-1 0-1.4-0.1z"/><path d="m68.2 119c0.2-1.6 2.3-3 1.7-4.5-0.7-1-2.4-1.8-2.7-2.6 1.6-1 2.8 0.3 3.9 1.4 0.9-0.9 0.2-2.9 2.1-2.6 1.1 0.6-0.6 2-0.8 2.9-0.8 1.4 1.7 2.4 2.5 3.5 1.8 1-1.8 1.6-2.1 0.3-0.6-1.1-2-1.7-2.3 0 0 1.1-0.3 1.9-1.6 1.8-0.2 0-0.5 0-0.6-0.2z"/><path d="m54.5 119c-2.3-0.4-4-3-2.9-5.2 0.7-1.9 2.9-2.5 4.7-2.3 1.5-0.7 2.5 2.6 0.7 1.5-1.5-1.2-4-0.2-4 1.8-0.4 1.7 1.3 3.3 2.9 3.1 0.7-0.1 1.4-0.1 2.1-0.2-0.6 1-1.6 1.8-2.9 1.4l-0.3-0.1z"/><path d="m57.9 119c0.5-2 0.7-4.1 0.7-6.1-0.1-1.3 2.6-1.1 2.6 0.4 0.5 0.8 0.9 3.1 1.7 2.9 0.6-1.3 1-2.7 1.5-4.1l2.1-0.2c0 2.2 0.4 4.3 0.9 6.4 1.1 1.2-2.7 1.3-2.1 0.1-0.2-0.9 0.3-3.5-0.6-3.3-0.7 1.3-0.8 3-1.8 4.2-1.4-0.7-1.8-2.9-2.7-4.2-0.7-1.8-0.5 1.7-0.7 2.5-0.2 0.8 0.8 2.3-0.8 1.9-0.3 0-1.2 0.1-0.8-0.4z"/></svg>