<svg xml:space="preserve" width="226" height="226" xmlns="http://www.w3.org/2000/svg"><defs><clipPath clipPathUnits="userSpaceOnUse" id="a"><path d="M0 1080h1920V0H0Z"/></clipPath></defs><g clip-path="url(#a)" transform="matrix(1.33333 0 0 -1.33333 -97 1415)"><path d="M0 0a82 82 0 0 1-83-83 82 82 0 0 1 83-82 82 82 0 0 1 83 82A82 82 0 0 1 0 0m0-168a84 84 0 0 0-85 85A84 84 0 0 0 0 2a84 84 0 0 0 85-85 84 84 0 0 0-85-85" style="fill:#000;fill-opacity:1;fill-rule:nonzero;stroke:none" transform="translate(158 1059)"/><path d="M0 0a72 72 0 0 1-72-72 72 72 0 0 1 72-72 72 72 0 0 1 72 72A72 72 0 0 1 0 0m0-147a74 74 0 0 0-74 75A74 74 0 0 0 0 2a74 74 0 0 0 74-74 74 74 0 0 0-74-75" style="fill:#000;fill-opacity:1;fill-rule:nonzero;stroke:none" transform="translate(158 1048)"/><path d="M0 0c-7 0-12 12-12 28s5 29 12 29 12-13 12-29c0-7-1-14-3-19a1 1 0 1 0-2 1c2 5 3 11 3 18 0 16-5 26-10 26s-10-10-10-26C-10 13-5 2 0 2c2 0 4 2 5 3a1 1 0 0 0 1-1C4 1 2 0 0 0" style="fill:#000;fill-opacity:1;fill-rule:nonzero;stroke:none" transform="translate(158 985)"/><path d="M0 0h-4c-6 1-12 4-19 7-10 6-18 14-20 20l1 5c1 2 3 3 7 3a1 1 0 1 0 0-2l-5-2-1-4c2-5 9-12 19-18C-8 1 4 1 7 5v3c-2 6-9 13-19 18-6 4-13 6-18 7a1 1 0 0 0 0 2c6-1 13-3 19-7C0 22 7 15 9 9V4C7 1 4 0 0 0" style="fill:#000;fill-opacity:1;fill-rule:nonzero;stroke:none" transform="translate(175 996)"/><path d="M0 0c-4 0-7 1-9 4v5c2 6 9 13 20 19 6 4 13 6 19 7a1 1 0 1 0 0-2c-5-1-12-3-18-7C2 21-5 14-7 8V5c1-2 4-3 7-3 5 0 13 2 22 7 10 6 17 13 19 18l-1 4-5 2a1 1 0 1 0 0 2c4 0 6-1 7-3l1-5c-2-6-10-14-20-20A58 58 0 0 0 0 0" style="fill:#000;fill-opacity:1;fill-rule:nonzero;stroke:none" transform="translate(141 996)"/><path d="M0 0a3 3 0 1 1 0-6 3 3 0 0 1 0 6m0-8A5 5 0 1 0 0 2 5 5 0 0 0 0-8" style="fill:#000;fill-opacity:1;fill-rule:nonzero;stroke:none" transform="translate(158 1017)"/><path d="M0 0h-1a1 1 0 0 1 0-2h2l1 1-1 1H0m0-5-3 1a4 4 0 0 0 0 5c2 2 4 2 6 0a4 4 0 0 0 0-5L0-5" style="fill:#000;fill-opacity:1;fill-rule:nonzero;stroke:none" transform="translate(173 1032)"/><path d="M0 0h-1l-1-2 1-1h2l1 1-1 2H0m0-5-3 1a4 4 0 0 0 0 5c2 2 4 2 6 0a4 4 0 0 0 0-5L0-5" style="fill:#000;fill-opacity:1;fill-rule:nonzero;stroke:none" transform="translate(165 994)"/><path d="M0 0h-1a1 1 0 0 1 0-2h2a1 1 0 0 1 0 2H0m0-5-3 1a4 4 0 0 0 0 5c2 2 4 2 6 0a4 4 0 0 0 0-5L0-5" style="fill:#000;fill-opacity:1;fill-rule:nonzero;stroke:none" transform="translate(142 1032)"/><path d="M0 0a4 4 0 0 1-4-4 4 4 0 1 1 4 4m0-11A7 7 0 0 0 0 2a7 7 0 0 0 0-13" style="fill:#000;fill-opacity:1;fill-rule:nonzero;stroke:none" transform="translate(147 956)"/><path d="M0 0h-24a1 1 0 0 0 0 2H0a1 1 0 0 0 0-2" style="fill:#000;fill-opacity:1;fill-rule:nonzero;stroke:none" transform="translate(170 950)"/><path d="M0 0a1 1 0 0 0 0 2l28 3a1 1 0 0 0 0-2L0 0" style="fill:#000;fill-opacity:1;fill-rule:nonzero;stroke:none" transform="translate(147 956)"/><path d="m0 0-28 3a1 1 0 0 0 1 2L0 2a1 1 0 0 0 0-2" style="fill:#000;fill-opacity:1;fill-rule:nonzero;stroke:none" transform="translate(174 941)"/><path d="M0 0a1 1 0 0 0-1 2c8 13 22 20 37 20 14 0 28-7 36-20a1 1 0 0 0-2-1c-7 12-20 19-34 19S9 13 1 1L0 0" style="fill:#000;fill-opacity:1;fill-rule:nonzero;stroke:none" transform="translate(122 911)"/><path d="m0 0-1 1c3 17 11 28 21 28 9 0 17-11 20-28a1 1 0 1 0-2 0c-3 15-10 26-18 26S4 16 1 1L0 0" style="fill:#000;fill-opacity:1;fill-rule:nonzero;stroke:none" transform="translate(138 904)"/><path d="m0 0-1 1v29a1 1 0 1 0 2 0V1L0 0" style="fill:#000;fill-opacity:1;fill-rule:nonzero;stroke:none" transform="translate(158 902)"/><path d="m0 0-3 4-2 2-1-2V3l-4-3-3 4-2 2-1-2V3l-4-3-3 4-1 2-2-2a1 1 0 1 0-2 0c1 3 3 4 4 4l3-4 1-2 2 2 3 4c1 0 3-1 4-4l1-2 2 2 3 4c1 0 3-1 4-4l1-2 1 2 2 1V4L0 0" style="fill:#000;fill-opacity:1;fill-rule:nonzero;stroke:none" transform="translate(120 973)"/><path d="M0 0a1 1 0 0 0 0 2l6 3a1 1 0 0 0 1-2L0 0" style="fill:#000;fill-opacity:1;fill-rule:nonzero;stroke:none" transform="translate(204 974)"/><path d="m0 0-1 1 1 9 3 3 3-1a1 1 0 1 0-2-2H3L2 9 1 1 0 0" style="fill:#000;fill-opacity:1;fill-rule:nonzero;stroke:none" transform="translate(207 975)"/><path d="m0 0-2 1a1 1 0 0 0 1 1h1l1 1 1 9a1 1 0 0 0 2-1L3 3c0-2-1-3-3-3" style="fill:#000;fill-opacity:1;fill-rule:nonzero;stroke:none" transform="translate(204 965)"/><path d="m0 0-1 1 1 9 3 3a1 1 0 0 0 0-3L2 9 1 1 0 0" style="fill:#000;fill-opacity:1;fill-rule:nonzero;stroke:none" transform="translate(217 975)"/><path d="M0 0a1 1 0 1 0 0 2l1 1 1 9a1 1 0 0 0 2-1L3 3c0-2-1-3-3-3" style="fill:#000;fill-opacity:1;fill-rule:nonzero;stroke:none" transform="translate(214 965)"/><path d="m0 0-1 1a60 60 0 0 1-58 43 59 59 0 0 1-57-43 1 1 0 1 0-2 0 63 63 0 0 0 59 45A62 62 0 0 0 1 1a1 1 0 0 0-1-1" style="fill:#000;fill-opacity:1;fill-rule:nonzero;stroke:none" transform="translate(216 931)"/><path d="M0 0a62 62 0 0 0-60 45 1 1 0 0 0 2 1A60 60 0 0 1 0 2a59 59 0 0 1 58 44 1 1 0 0 0 2-1A63 63 0 0 0 0 0" style="fill:#000;fill-opacity:1;fill-rule:nonzero;stroke:none" transform="translate(158 975)"/><path d="m0 0-1 1c-3 14-10 27-19 36-9 10-20 15-32 15s-23-5-32-15c-9-9-16-22-19-36a1 1 0 1 0-2 0c3 15 10 28 19 38 10 10 22 15 34 15s24-5 34-15C-9 29-2 16 1 1a1 1 0 0 0-1-1" style="fill:#000;fill-opacity:1;fill-rule:nonzero;stroke:none" transform="translate(210 923)"/><path d="M0 0c-12 0-24 5-34 15-9 9-16 23-19 37a1 1 0 0 0 2 1c3-14 10-27 19-36C-23 7-12 2 0 2s23 5 32 15c9 9 16 22 19 36a1 1 0 0 0 2-1c-3-14-10-28-19-37A47 47 0 0 0 0 0" style="fill:#000;fill-opacity:1;fill-rule:nonzero;stroke:none" transform="translate(158 975)"/></g></svg>