<svg width="94" height="128" viewBox="0 0 94 128" fill="none" xmlns="http://www.w3.org/2000/svg">
<path fill-rule="evenodd" clip-rule="evenodd" d="M17.2361 14.1437C17.8548 14.0553 18.0316 14.5414 18.7388 14.2763C19.7112 13.9669 20.0648 13.8785 20.4626 14.3204C24.8825 19.8012 28.6394 27.4034 22.9819 36.3315C22.8051 36.5967 20.2858 37.9227 21.9211 34.2984C25.3687 26.431 19.4018 18.8287 17.4128 16.2652C17.1477 15.9116 16.7941 15.6907 16.5731 15.2929C16.2637 14.4531 16.9267 14.1879 17.2361 14.1437ZM49.7443 1.21549C50.4736 1.21549 51.0482 1.7901 51.0482 2.51936C51.0482 2.78454 50.9598 3.02763 50.8272 3.22653V36.4641L60.33 35.9779C58.1642 32.3978 46.0537 19.4034 55.0703 1.989C57.1477 1.45858 58.6062 0.751411 62.0538 0C56.8383 2.96135 50.6504 19.5359 62.8051 34.7403C61.0813 31.1603 58.9156 27.4034 58.9156 23.1161C58.9156 15.7348 58.8272 16.1326 60.993 14.0553C64.0427 10.2984 67.7996 15.4254 68.33 18.6078C68.772 21.2155 69.3465 19.0497 72.8382 30.0111C73.9432 33.547 74.8272 34.6962 75.5344 35.2266L83.667 34.8288C84.0648 34.7846 84.4184 34.7846 84.8162 34.7403C84.33 37.5249 83.4902 40.3536 82.6062 43.1381C86.3631 44.2431 90.0759 45.3481 93.8327 46.4972C91.6228 53.3039 89.2803 58.1216 86.3631 62.2321C89.3244 67.0939 91.667 73.6354 90.5178 76.1547C89.7222 77.8343 87.5123 81.1934 85.6559 81.4586C82.2085 81.989 83.1366 83.9779 78.7609 84.2431C73.3245 93.3039 64.8383 98.0774 59.5786 102.365C59.5344 104.265 59.6228 106.298 59.8438 108.464C60.3742 113.326 61.7001 113.149 56.3079 116.332C56.5731 119.691 57.5455 122.608 59.1366 124.641L60.6394 128C58.783 127.116 56.9267 126.232 55.0261 125.304C53.9211 122.298 53.1256 119.779 52.6836 117.613C49.9432 118.188 47.3355 118.409 46.6725 120.796L45.0814 126.718L43.3134 122.608C43.4018 121.503 43.446 119.823 44.6394 118.895C47.9985 116.287 49.9874 115.403 52.1532 114.652C51.4018 107.58 54.5399 105.238 58.3852 101.392C58.5179 100.022 58.562 98.6962 58.562 97.4144C58.2968 80.9282 72.1753 79.4254 77.7002 80.4862C78.2747 80.6188 78.8051 80.7072 79.3355 80.7514C81.0151 78.3647 81.5012 77.0829 80.4405 69.1713C77.4792 72.221 73.9875 75.3591 69.877 79.2486C67.5344 81.4586 65.1918 81.3702 62.2747 84.1547C58.783 87.5138 55.9543 88.0884 50.783 91.4475C48.6173 92.8177 49.5896 92.6851 47.6007 91.0055C44.6394 88.3536 41.2802 83.4033 38.2747 76.9503V93.1271C41.4129 94.5857 45.0371 95.7348 49.1035 96.5746V114.033C46.8935 113.414 44.6836 112.796 42.5178 112.221C41.4571 109.923 40.0427 107.801 38.2747 106.254V119.249H36.0648V104.796C33.3687 103.425 30.0538 103.204 25.899 104.928C26.8272 106.033 27.5786 106.475 29.1697 107.536C30.2748 108.287 29.4792 109.923 28.109 109.215C16.8383 103.072 -1.63685 80.7072 9.98743 50.0774V39.7348L3.71118 40.0884L3.49019 38.895L9.98743 38.5415V33.5028C9.54544 32.9724 9.19189 32.221 9.05927 31.1161C9.05927 30.9393 9.01508 30.5415 9.05927 30.1437C7.7775 29.3039 7.60069 27.4476 6.27473 25.8564C5.70013 25.105 5.12557 24.0442 4.68359 23.3371C3.88799 22.1437 3.446 23.1161 3.0482 23.2486C1.58968 24 2.69465 24.5746 1.54544 25.0608C0.749892 25.326 0.175287 24.221 0.0426692 23.1602C-0.134082 22.0995 0.219474 21.4807 1.45706 21.0387C8.26367 18.5194 9.50126 17.768 10.9598 16.9724C11.9322 16.442 12.0206 16.7956 13.0372 16.0442C14.0537 15.2929 16.1753 16.663 14.4515 17.9448C8.66147 22.1437 9.58963 26.9171 9.63388 29.2597C9.89906 29.2155 10.2969 29.2597 10.783 29.6133C11.3134 29.8785 11.4018 29.9227 11.7996 30.2763C12.5952 30.9393 12.33 31.1161 13.7886 30.9834C14.8493 30.8951 15.0261 30.6741 15.6891 30.2763C16.3963 29.7459 16.3521 28.3315 17.0151 27.6244C17.5896 27.1381 17.2361 26.5636 17.5455 25.8564C17.7664 25.105 17.5455 24.8398 17.4571 24.3978V24.3094C17.4128 24.2652 17.4128 24.2652 17.3686 24.221C16.8383 23.4254 15.1145 23.7348 15.0703 25.2818C15.0703 25.8564 15.2913 25.768 15.2471 26.5636C15.1587 27.2266 14.4074 27.2266 13.8769 27.1824C12.993 27.0939 12.5068 27.3591 11.9764 27.5801C11.3134 28.1547 10.6504 27.4034 10.562 27.0939C9.58963 20.2431 18.8272 20.1989 18.2968 23.9558C18.2968 24 18.2968 24.0442 18.2526 24.0884C18.6062 24.2652 18.8714 24.5746 19.0482 24.8398C19.1366 25.1492 19.3134 25.768 19.225 25.9006C18.9156 26.1658 19.2692 26.2542 19.4018 26.3868C19.7554 26.9171 19.4018 28.9945 19.225 30.2321C18.8714 32.3536 18.9156 31.9116 18.2968 32.9282C17.5896 34.0774 17.8106 34.9171 17.0151 35.3149C16.4847 35.5801 16.1753 36.6409 15.9101 36.9503C14.4515 38.4089 14.8493 37.3481 14.5399 37.3923C14.3189 37.4365 14.4074 37.1713 14.4074 36.7735C14.4957 34.8288 13.5676 35.4917 13.1256 35.2266C12.772 35.0056 12.33 34.873 11.9322 34.6962V38.453L36.0648 37.2155V9.76796C34.5178 9.32597 33.4129 7.86745 33.4129 6.18787C33.4129 4.1105 35.0924 2.34255 37.1697 2.34255C39.2913 2.34255 40.9709 4.1105 40.9709 6.18787C40.9709 7.86745 39.8659 9.32597 38.2747 9.8122V37.0829L48.6173 36.5525V3.27077C48.4847 3.04972 48.4184 2.80663 48.4184 2.51936C48.4184 1.7901 49.0151 1.21549 49.7443 1.21549ZM31.9543 89.5469V58.6519C33.0592 63.337 34.4736 67.7569 36.0648 71.779V92.0663C34.562 91.3149 33.2361 90.4752 31.9543 89.5469ZM29.7443 44.8177V87.8674C28.2416 86.5857 26.8714 85.2155 25.678 83.8011V38.9393L29.4792 38.7625C29.4792 40.7956 29.5675 42.8288 29.7443 44.8177ZM23.4681 39.8232C17.3687 48.3536 14.2747 66.9614 23.4681 80.8398V39.8232ZM11.9322 39.6464V45.5691C12.8162 43.5801 13.8769 41.5912 15.1145 39.5138L11.9322 39.6464ZM80.5731 80.7956C82.4736 76.5525 83.7554 71.5138 83.9322 65.3702C83.9322 65.3702 83.9764 65.326 83.9764 65.2818C84.3742 68.5083 85.3466 71.8232 85.0372 74.6961C84.6394 78.3205 84.1532 80.7072 80.5731 80.7956ZM70.2305 35.4918C69.6118 30.6741 67.1808 24.5746 65.8548 21.8785C64.3963 18.8729 63.4681 17.326 62.6283 16C59.6228 11.315 58.5179 27.8895 68.6394 35.5801L70.2305 35.4918ZM55.5565 113.459C53.8327 110.674 55.9101 106.254 58.2084 103.691C57.9874 106.033 57.7664 108.332 57.7223 110.365C57.7223 112.044 57.3245 112.796 55.9101 113.326C55.7775 113.37 55.6449 113.414 55.5565 113.459ZM59.7554 100.022C59.7996 99.9337 59.8438 99.8895 59.9322 99.8011C71.0261 87.8232 74.5178 86.9835 76.8162 84.3315C75.2692 84.5525 73.9875 85.1713 71.5123 85.2155C65.5896 85.2597 60.7278 90.5194 59.7554 100.022ZM66.7388 50.2984C67.5344 49.547 67.225 49.4144 66.562 48.9724C65.6338 48.3094 65.5455 48.6188 65.236 48.7514C64.0427 49.326 63.4239 48.7956 63.2471 48.884C62.1421 49.5028 62.2306 48.884 61.214 48.884C54.7609 48.884 60.5068 48.7514 54.3631 48.6188C54.0979 48.3094 53.8327 48 53.5676 47.6464C53.7001 47.5138 53.7444 47.337 53.9211 47.2045C54.8493 47.1602 56.4405 46.9392 57.2803 47.0718C61.2581 47.558 60.3742 46.5415 62.7609 46.8067C65.6338 47.1602 64.3079 46.8508 65.3687 46.8508C66.8272 46.8508 66.9156 45.3039 65.8548 44.5525C64.8383 43.8011 64.8383 44.5525 64.4405 44.5083C63.1145 44.4199 63.3355 44.8619 63.0703 44.8177C62.8051 44.7735 62.4957 44.7293 62.0979 44.9061C60.3742 45.7459 62.1863 44.5083 59.4902 44.9503C56.7498 45.4365 56.7057 44.9061 53.0371 44.8619C51.7554 44.8619 51.5344 44.2873 51.7996 43.9779C52.0206 43.7128 50.8272 42.431 50.5178 42.7845C49.8991 43.4918 49.7222 41.8564 48.6615 43.8453C48.5731 44.0221 49.5896 44.8177 49.0151 45.3039C48.6615 45.6133 48.4847 46.6299 49.4571 46.6299C49.9874 46.6299 49.9432 46.1437 50.6947 47.2486C52.772 50.1657 51.667 49.7238 53.4791 52.5083C53.8769 53.5249 53.7444 52.8619 54.5841 53.3039C59.3134 55.7348 62.3189 54.7182 66.7388 50.2984ZM57.6338 73.8122C56.8825 72.442 57.5013 70.4973 58.8714 68.9061C63.2029 63.779 65.015 66.3868 68.551 60.4641C69.4792 58.8729 71.1587 59.9337 69.7885 61.7901C64.8383 68.5083 64.9709 64.3536 59.8438 70.6298C59.0924 71.558 59.1366 72.1768 59.1808 73.0608C59.2692 74.0773 58.6062 75.5801 57.6338 73.8122ZM45.8769 63.8674L42.562 61.8343L47.6449 51.1382C47.4239 50.0332 47.2913 48.884 47.1145 47.779C46.9377 46.7182 46.9377 46.0995 47.6007 44.6851L50.562 39.6023C55.2471 40.7956 60.33 41.989 64.8383 43.2265C67.888 44.1105 68.33 43.9337 68.772 44.8177C70.9377 48.7072 73.3245 52.5967 75.446 56.442C74.4736 59.8895 69.0814 72.3094 52.6393 87.116C49.5454 89.9006 45.9654 86.895 47.1145 83.8011C47.4239 82.9613 47.5565 82.3425 47.7333 81.4586C47.9101 80.663 48.7499 79.6022 47.1587 78.011C46.7609 77.6133 45.7885 76.0663 47.3797 75.9337C51.3134 75.7127 51.6228 75.4033 52.3742 74.5193C52.772 75.7569 52.6836 76.4641 53.9211 77.9227C54.7167 78.8508 55.1145 77.79 54.8935 77.3923C53.3024 74.5193 52.33 71.1161 51.3134 67.9779C50.8714 66.5636 49.0151 66.9171 49.6781 69.1713C49.7222 69.3039 50.4294 69.3039 50.341 69.8343C50.2526 70.4531 50.1642 70.6298 49.1919 70.1878C48.0869 70.0111 46.9377 69.7901 45.8769 69.6133C45.0814 69.8785 44.7278 69.7017 44.33 69.5249C44.3742 68.1105 44.9046 66.9614 45.2139 66.8288C49.2803 64.4862 48.6173 62.8951 47.9985 61.6575C47.7775 61.1713 47.2471 61.0387 46.7609 61.6575L45.8769 63.8674Z" fill="#212220"/>
</svg>
