<svg width="128" height="144.13" xmlns="http://www.w3.org/2000/svg"><path fill="none" opacity=".633" d="M-41.425-41.475h210.85V185.5h-210.85z"/><g fill-rule="evenodd"><path d="M15.856 45.9L4.052 40.66l2.064-4.67 11.805 5.24zm73.756-25.527l7.635-10.419 4.128 3.027L93.742 23.4zm19.823 20.856l11.805-5.24 2.064 4.67-11.804 5.24zM13.001 67.995H.085v-5.11H13zm115.084-5.11v5.11h-12.916v-5.11zm-44.61-.657a3.66 3.66 0 11-7.318 0 3.66 3.66 0 017.319 0zm-31.856 0a3.66 3.66 0 11-7.319 0 3.66 3.66 0 017.32 0zm30.571 17.29a26.131 26.131 0 01-18.535 7.678 26.13 26.13 0 01-18.535-7.678l2.98-2.98a21.93 21.93 0 0015.555 6.443c5.63 0 11.26-2.148 15.554-6.443zM63.704 25.575c-3.24 0-8.808.586-11.818 1.327l-6.184-7.596.442 8.686-16.8-8.449 9.04 12.45-11.89-2.959 8.568 8.608c-5.975 6.88-10.556 17.306-10.556 27.132 0 14.08 7.431 26.429 18.583 33.343v13.359h41.425V98.117a39.386 39.386 0 0018.39-33.343c0-21.645-17.555-39.2-39.198-39.2zM66.302-.081v12.916h-5.11V-.08z" fill="#f68712"/><path d="M70.637 144.056H56.985v-6.1h13.652zm13.887-21.832H43.1v-6.1h41.425zm0 10.74H43.1v-6.1h41.425z" fill="#00adef"/><path d="M80.762 46.056c-4.328-3.486-6.507-7.963-4.866-10 1.64-2.037 6.479-.862 10.807 2.624 4.329 3.486 6.508 7.964 4.867 10-1.64 2.037-6.48.862-10.808-2.624z" fill="#f9a653"/></g></svg>