<svg width="128" height="144.13" version="1.1" xmlns="http://www.w3.org/2000/svg"><g transform="matrix(1.25 0 0 -1.25 -5748.3 3138.9)"><rect transform="scale(1,-1)" x="4565.5" y="-2544.3" width="168.68" height="181.58" fill="none" opacity=".63333"/><g transform="matrix(.25 0 0 .25 4240.6 1592.8)" fill-rule="evenodd"><path d="m1482.9 3526.4-37.775 16.771 6.6059 14.944 37.775-16.77zm236.02 81.686 24.429 33.34 13.212-9.6859-24.428-33.34zm63.432-66.74 37.775 16.771 6.6068-14.945-37.775-16.77zm-308.59-85.649h-41.331v16.354h41.331zm368.27 16.354v-16.354h-41.331v16.354zm-142.75 2.1004c0-6.4668-5.2425-11.71-11.71-11.71-6.4668 0-11.71 5.2435-11.71 11.71 0 6.4669 5.2435 11.71 11.71 11.71 6.4674 0 11.71-5.2435 11.71-11.71zm-101.94 0c0-6.4668-5.2435-11.71-11.709-11.71-6.4678 0-11.71 5.2435-11.71 11.71 0 6.4669 5.2417 11.71 11.71 11.71 6.4659 0 11.709-5.2435 11.709-11.71zm97.827-55.33c-16.379-16.379-37.847-24.568-59.313-24.568-21.466 0-42.933 8.1891-59.312 24.568l9.5371 9.5375c13.744-13.744 31.76-20.617 49.775-20.617 18.016 0 36.03 6.873 49.774 20.617zm-59.156 172.62c-10.366 0-28.186-1.8769-37.819-4.2475l-19.787 24.306 1.4128-27.795-53.76 27.036 28.929-39.836-38.048 9.4655 27.418-27.545c-19.121-22.014-33.778-55.379-33.778-86.821 0-45.057 23.779-84.574 59.463-106.7v-42.746h132.56v42.746c35.342 22.192 58.846 61.899 58.846 106.7 0 69.263-56.173 125.44-125.43 125.44zm8.3141 82.097v-41.331h-16.354v41.331z" fill="#f68712"/><path d="m1658.2 3212.3h-43.688v19.521h43.688zm44.437 69.863h-132.56v19.521h132.56zm0-34.37h-132.56v19.521h132.56z" fill="#00adef"/><path d="m1690.6 3525.9c-13.852 11.155-20.825 25.483-15.574 32.001 5.249 6.5179 20.733 2.7584 34.584-8.3973 13.851-11.155 20.824-25.483 15.574-32.001-5.249-6.5179-20.734-2.7583-34.584 8.3974z" fill="#f9a653"/></g></g></svg>
