<svg width="128" height="144" xmlns="http://www.w3.org/2000/svg"><path fill="none" d="M-41-41h210v227H-41z"/><g fill-rule="evenodd"><path d="M16 46L4 41l2-5 12 5zm74-26l7-10 4 3-7 10zm19 21l12-5 2 5-11 5zM13 68H0v-5h13zm115-5v5h-13v-5zm-44-1a4 4 0 11-8 0 4 4 0 018 0zm-32 0a4 4 0 11-8 0 4 4 0 018 0zm30 17a26 26 0 01-18 8 26 26 0 01-19-7l3-3a22 22 0 0016 6 22 22 0 0015-6zM64 27a62 62 0 00-12 1l-6-8v9l-17-8 9 12-12-3 9 9a44 44 0 00-11 27 39 39 0 0019 33v13h42V98a39 39 0 0018-33 39 39 0 00-39-39zm2-26v13h-5V0z" fill="#f68712"/><path d="M71 144H57v-6h14zm14-22H43v-6h41zm0 11H43v-6h41z" fill="#00adef"/><path d="M81 46c-5-3-7-8-5-10 1-2 6-1 11 3 4 3 6 8 5 10-2 2-7 1-11-3z" fill="#f9a653"/></g></svg>