<svg width="289.2" height="246.8" viewBox="0 0 76.5 65.3" xmlns="http://www.w3.org/2000/svg"><path paint-order="fill markers stroke" fill="none" d="M-21.9-71h215.6V1.8H-22z"/><g paint-order="fill markers stroke"><path d="M22.8 2.8l-.3 10h0l-.8 15.1.7 15 11-.4L32 30.4H36l5.3 6.6 4 5.5L55.7 40 51 32.2 46.4 28l6.3-9.5-10.6-15zm.9.2a.8.8 0 01.8.8v0a.8.8 0 01-.8.8.8.8 0 01-.8-.8.8.8 0 01.8-.8zm17.9.5a.8.8 0 01.8.8v0a.8.8 0 01-.8.8.8.8 0 01-.8-.8.8.8 0 01.8-.8zm-2.4 8a.8.8 0 01.9.9v0a.8.8 0 01-.8.8.8.8 0 01-.9-.8.8.8 0 01.8-.8zm-15.8.6a.8.8 0 01.8.8v0a.8.8 0 01-.8.8.8.8 0 01-.8-.8.8.8 0 01.8-.8zm8.4.6a.8.8 0 01.8.8v0a.8.8 0 01-.8.8.8.8 0 01-.8-.8.8.8 0 01.8-.8zm7.2.6l4 4-1.8 4.5-8.5-1.1-.1-6.8h0zm5 2.9a.8.8 0 01.8.8v0a.8.8 0 01-.8.8.8.8 0 01-.8-.8.8.8 0 01.8-.8zm7.4 1.5a.8.8 0 01.8.8v0a.8.8 0 01-.8.8.8.8 0 01-.8-.8.8.8 0 01.8-.8zM32 20.5a.8.8 0 01.8.8v0a.8.8 0 01-.8.8.8.8 0 01-.8-.8.8.8 0 01.8-.8zm9.7 1.3a.8.8 0 01.8.8v0a.8.8 0 01-.8.8.8.8 0 01-.8-.8.8.8 0 01.8-.8zm3.8 5.2a.8.8 0 01.8.8v0a.8.8 0 01-.8.8.8.8 0 01-.8-.8.8.8 0 01.8-.8zm-22.7 0a.8.8 0 01.8.9v0a.8.8 0 01-.8.8.8.8 0 01-.8-.8.8.8 0 01.8-.8zm13.7 1.7a.8.8 0 01.8.8v0a.8.8 0 01-.8.8.8.8 0 01-.8-.8.8.8 0 01.8-.8zm-5.2.1a.8.8 0 01.8.8v0a.8.8 0 01-.8.8.8.8 0 01-.8-.8.8.8 0 01.8-.8zm19 3.2a.8.8 0 01.7.8v0a.8.8 0 01-.8.8.8.8 0 01-.8-.8.8.8 0 01.8-.8zm-8 3.7a.8.8 0 01.8.8v0a.8.8 0 01-.8.8.8.8 0 01-.8-.8.8.8 0 01.8-.8zm12 3a.8.8 0 01.8.8v0a.8.8 0 01-.9.8.8.8 0 01-.8-.8.8.8 0 01.8-.8zm-21.8 1.9a.8.8 0 01.8.8v0a.8.8 0 01-.8.8.8.8 0 01-.8-.8.8.8 0 01.8-.8zm13.7 0a.8.8 0 01.8.9v0a.8.8 0 01-.8.8.8.8 0 01-.8-.8.8.8 0 01.8-.8zm-22.8.6a.8.8 0 01.8.8v0a.8.8 0 01-.8.8.8.8 0 01-.8-.8.8.8 0 01.8-.8z" stroke="#000" stroke-linecap="round" stroke-linejoin="round" stroke-width=".3"/><path d="M36 .8a.8.8 0 01-.8.8.8.8 0 01-.8-.8.8.8 0 01.8-.8.8.8 0 01.8.8h-.8zm-33.6 16a.8.8 0 01-.8.7.8.8 0 01-.8-.8.8.8 0 01.8-.8.8.8 0 01.8.8h-.8zM10 7.8a.8.8 0 01-.8.8.8.8 0 01-.8-.8.8.8 0 01.8-.8.8.8 0 01.8.8H9zm50.3 1.3a.8.8 0 01-.8.8.8.8 0 01-.8-.8.8.8 0 01.8-.8.8.8 0 01.8.8h-.8zm13 11.5a.8.8 0 01-.9.8.8.8 0 01-.8-.8.8.8 0 01.8-.8.8.8 0 01.8.8h-.8zm3.3 16.1a.8.8 0 01-.8.8.8.8 0 01-.8-.8.8.8 0 01.8-.8.8.8 0 01.8.8h-.8zm-7.7 10.8a.8.8 0 01-.8.8.8.8 0 01-.8-.8.8.8 0 01.8-.8.8.8 0 01.8.8H68zm-15.4 8a.8.8 0 01-.8.8.8.8 0 01-.8-.8.8.8 0 01.8-.8.8.8 0 01.8.8h-.8zm-2.8 8.9a.8.8 0 01-.8.8.8.8 0 01-.8-.8.8.8 0 01.8-.8.8.8 0 01.8.8h-.8zm-9.3-13.2a.8.8 0 01-.8.8.8.8 0 01-.8-.8.8.8 0 01.8-.8.8.8 0 01.8.8h-.8zm-.9-8.4a.8.8 0 01-.8.8.8.8 0 01-.8-.8.8.8 0 01.8-.8.8.8 0 01.8.8h-.8zm-26.8-3.3a.8.8 0 01-.8.8.8.8 0 01-.8-.8.8.8 0 01.8-.8.8.8 0 01.8.8h-.8zm-12-13.2a.8.8 0 01-.8.8.8.8 0 01-.8-.8.8.8 0 01.8-.8.8.8 0 01.8.8H.8zM57.4 46a.8.8 0 01-.8.8.8.8 0 01-.8-.8.8.8 0 01.8-.8.8.8 0 01.8.8h-.8zm5.8-9a.8.8 0 01-.8.9.8.8 0 01-.8-.8.8.8 0 01.8-.8.8.8 0 01.8.8h-.8zm-1.6-17.8a.8.8 0 01-.8.8.8.8 0 01-.8-.8.8.8 0 01.8-.8.8.8 0 01.8.8h-.8zm-53 8.4a.8.8 0 01-.8.9.8.8 0 01-.8-.8.8.8 0 01.8-.9.8.8 0 01.8.8h-.8zm4.6-9a.8.8 0 01-.8.8.8.8 0 01-.8-.8.8.8 0 01.8-.8.8.8 0 01.8.8h-.8zm50 9.1a.8.8 0 01-.7.8.8.8 0 01-.8-.8.8.8 0 01.8-.8.8.8 0 01.8.8h-.8z"/></g><g fill="none" stroke-linecap="round"><g stroke="#000"><path d="M61.3 20.5l.9 5.8" stroke-width=".5"/><path d="M57.9 8.5l-15-4m28.4 15.2L60.5 10m14.7 25.4l-2.6-13.5m-4 24.4l6.1-8.6m-8 10.4l-12.9 7m-3.7 8.1l2-6.2m-3.3 6.3l-7.4-10.8m-1.2-2.6l-.6-5.6m-1.3-2l-4.9-.4m-19.3-1.6l8 2m-10.5-3.9l-10-10.9M.4 25l.6-6.7M8.2 9l-5.6 6.6m20-11.4L10.3 7.4M34 1.1l-9.1 2m15.3.3l-3.7-2" stroke-width=".8"/><path d="M21.8 29L14 38.6m-4.5-11l12.2.3m33.5 11.4l5.8-1.7M41.2 37l-7.9 3.8m11.8 1l-4.2.7m4.7-.2l-4 7.6m9.5 5.4l-9-3.9m5.1-9.4l9 2.7m-14 5.8l13.1-4m2.8-.3l8.4.7M52 19.5l8.7 7.3m-14.2 1l14.4.3M2.6 17.5l8.3 1.1M9.7 9.1l2.4 8.2m-.4 2.6l-3.3 6.4m-6.4.2l4.3.7m2.2 1.6l4 9.3m10-24.5L13.5 18m-2.9-9.7l11.7 4.3m-9 6.9l8.2 7.4M58.2 10l-6 7.6m7.2-6.9l1.3 7m1.4 1.4l8.6 1.4m-18-2.1l6.5.5m4.7 8.1l7.4-5.3m-7.4 7l10.4 7.5m-22.7-2.9l9.2 3.1m1.7-7.1l-.1 6.3m1.1 2.6l3.8 8m-9.7-1.4l4-6.4M64 37l9.7.1M53.1 54.3l3.2-6.9" stroke-width=".5"/></g><path d="M25 12.8l5.2.3M44 28.2l-6.2 1.2m9 10.5l2.6-5.7m1.3-.2l2.8 4.2m-.8 1.7l-5.4 1.3M24.6 14l6 6m-7.3-5.7l-.6 12m0 3.1l.5 10.8m7.4-9.2L24 40.6m.9 1.3l5.6-.3m1.5-1.8l-.7-8.8m-7.2-3l5.6 1.3m.8-7L24 27.1M24.7 5l6.1 7.1m-7.3-7l.1 6.3m9.1.8L40 5.8m.1-1.4L25.3 4M42 6.1l1.8 9.5m-2.7-9.7l-1.5 5m-1.8 1.9l-4.7.4M32 14.8l.1 5m-.2 2.7l-.3 5.7m1.2-5.7l3 5.7m-.5 1.6l-2.7-.1m7.6-7.2l-6.8-.8m9.2-5.6l-2.4-2.4m2.6-8.2L50.8 17m-8 5l7.2-3m.2-1.2l-5-.6m-1.7 1l-1.4 3.3m-1.4 2.3l-3.5 4.5m5.1-4.5l2.2 3m6.2-7l-4.6 7m-9 3.8l4.2 5m3.8-6.4l-2.4 6m3.6-6.3l3 3m-.7 1.5L43.5 36m-.5 1.6l2.3 2.7" stroke="#fff" stroke-width=".5"/><path d="M33 40.6L32 30.4" stroke="#000" stroke-width=".5"/></g></svg>