<svg width="289" height="247" viewBox="0 0 77 65" xmlns="http://www.w3.org/2000/svg"><path paint-order="fill markers stroke" fill="none" d="M-21-71h216V2H-21z"/><g paint-order="fill markers stroke"><path d="M23 3v10l-1 15v15l11-1-1-12h4l5 7 4 5 11-2-5-8-5-4 7-10L42 3zm1 0a1 1 0 010 1 1 1 0 010 1 1 1 0 01-1-1 1 1 0 011-1zm18 1a1 1 0 010 1 1 1 0 01-1-1 1 1 0 011 0zm-3 8a1 1 0 011 0 1 1 0 01-1 1 1 1 0 01-1-1 1 1 0 011 0zm-16 0a1 1 0 011 1 1 1 0 01-1 1 1 1 0 010-1 1 1 0 010-1zm9 1a1 1 0 011 0 1 1 0 01-1 1 1 1 0 01-1-1 1 1 0 011 0zm7 0l4 4-2 5-8-1v-7zm5 3a1 1 0 011 1 1 1 0 01-1 1 1 1 0 01-1-1 1 1 0 011-1zm7 2a1 1 0 011 0 1 1 0 01-1 1 1 1 0 010-1zm-19 2a1 1 0 011 1 1 1 0 01-1 1 1 1 0 01-1-1 1 1 0 011-1zm10 2a1 1 0 010 1 1 1 0 01-1 0 1 1 0 011-1zm3 5a1 1 0 011 1 1 1 0 01-1 1 1 1 0 010-1 1 1 0 010-1zm-22 0a1 1 0 010 1 1 1 0 010 1 1 1 0 01-1-1 1 1 0 011-1zm13 2a1 1 0 011 0 1 1 0 01-1 1 1 1 0 010-1zm-5 0a1 1 0 011 1 1 1 0 01-1 0 1 1 0 01-1 0 1 1 0 011-1zm19 3a1 1 0 011 1 1 1 0 01-1 1 1 1 0 01-1-1 1 1 0 011-1zm-8 4a1 1 0 011 1 1 1 0 01-1 0 1 1 0 01-1 0 1 1 0 011-1zm12 3a1 1 0 011 0 1 1 0 01-1 1 1 1 0 01-1-1 1 1 0 011 0zm-22 2a1 1 0 011 0 1 1 0 01-1 1 1 1 0 010-1zm14 0a1 1 0 011 0 1 1 0 01-1 1 1 1 0 01-1-1 1 1 0 011 0zm-23 0a1 1 0 011 1 1 1 0 01-1 1 1 1 0 01-1-1 1 1 0 011-1zM36 1a1 1 0 01-1 1 1 1 0 01-1-1 1 1 0 011-1 1 1 0 011 1h-1zM2 17a1 1 0 010 1 1 1 0 01-1-1 1 1 0 011-1 1 1 0 010 1zM10 8a1 1 0 01-1 1 1 1 0 01-1-1 1 1 0 011-1 1 1 0 011 1H9zM60 9a1 1 0 01-1 1 1 1 0 010-1 1 1 0 010-1 1 1 0 011 1h-1zM73 21a1 1 0 01-1 0 1 1 0 010-1 1 1 0 011 1h-1zM77 37a1 1 0 01-1 1 1 1 0 01-1-1 1 1 0 011-1 1 1 0 011 1h-1zM69 48a1 1 0 01-1 0 1 1 0 01-1 0 1 1 0 011-1 1 1 0 011 1h-1zM53 56a1 1 0 01-1 0 1 1 0 011-1 1 1 0 010 1zM51 64a1 1 0 01-1 1 1 1 0 01-1 0 1 1 0 011-1 1 1 0 011 0h-1zM41 51a1 1 0 01-1 1 1 1 0 010-1 1 1 0 010-1 1 1 0 011 1h-1z"/><path d="M40 43a1 1 0 010 1 1 1 0 01-1-1 1 1 0 011-1 1 1 0 010 1zM14 40a1 1 0 01-1 0 1 1 0 01-1 0 1 1 0 011-1 1 1 0 011 1h-1zM2 26a1 1 0 01-1 1 1 1 0 01-1-1 1 1 0 011 0 1 1 0 011 0H1zM57 46a1 1 0 010 1 1 1 0 01-1-1 1 1 0 011-1 1 1 0 010 1zM63 37a1 1 0 01-1 1 1 1 0 010-1 1 1 0 010-1 1 1 0 011 1h-1zM62 19a1 1 0 01-1 1 1 1 0 01-1-1 1 1 0 011-1 1 1 0 011 1h-1zM9 28a1 1 0 01-1 0 1 1 0 01-1 0 1 1 0 011-1 1 1 0 011 1H8zM13 19a1 1 0 01-1 0 1 1 0 010-1 1 1 0 011 1h-1zM63 28a1 1 0 01-1 1 1 1 0 010-1 1 1 0 010-1 1 1 0 011 1h-1z"/></g><g fill="none" stroke-linecap="round"><g stroke="#000"><path d="M61 21l1 5M58 9L43 5M71 20L61 10M75 35l-2-13M69 46l6-8M67 48l-13 7M50 63l2-6M49 63l-8-11M40 50v-6M38 42h-5M14 40l8 2M12 38L2 28M0 25l1-7M8 9l-5 7M23 4L10 7M34 1l-9 2M40 3l-3-2"/><g><path d="M22 29l-8 10M9 28h13M55 39l6-1M41 37l-8 4M45 42l-4 1M46 42l-4 8M51 55l-9-4M47 42l9 3M42 50l13-3M58 46l8 1M52 19l9 8M47 28h14M3 18l8 1M10 9l2 8M12 20l-4 6M2 26l4 1M8 29l5 9M22 14l-8 4M11 8l11 4M13 19l9 8M58 10l-6 8M59 11l2 7M62 19l9 2M53 18l6 1M64 27l7-5M64 29l10 7M52 33l9 3M62 29v7M64 38l3 8M58 45l4-7M64 37h10M53 54l3-7"/></g></g><g stroke="#fff"><path d="M25 13h5M44 28l-6 1M47 40l2-6M51 34l2 4M53 40l-6 1M25 14l6 6M23 14v12M23 29v11M31 31l-7 10M25 42h6M32 40l-1-9M24 28l6 1M31 22l-7 5M25 5l6 7M23 5l1 6M33 12l7-6M40 4H25M42 6l2 10M41 6l-1 5M38 13h-5M32 15v5M32 23l-1 5M33 23l3 5M35 30h-2M40 22h-7M43 16l-3-2M43 6l8 11M43 22l7-3M50 18l-5-1M44 18l-2 3M41 24l-4 4M42 24l2 3M51 20l-5 7M37 31l4 5M45 29l-2 6M46 29l3 3M49 33l-6 3M43 38l2 2"/></g><path d="M33 41l-1-11" stroke="#000"/></g></svg>