<svg width="76.511mm" height="65.31mm" version="1.1" viewBox="0 0 76.511 65.31" xmlns="http://www.w3.org/2000/svg"><g transform="translate(-20.686 -147.93)"><g transform="translate(-674.69 -646.8)"><rect x="673.51" y="723.82" width="215.55" height="72.563" fill-opacity="0" style="paint-order:fill markers stroke"/><g transform="translate(-164.01 -110.19)"><g><path d="m882.18 907.74-0.2827 9.9751h-5e-4l-0.8527 15.148 0.7664 15.016 11.04-0.47956-1.4961-12.1 4.1724 8e-3 5.2441 6.6146 4.0979 5.4519 10.142-2.3079-4.5781-7.9018-4.6813-4.315 6.3582-9.5214-10.588-15.006zm0.8868 0.14779a0.80151 0.80151 0 0 1 0.8025 0.80047v1e-3a0.80151 0.80151 0 0 1-0.801 0.8015 0.80151 0.80151 0 0 1-0.802-0.80047 0.80151 0.80151 0 0 1 0.8005-0.80253zm17.907 0.53485a0.80151 0.80151 0 0 1 0.8025 0.79995v2e-3a0.80151 0.80151 0 0 1-0.801 0.8015 0.80151 0.80151 0 0 1-0.802-0.80098 0.80151 0.80151 0 0 1 0.8005-0.80202zm-2.3384 8.0848a0.80151 0.80151 0 0 1 0.8026 0.80047v1e-3a0.80151 0.80151 0 0 1-0.801 0.8015 0.80151 0.80151 0 0 1-0.802-0.80098 0.80151 0.80151 0 0 1 0.8004-0.80202zm-15.836 0.46767a0.80151 0.80151 0 0 1 0.8025 0.80047v1e-3a0.80151 0.80151 0 0 1-0.8015 0.8015 0.80151 0.80151 0 0 1-0.8015-0.80099 0.80151 0.80151 0 0 1 0.8005-0.80201zm8.4191 0.60152a0.80151 0.80151 0 0 1 0.8026 0.79995v2e-3a0.80151 0.80151 0 0 1-0.8015 0.80149 0.80151 0.80151 0 0 1-0.8015-0.80098 0.80151 0.80151 0 0 1 0.8004-0.80202zm7.1949 0.64905 4.0019 3.9688-1.8206 4.5496-8.5488-1.1529-0.076-6.8202 0.023 3e-3zm4.9656 2.8923a0.80151 0.80151 0 0 1 0.8026 0.79995v2e-3a0.80151 0.80151 0 0 1-0.801 0.8015 0.80151 0.80151 0 0 1-0.802-0.80098 0.80151 0.80151 0 0 1 0.8004-0.80202zm7.4171 1.4697a0.80151 0.80151 0 0 1 0.8021 0.80047v1e-3a0.80151 0.80151 0 0 1-0.801 0.8015 0.80151 0.80151 0 0 1-0.802-0.80047 0.80151 0.80151 0 0 1 0.8009-0.80253zm-19.511 2.8066a0.80151 0.80151 0 0 1 0.8025 0.79995v2e-3a0.80151 0.80151 0 0 1-0.801 0.80151 0.80151 0.80151 0 0 1-0.802-0.80099 0.80151 0.80151 0 0 1 0.8005-0.80202zm9.6883 1.3364a0.80151 0.80151 0 0 1 0.8025 0.79995v2e-3a0.80151 0.80151 0 0 1-0.801 0.8015 0.80151 0.80151 0 0 1-0.802-0.80098 0.80151 0.80151 0 0 1 0.8005-0.80202zm3.8091 5.2116a0.80151 0.80151 0 0 1 0.802 0.80046v1e-3a0.80151 0.80151 0 0 1-0.801 0.8015 0.80151 0.80151 0 0 1-0.802-0.80098 0.80151 0.80151 0 0 1 0.801-0.80202zm-22.718 0.0672a0.80151 0.80151 0 0 1 0.8025 0.79995v2e-3a0.80151 0.80151 0 0 1-0.8015 0.8015 0.80151 0.80151 0 0 1-0.8015-0.80099 0.80151 0.80151 0 0 1 0.8005-0.80202zm13.764 1.6035a0.80151 0.80151 0 0 1 0.8025 0.79995v2e-3a0.80151 0.80151 0 0 1-0.801 0.80151 0.80151 0.80151 0 0 1-0.802-0.80099 0.80151 0.80151 0 0 1 0.8005-0.80202zm-5.2116 0.13332a0.80151 0.80151 0 0 1 0.8025 0.80047v1e-3a0.80151 0.80151 0 0 1-0.8015 0.8015 0.80151 0.80151 0 0 1-0.8015-0.80047 0.80151 0.80151 0 0 1 0.8005-0.80254zm18.91 3.1404a0.80151 0.80151 0 0 1 0.8025 0.80046v1e-3a0.80151 0.80151 0 0 1-0.8015 0.80151 0.80151 0.80151 0 0 1-0.8015-0.80047 0.80151 0.80151 0 0 1 0.8005-0.80254zm-7.9515 3.7419a0.80151 0.80151 0 0 1 0.8025 0.80047v1e-3a0.80151 0.80151 0 0 1-0.8009 0.8015 0.80151 0.80151 0 0 1-0.8021-0.80098 0.80151 0.80151 0 0 1 0.8005-0.80202zm11.96 2.9456a0.80151 0.80151 0 0 1 0.8025 0.79996v2e-3a0.80151 0.80151 0 0 1-0.8015 0.80151 0.80151 0.80151 0 0 1-0.8015-0.80099 0.80151 0.80151 0 0 1 0.8005-0.80202zm-21.716 1.9322a0.80151 0.80151 0 0 1 0.8021 0.80047v1e-3a0.80151 0.80151 0 0 1-0.801 0.8015 0.80151 0.80151 0 0 1-0.802-0.80098 0.80151 0.80151 0 0 1 0.8009-0.80202zm13.631 0.0667a0.80151 0.80151 0 0 1 0.802 0.80047v1e-3a0.80151 0.80151 0 0 1-0.8009 0.80149 0.80151 0.80151 0 0 1-0.8021-0.80046 0.80151 0.80151 0 0 1 0.801-0.80254zm-22.785 0.53485a0.80151 0.80151 0 0 1 0.8025 0.79995v2e-3a0.80151 0.80151 0 0 1-0.801 0.8015 0.80151 0.80151 0 0 1-0.802-0.80098 0.80151 0.80151 0 0 1 0.8005-0.80202z" stroke="#000" stroke-linecap="round" stroke-linejoin="round" stroke-width=".265" style="paint-order:fill markers stroke"/><path d="m895.43 905.71a0.80151 0.80151 0 0 1-0.8012 0.80151 0.80151 0.80151 0 0 1-0.80182-0.80088 0.80151 0.80151 0 0 1 0.80057-0.80214 0.80151 0.80151 0 0 1 0.80245 0.80025l-0.80151 1e-3z" style="paint-order:fill markers stroke"/><path d="m861.83 921.63a0.80151 0.80151 0 0 1-0.80119 0.80151 0.80151 0.80151 0 0 1-0.80182-0.80088 0.80151 0.80151 0 0 1 0.80056-0.80214 0.80151 0.80151 0 0 1 0.80245 0.80025l-0.8015 1e-3z" style="paint-order:fill markers stroke"/><path d="m869.28 912.82a0.80151 0.80151 0 0 1-0.80119 0.80151 0.80151 0.80151 0 0 1-0.80183-0.80088 0.80151 0.80151 0 0 1 0.80057-0.80214 0.80151 0.80151 0 0 1 0.80245 0.80025l-0.80151 1e-3z" style="paint-order:fill markers stroke"/><path d="m919.55 914.14a0.80151 0.80151 0 0 1-0.80119 0.80151 0.80151 0.80151 0 0 1-0.80182-0.80088 0.80151 0.80151 0 0 1 0.80056-0.80214 0.80151 0.80151 0 0 1 0.80245 0.80025l-0.80151 1e-3z" style="paint-order:fill markers stroke"/><path d="m932.5 925.58a0.80151 0.80151 0 0 1-0.80119 0.80151 0.80151 0.80151 0 0 1-0.80183-0.80088 0.80151 0.80151 0 0 1 0.80057-0.80214 0.80151 0.80151 0 0 1 0.80245 0.80025l-0.80151 1e-3z" style="paint-order:fill markers stroke"/><path d="m935.9 941.73a0.80151 0.80151 0 0 1-0.8012 0.8015 0.80151 0.80151 0 0 1-0.80182-0.80088 0.80151 0.80151 0 0 1 0.80056-0.80213 0.80151 0.80151 0 0 1 0.80245 0.80025l-0.8015 1e-3z" style="paint-order:fill markers stroke"/><path d="m928.15 952.51a0.80151 0.80151 0 0 1-0.80119 0.80151 0.80151 0.80151 0 0 1-0.80183-0.80088 0.80151 0.80151 0 0 1 0.80057-0.80214 0.80151 0.80151 0 0 1 0.80245 0.80025l-0.80151 1e-3z" style="paint-order:fill markers stroke"/><path d="m912.75 960.54a0.80151 0.80151 0 0 1-0.80119 0.80151 0.80151 0.80151 0 0 1-0.80182-0.80088 0.80151 0.80151 0 0 1 0.80056-0.80214 0.80151 0.80151 0 0 1 0.80245 0.80025l-0.8015 1e-3z" style="paint-order:fill markers stroke"/><path d="m910.01 969.42a0.80151 0.80151 0 0 1-0.8012 0.80151 0.80151 0.80151 0 0 1-0.80182-0.80088 0.80151 0.80151 0 0 1 0.80056-0.80214 0.80151 0.80151 0 0 1 0.80246 0.80025l-0.80151 1e-3z" style="paint-order:fill markers stroke"/><path d="m900.66 956.19a0.80151 0.80151 0 0 1-0.80119 0.8015 0.80151 0.80151 0 0 1-0.80183-0.80087 0.80151 0.80151 0 0 1 0.80057-0.80214 0.80151 0.80151 0 0 1 0.80245 0.80025l-0.80151 1e-3z" style="paint-order:fill markers stroke"/><path d="m899.8 947.78a0.80151 0.80151 0 0 1-0.8012 0.80151 0.80151 0.80151 0 0 1-0.80182-0.80088 0.80151 0.80151 0 0 1 0.80056-0.80214 0.80151 0.80151 0 0 1 0.80245 0.80025l-0.8015 1e-3z" style="paint-order:fill markers stroke"/><path d="m872.97 944.48a0.80151 0.80151 0 0 1-0.80119 0.80151 0.80151 0.80151 0 0 1-0.80183-0.80088 0.80151 0.80151 0 0 1 0.80057-0.80214 0.80151 0.80151 0 0 1 0.80245 0.80025l-0.80151 1e-3z" style="paint-order:fill markers stroke"/><path d="m860.99 931.33a0.80151 0.80151 0 0 1-0.8012 0.80151 0.80151 0.80151 0 0 1-0.80182-0.80088 0.80151 0.80151 0 0 1 0.80056-0.80214 0.80151 0.80151 0 0 1 0.80246 0.80025l-0.80151 1e-3z" style="paint-order:fill markers stroke"/><path d="m916.82 950.95a0.80151 0.80151 0 0 1-0.80119 0.80151 0.80151 0.80151 0 0 1-0.80183-0.80088 0.80151 0.80151 0 0 1 0.80057-0.80213 0.80151 0.80151 0 0 1 0.80245 0.80025l-0.80151 1e-3z" style="paint-order:fill markers stroke"/><path d="m922.57 941.99a0.80151 0.80151 0 0 1-0.8012 0.80151 0.80151 0.80151 0 0 1-0.80182-0.80088 0.80151 0.80151 0 0 1 0.80056-0.80213 0.80151 0.80151 0 0 1 0.80246 0.80024l-0.80151 1e-3z" style="paint-order:fill markers stroke"/><path d="m920.97 924.09a0.80151 0.80151 0 0 1-0.80119 0.80151 0.80151 0.80151 0 0 1-0.80183-0.80088 0.80151 0.80151 0 0 1 0.80057-0.80214 0.80151 0.80151 0 0 1 0.80245 0.80025l-0.80151 1e-3z" style="paint-order:fill markers stroke"/><path d="m867.98 932.57a0.80151 0.80151 0 0 1-0.8012 0.80151 0.80151 0.80151 0 0 1-0.80182-0.80088 0.80151 0.80151 0 0 1 0.80056-0.80214 0.80151 0.80151 0 0 1 0.80245 0.80025l-0.8015 1e-3z" style="paint-order:fill markers stroke"/><path d="m872.59 923.49a0.80151 0.80151 0 0 1-0.8012 0.80151 0.80151 0.80151 0 0 1-0.80182-0.80088 0.80151 0.80151 0 0 1 0.80056-0.80214 0.80151 0.80151 0 0 1 0.80246 0.80025l-0.80151 1e-3z" style="paint-order:fill markers stroke"/><path d="m922.64 932.64a0.80151 0.80151 0 0 1-0.80119 0.80151 0.80151 0.80151 0 0 1-0.80183-0.80088 0.80151 0.80151 0 0 1 0.80057-0.80214 0.80151 0.80151 0 0 1 0.80245 0.80025l-0.80151 1e-3z" style="paint-order:fill markers stroke"/></g><g fill="none" stroke-linecap="round"><g stroke="#000"><path d="m920.7 925.46 0.8686 5.7463" stroke-width=".5"/><g stroke-width=".8"><path d="m917.26 913.43-14.9-3.9422"/><path d="m930.69 924.59-10.758-9.6217"/><path d="m934.63 940.29-2.6727-13.43"/><path d="m928.08 951.25 6.0136-8.6194"/><path d="m926.08 953.05-12.896 6.949"/><path d="m909.51 968.15 2.0045-6.214"/><path d="m908.17 968.22-7.4167-10.824"/><path d="m899.62 954.86-0.6014-5.6795"/><path d="m897.68 947.31-4.8777-0.46772"/><path d="m873.49 945.23 8.0849 1.989"/><path d="m870.95 943.36-9.9557-10.891"/><path d="m859.8 929.8 0.6028-6.6367"/><path d="m867.55 913.96-5.5202 6.5378"/><path d="m881.91 909.09-12.094 3.274"/><path d="m893.35 906.06-9.0953 2.0228"/><path d="m899.55 908.35-3.6449-2.0009"/></g><g stroke-width=".5"><path d="m881.14 933.94-7.7842 9.6217"/><path d="m868.85 932.54 12.195 0.3223"/><path d="m914.62 944.23 5.8131-1.6704"/><path d="m900.6 941.93-7.8948 3.7853"/><path d="m904.5 946.77-4.2487 0.6522"/><path d="m904.96 947.22-4.0058 7.6123"/><path d="m910.44 960.2-8.8867-3.8754"/><path d="m906.59 946.92 9.0248 2.6584"/><path d="m901.58 955.41 13.103-3.8964"/><path d="m917.49 951.11 8.3521 0.73499"/><path d="m911.48 924.39 8.7531 7.3499"/><path d="m906 932.74 14.432 0.26725"/><path d="m862.03 922.45 8.2186 1.0691"/><path d="m869.05 914.06 2.4055 8.1183"/><path d="m871.12 924.82-3.3409 6.4479"/><path d="m861.39 931.39 4.2989 0.76383"/><path d="m867.85 933.74 4.1198 9.3079"/><path d="m881.81 918.57-8.7865 4.2429"/><path d="m870.12 913.16 11.693 4.2095"/><path d="m872.86 924.32 8.1518 7.4167"/><path d="m917.61 914.91-6.0268 7.5812"/><path d="m918.83 915.63 1.2695 7.0158"/><path d="m921.44 923.99 8.6862 1.47"/><path d="m912.08 923.32 6.4813 0.53454"/><path d="m923.31 931.94 7.4167-5.2786"/><path d="m923.31 933.67 10.424 7.4835"/><path d="m911.01 938.22 9.2208 3.1404"/><path d="m921.84 934.21-0.067 6.2808"/><path d="m922.91 943.1 3.7417 7.9513"/><path d="m917.03 949.71 4.0091-6.4145"/><path d="m923.31 941.89 9.6885 0.13363"/><path d="m912.46 959.23 3.2068-6.8878"/></g></g><g stroke="#fff" stroke-width=".5"><path d="m884.47 917.77 5.0781 0.26727"/><path d="m903.38 933.14-6.1472 1.2027"/><path d="m906.12 944.84 2.6727-5.6795"/><path d="m910.13 938.89 2.7395 4.2763"/><path d="m912.13 944.84-5.4122 1.2695"/><path d="m883.94 918.91 6.0804 6.0804"/><path d="m882.67 919.24-0.6013 11.893"/><path d="m882.07 934.35 0.5345 10.758"/><path d="m889.95 935.88-6.4144 9.6217"/><path d="m884.34 946.84 5.6795-0.33408"/><path d="m891.49 944.7-0.735-8.7531"/><path d="m883.54 933.01 5.6794 1.2027"/><path d="m889.95 927.13-6.5481 4.9445"/><path d="m884.06 909.92 6.1587 7.1218"/><path d="m882.87 910.11 0.1336 6.2336"/><path d="m892.12 917.14 7.2554-6.4455"/><path d="m899.51 909.36-14.833-0.4009"/><path d="m901.51 911.03 1.7373 9.4881"/><path d="m900.58 910.83-1.5368 5.0113"/><path d="m897.3 917.71-4.6692 0.4009"/><path d="m891.24 919.74 0.1809 5.0504"/><path d="m891.22 927.46-0.3341 5.6127"/><path d="m892.09 927.46 3.0102 5.6127"/><path d="m894.63 934.68-2.7395-0.0668"/><path d="m899.51 927.4-6.8154-0.80181"/><path d="m901.91 921.05-2.4723-2.4722"/><path d="m902.11 910.43 8.0849 11.493"/><path d="m902.18 927 7.2163-3.0068"/><path d="m909.6 922.72-5.0113-0.60136"/><path d="m902.91 923.19-1.4032 3.2072"/><path d="m900.11 928.73-3.4745 4.4768"/><path d="m901.71 928.73 2.1382 2.94"/><path d="m910.13 924.72-4.6772 7.0158"/><path d="m896.57 935.48 4.0758 5.0113"/><path d="m904.45 934.15-2.3386 5.8799"/><path d="m905.65 933.81 3.0068 2.94"/><path d="m907.99 938.29-5.1449 2.6059"/><path d="m902.37 942.54 2.2833 2.6923"/></g><path d="m892.36 945.53-0.85499-10.223" stroke="#000" stroke-width=".5"/></g></g></g></g></svg>
