<svg width="257.29" height="247" version="1.1" viewBox="0 0 257.29 247" xmlns="http://www.w3.org/2000/svg"><path d="m83.273 246.21c-2.051-1.3037-3.0959-5.493-2.0899-8.3787 1.0365-2.9734 5.0463-4.8277 10.439-4.8277h3.3508v-37h-47v-138h138v138h-46v36.72l5.6032 0.5783c6.6733 0.68875 9.3968 2.776 9.3968 7.2015 0 5.7277-1.9994 6.5-16.829 6.5h-13.171v-51h-15v51l-12.75-0.0153c-7.0125-8e-3 -13.29-0.35863-13.95-0.77823zm48.318-78.316c10.153-3.136 28.158-13.982 30.693-18.489 1.1726-2.0848-0.0922-5.1973-2.4111-5.9333-2.1959-0.69694-4.8841 0.79272-11.9 6.5943-18.831 15.572-43.516 14.573-64.619-2.6163-5.9322-4.8318-7.4172-5.267-9.8095-2.8748-3.2251 3.2251-1.197 6.1694 8.8234 12.809 18.207 12.065 33.57 15.345 49.223 10.51zm-34.962-55.442c2.8136-2.146 3.3444-3.1881 3.3444-6.5657 0-5.0764-1.2778-7.4585-5.046-9.4072-2.3992-1.2407-3.7709-1.3333-6.973-0.47109-4.7024 1.2662-7.1358 4.4728-7.281 9.5945-0.0828 2.9196 0.54084 4.2264 3.114 6.5256 4.0872 3.6519 8.3378 3.7592 12.842 0.32396zm54 0c2.8136-2.146 3.3444-3.1881 3.3444-6.5657 0-5.0764-1.2778-7.4585-5.046-9.4072-2.3992-1.2407-3.7709-1.3333-6.973-0.47109-4.7024 1.2662-7.1358 4.4728-7.281 9.5945-0.0828 2.9196 0.54084 4.2264 3.114 6.5256 4.0872 3.6519 8.3378 3.7592 12.842 0.32396zm39.344 13.541v-67.503l55-54.973v67.621c0 58.041-0.20669 67.792-1.4589 68.832-1.2331 1.0234-3.1275-2.1307-12.239-20.378-5.9292-11.874-11.348-21.588-12.041-21.588-0.69344 0-1.2608 0.43822-1.2608 0.97382s9.0371 19.098 20.082 41.25c18.321 36.743 19.989 40.518 19.02 43.038-1.3938 3.624-4.7998 5.1835-8.3626 3.8289-2.2948-0.87247-5.8032-7.226-23.21-42.032-15.419-30.83-20.87-40.865-21.971-40.443-1.1332 0.43485 1.4056 6.3066 11.232 25.977l12.696 25.415-37.486 37.486zm-186 52.316c-2.462-0.87992-4.0018-3.4951-3.9723-6.7472 0.0276-3.0488 1.3631-4.6638 39.722-48.035l4.25-4.8053v20.833l-15.059 17.474c-19.032 22.084-20.112 23.006-24.941 21.28zm74.5-151.31 26.986-27h137l-53.972 54h-137z" fill="#09bae7"/></svg>
