<svg width="257.29" height="247" xmlns="http://www.w3.org/2000/svg"><path d="M83.273 246.21c-2.051-1.304-3.096-5.493-2.09-8.379 1.037-2.973 5.046-4.827 10.44-4.827h3.35v-37h-47v-138h138v138h-46v36.72l5.603.578c6.673.689 9.397 2.776 9.397 7.201 0 5.728-2 6.5-16.83 6.5h-13.17v-51h-15v51l-12.75-.015c-7.013-.008-13.29-.359-13.95-.778zm48.318-78.316c10.153-3.136 28.158-13.982 30.693-18.489 1.173-2.085-.092-5.197-2.411-5.933-2.196-.697-4.884.792-11.9 6.594-18.831 15.572-43.516 14.573-64.62-2.616-5.931-4.832-7.416-5.267-9.809-2.875-3.225 3.225-1.197 6.17 8.824 12.809 18.207 12.065 33.57 15.345 49.223 10.51zm-34.962-55.442c2.814-2.146 3.344-3.188 3.344-6.566 0-5.076-1.277-7.458-5.046-9.407-2.399-1.24-3.77-1.333-6.973-.471-4.702 1.266-7.135 4.473-7.28 9.595-.083 2.92.54 4.226 3.113 6.525 4.088 3.652 8.338 3.76 12.842.324zm54 0c2.814-2.146 3.344-3.188 3.344-6.566 0-5.076-1.277-7.458-5.046-9.407-2.399-1.24-3.77-1.333-6.973-.471-4.702 1.266-7.135 4.473-7.28 9.595-.083 2.92.54 4.226 3.113 6.525 4.088 3.652 8.338 3.76 12.842.324zm39.344 13.541V58.49l55-54.973v67.621c0 58.041-.207 67.792-1.459 68.832-1.233 1.023-3.127-2.13-12.239-20.378-5.93-11.874-11.348-21.588-12.04-21.588-.694 0-1.262.438-1.262.974s9.037 19.098 20.082 41.25c18.321 36.743 19.99 40.518 19.02 43.038-1.393 3.624-4.8 5.183-8.362 3.829-2.295-.873-5.803-7.226-23.21-42.032-15.42-30.83-20.87-40.865-21.971-40.443-1.133.435 1.405 6.306 11.232 25.977l12.696 25.415-37.486 37.486zm-186 52.316c-2.462-.88-4.002-3.495-3.972-6.747.027-3.049 1.363-4.664 39.722-48.035l4.25-4.805v20.833l-15.06 17.474c-19.031 22.084-20.111 23.006-24.94 21.28zm74.5-151.31l26.986-27h137l-53.972 54h-137z" fill="#09bae7"/></svg>