<svg width="257" height="247" xmlns="http://www.w3.org/2000/svg"><path d="M83 246c-2-1-3-5-2-8s5-5 11-5h3v-37H48V58h138v138h-46v37h6c6 1 9 3 9 7 0 6-2 7-17 7h-13v-51h-15v51H97l-14-1zm49-78c10-3 28-14 30-19 1-2 0-5-2-6-2 0-5 1-12 7-19 16-44 15-65-3-6-4-7-5-10-3-3 4-1 7 9 13 19 12 34 16 50 11zm-35-56c2-2 3-3 3-6 0-5-1-8-5-10h-7c-5 1-7 4-7 10 0 3 0 4 3 6 4 4 8 4 13 0zm54 0c2-2 3-3 3-6 0-5-1-8-5-10h-7c-5 1-7 4-7 10 0 3 0 4 3 6 4 4 8 4 13 0zm39 14V59l55-55v67l-1 69c-2 1-4-2-13-20l-12-22-1 1 20 41c18 37 20 41 19 43-1 4-5 5-8 4s-6-7-24-42c-15-31-20-41-21-40-2 0 1 6 11 26l13 25-38 38zM4 178c-2-1-4-3-4-6s1-5 40-48l4-5v21l-15 17c-19 22-20 23-25 21zM79 27l27-27h137l-54 54H52z" fill="#09bae7"/></svg>