<svg width="600" height="600" version="1.1" viewBox="0 0 600 600" xmlns="http://www.w3.org/2000/svg"><path d="m244.3 429.21c-2.051-1.3037-3.0959-5.493-2.0899-8.3787 1.0365-2.9734 5.0463-4.8277 10.439-4.8277h3.3508v-37h-47v-138h138v138h-46v36.72l5.6032 0.5783c6.6733 0.68875 9.3968 2.776 9.3968 7.2015 0 5.7277-1.9994 6.5-16.829 6.5h-13.171v-51h-15v51l-12.75-0.0153c-7.0125-8e-3 -13.29-0.35863-13.95-0.77823zm48.318-78.316c10.153-3.136 28.158-13.982 30.693-18.489 1.1726-2.0848-0.0922-5.1973-2.4111-5.9333-2.1959-0.69694-4.8841 0.79272-11.9 6.5943-18.831 15.572-43.516 14.573-64.619-2.6163-5.9322-4.8318-7.4172-5.267-9.8095-2.8748-3.2251 3.2251-1.197 6.1694 8.8234 12.809 18.207 12.065 33.57 15.345 49.223 10.51zm-34.962-55.442c2.8136-2.146 3.3444-3.1881 3.3444-6.5657 0-5.0764-1.2778-7.4585-5.046-9.4072-2.3992-1.2407-3.7709-1.3333-6.973-0.47109-4.7024 1.2662-7.1358 4.4728-7.281 9.5945-0.0828 2.9196 0.54084 4.2264 3.114 6.5256 4.0872 3.6519 8.3378 3.7592 12.842 0.32396zm54 0c2.8136-2.146 3.3444-3.1881 3.3444-6.5657 0-5.0764-1.2778-7.4585-5.046-9.4072-2.3992-1.2407-3.7709-1.3333-6.973-0.47109-4.7024 1.2662-7.1358 4.4728-7.281 9.5945-0.0828 2.9196 0.54084 4.2264 3.114 6.5256 4.0872 3.6519 8.3378 3.7592 12.842 0.32396zm39.344 13.541v-67.503l55-54.973v67.621c0 58.041-0.20669 67.792-1.4589 68.832-1.2331 1.0234-3.1275-2.1307-12.239-20.378-5.9292-11.874-11.348-21.588-12.041-21.588-0.69344 0-1.2608 0.43822-1.2608 0.97382s9.0371 19.098 20.082 41.25c18.321 36.743 19.989 40.518 19.02 43.038-1.3938 3.624-4.7998 5.1835-8.3626 3.8289-2.2948-0.87247-5.8032-7.226-23.21-42.032-15.419-30.83-20.87-40.865-21.971-40.443-1.1332 0.43485 1.4056 6.3066 11.232 25.977l12.696 25.415-37.486 37.486zm-186 52.316c-2.462-0.87992-4.0018-3.4951-3.9723-6.7472 0.0276-3.0488 1.3631-4.6638 39.722-48.035l4.25-4.8053v20.833l-15.059 17.474c-19.032 22.084-20.112 23.006-24.941 21.28zm74.5-151.31 26.986-27h137l-53.972 54h-137z" fill="#09bae7"/><path d="m277.82 597.2c-54.934-3.4131-113.44-25.037-158-58.398-63.9-47.839-104.07-114.98-117.05-195.64-2.4053-14.948-2.6562-19.086-2.6681-44-0.0118-24.834 0.24356-29.148 2.6343-44.5 12.354-79.326 53.831-148.32 117.58-195.58 38.935-28.866 84.054-47.389 135.29-55.539 14.541-2.3131 19.051-2.5804 43.714-2.5916 24.758-0.01122 29.178 0.24875 44.326 2.6073 132.38 20.611 231.82 119.6 252.25 251.11 2.3562 15.163 2.6434 19.863 2.6582 43.5 0.0147 23.44-0.28094 28.475-2.5606 43.608-13.492 89.56-63.596 165.84-139.41 212.26-52.459 32.116-114.71 47.15-178.76 43.17zm65.326-7.6014c68.844-10.328 129.04-42.362 175.03-93.144 39.19-43.271 62.919-93.636 72.692-154.29 2.3951-14.865 2.659-19.127 2.6623-43 3e-3 -23.7-0.27549-28.296-2.6379-43.5-7.8587-50.575-26.345-94.587-56.338-134.13-46.861-61.783-112.82-100.61-191.91-112.99-15.088-2.3605-19.563-2.6301-43.326-2.6099-23.568 0.02008-28.294 0.30823-42.714 2.6042-51.111 8.1382-94.825 26.026-133.29 54.541-62.936 46.661-103.37 114.04-115.58 192.58-2.3624 15.204-2.6412 19.8-2.6379 43.5 3e-3 23.873 0.26718 28.135 2.6623 43 9.7483 60.5 33.962 111.82 72.812 154.32 45.907 50.224 105.09 81.973 173.09 92.855 27.522 4.4044 61.19 4.5012 89.479 0.25728zm-62.826-47.254c0-3.8314 1.3456-5.8806 18.326-27.909 10.079-13.076 20.059-26.189 22.178-29.141l3.8522-5.3675-47.136 1.4729-0.36015-4.4671-0.36016-4.4671 22.412-0.65186c12.326-0.35852 25.714-0.65185 29.75-0.65185h7.3384v4.5391c0 4.3516-0.8158 5.6168-19.75 30.628-10.862 14.349-20.613 27.209-21.668 28.577l-1.9179 2.4876 41.336-1.4761v9.2441l-6.75 3e-3c-3.7125 1e-3 -15.862 0.29787-27 0.65872l-20.25 0.6561v-4.135zm-56.075-21.882-2.5753-0.39973 3.3253-9.544c1.8289-5.2492 3.3253-9.887 3.3253-10.306s-4.4288-2.041-9.8418-3.6042l-9.8418-2.8422 1.4935-3.8022c0.82144-2.0912 2.0214-3.8022 2.6667-3.8022 0.64523 0 4.4808 1.125 8.5235 2.5s7.8618 2.5 8.487 2.5c0.62521 0 2.431-4.05 4.013-9s3.0769-9 3.3221-9c1.7418 0 8.1779 2.4783 8.1779 3.149 0 0.45781-1.4934 4.8006-3.3187 9.6506l-3.3187 8.8182 9.8187 2.8355c5.4003 1.5595 9.8187 3.1534 9.8187 3.5419 0 2.1485-2.3729 7.0048-3.4227 7.0048-0.67487 0-4.5347-1.125-8.5773-2.5s-7.8618-2.5-8.487-2.5c-0.62521 0-2.431 4.05-4.013 9-3.0698 9.6058-2.7808 9.3552-9.5753 8.3006zm157.08-13.301c-1.7849-4.95-3.6466-9-4.1371-9-0.49051 0-4.7978 1.575-9.5717 3.5s-8.9741 3.5-9.3338 3.5c-0.35969 0-1.3211-1.6984-2.1365-3.7741l-1.4825-3.7741 9.3308-3.8384c5.132-2.1111 9.3308-4.2335 9.3308-4.7165 0-0.48299-1.5067-4.8816-3.3482-9.7747l-3.3482-8.8965 3.7142-1.1128c2.0428-0.61204 3.9378-1.1128 4.2111-1.1128s2.1953 4.05 4.271 9 4.1317 9 4.5688 9 4.4561-1.35 8.9312-3 8.4835-3 8.9077-3c0.78918 0 3.0923 4.42 3.0923 5.9346 0 0.46224-4.189 2.5637-9.309 4.6698l-9.309 3.8294 3.309 8.7924c1.8199 4.8358 3.309 9.1942 3.309 9.6853 0 0.80111-5.204 3.0885-7.0266 3.0885-0.40048 0-2.1885-4.05-3.9734-9zm67.934-15.521-2.5206-2.5206 31.087-30.925-15.379-15.396-14.448 13.681c-7.9464 7.5247-14.812 13.681-15.256 13.681s-2.0818-1.2204-3.6387-2.7119l-2.8306-2.7119 29.532-29.582-17.476-17.476-31.962 31.915-6.7788-6.5702 19.755-18.932c10.865-10.412 19.977-18.932 20.249-18.932 0.27123 0 11.877 11.728 25.791 26.061l25.298 26.061-18.419 18.439c-10.13 10.141-18.883 18.439-19.452 18.439s-2.1671-1.1343-3.5534-2.5206zm-308.98-3.7557-3.5433-3.2237 12.378-37.25c6.808-20.488 12.678-37.243 13.043-37.235 0.36578 8e-3 2.4366 1.5136 4.6019 3.3454l3.9368 3.3306-7.8941 21.77 22.74 19.858 21.522-10.619 3.6296 2.7685c1.9963 1.5226 3.6296 2.8928 3.6296 3.0448 0 0.52541-68.642 37.486-69.57 37.46-0.5117-0.0145-2.5249-1.477-4.4737-3.25zm24.793-16.683c7.2875-3.9741 13.25-7.3604 13.25-7.5251 0-0.74343-18.111-16.739-18.505-16.344-0.24435 0.24434-3.102 7.3931-6.3503 15.886-3.2483 8.493-6.2671 16.319-6.7084 17.39-0.77355 1.8786-0.69714 1.8745 2.1308-0.11666 1.6132-1.1358 8.8957-5.3167 16.183-9.2908zm-46.279-56.541c-2.5484-4.675-4.8888-8.5-5.2009-8.5s-4.359 2.0667-8.993 4.5927c-4.634 2.526-8.6887 4.3294-9.0105 4.0076s-1.3382-1.826-2.2586-3.3427l-1.6735-2.7576 8.8326-5.3044c4.8579-2.9174 8.8318-5.6174 8.8307-6-1e-3 -0.3826-2.1994-4.3494-4.8853-8.8151l-4.8834-8.1195 3.4193-1.6305c1.8806-0.8968 3.5862-1.6305 3.7903-1.6305s2.4816 3.6 5.0611 8 4.9155 8 5.1911 8 4.3078-2.075 8.9604-4.6112c4.6527-2.5362 8.6022-4.4487 8.7768-4.25 0.56612 0.64432 3.5717 6.7471 3.5717 7.2523 0 0.26972-3.9979 2.6396-8.8842 5.2664l-8.8842 4.776 4.9168 7.2864c6.5497 9.7063 6.5459 9.688 2.5448 12.161-1.8861 1.1656-3.69 2.1194-4.0088 2.1194-0.31878 0-2.6646-3.825-5.213-8.5zm361.9-7.7117-3.1277-1.0075 3.8777-8.9404c2.1327-4.9172 3.8777-9.3173 3.8777-9.7779s-4.2265-2.5756-9.3923-4.7l-9.3923-3.8625 1.9126-3.75c1.0519-2.0625 2.3136-3.75 2.8037-3.75s4.5708 1.575 9.0683 3.5 8.5162 3.5 8.9304 3.5 2.4576-3.825 4.5407-8.5 4.1581-8.5 4.6111-8.5c1.5189 0 5.9178 2.3121 5.9178 3.1105 0 0.43421-1.7225 4.7609-3.8278 9.6149l-3.8278 8.8254 9.3278 3.8371c5.1303 2.1104 9.3278 4.1693 9.3278 4.5754 0 1.7394-2.2654 7.0367-3.0092 7.0367-0.44746 0-4.4933-1.575-8.9908-3.5s-8.5292-3.5-8.9593-3.5-2.4865 3.825-4.5696 8.5-4.2788 8.4541-4.8793 8.3979c-0.60049-0.0562-2.4993-0.55546-4.2195-1.1096zm-426.58-60.538-0.29569-6.75 28-12.08c15.4-6.6442 29.281-12.755 30.847-13.579 3.094-1.6284 3.6684-1.4648-49.049-13.972l-14.202-3.3693-0.59608-13 33.5-3.1827c18.425-1.7505 35.188-3.213 37.25-3.25l3.75-0.0673v9.6478l-62.274 4.7899 64.774 16.171 0.2977 4.5218 0.2977 4.5218-29.165 12.924c-16.041 7.108-28.465 13.064-27.609 13.235s12.96-0.61618 26.897-1.75c13.938-1.1338 27.016-2.0615 29.061-2.0615 3.715 0 3.7198 5e-3 3.7198 4.2904v4.2904l-35.25 2.7449c-19.388 1.5097-36.242 2.729-37.454 2.7096-2.0214-0.0324-2.2288-0.59548-2.5-6.7853zm429.02-11.781c-9.8908-6.481-13.143-18.586-9.3364-34.75 1.583-6.7219 2.3633-8.1882 6.5968-12.396 5.1974-5.1659 9.3052-7.128 15.172-7.247l3.75-0.0761v4.5c0 3.7358-0.31891 4.5-1.8779 4.5-3.5451 0-9.005 2.98-11.533 6.2947-3.2805 4.301-5.1754 11.848-4.7507 18.921 0.28379 4.7255 0.89853 6.2844 3.8279 9.7067 2.8387 3.3164 4.1376 4.0771 6.9616 4.0771 7.4966 0 11.741-4.8377 14.864-16.942 4.7243-18.309 13.386-28.117 23.417-26.516 6.9621 1.1111 7.9658 1.4818 11.058 4.0834 5.8384 4.9126 7.506 9.6232 7.3498 20.76-0.12288 8.7568-0.46617 10.527-3.0062 15.5-2.2724 4.4493-3.9936 6.2887-8.2947 8.8643-3.0981 1.8553-6.7977 3.25-8.6208 3.25-3.0583 0-3.2085-0.18777-3.5463-4.4352-0.34059-4.2824-0.24418-4.4556 2.7979-5.0263 3.8514-0.72252 7.934-3.8121 9.7478-7.3768 0.74489-1.4639 1.6656-5.6425 2.0461-9.2856 0.7887-7.5522-0.7043-12.547-4.5573-15.245-2.4213-1.696-8.4879-2.1689-10.601-0.8264-1.8343 1.1656-7.7348 14.785-9.763 22.535-2.1834 8.3428-6.8295 15.566-11.519 17.909-5.3747 2.685-15.492 2.2944-20.183-0.77922zm1.5124-97.92-7.8749-23.451 3.84-0.64876c2.112-0.35682 4.0161-0.47269 4.2313-0.25749 0.52446 0.52445 15.474 43.836 15.474 44.831 0 0.72166-5.3384 2.9765-7.0469 2.9765-0.41165 0-4.2922-10.553-8.6234-23.451zm-381.91 17.253-3.0792-0.99359 8.4027-22.645c4.6215-12.454 8.5645-22.806 8.7622-23.004 0.55447-0.55447 7.4903 1.9064 7.5179 2.6674 0.0805 2.2189-16.513 45.154-17.419 45.07-0.6082-0.0562-2.4914-0.5492-4.185-1.0957zm403.42-24.239-7.5502-23.437 3.9197-0.66223c2.1558-0.36422 4.0528-0.50505 4.2155-0.31294 0.59546 0.70306 14.569 43.386 14.569 44.502 0 0.97883-4.9186 3.3473-6.9513 3.3473-0.3591 0-4.0505-10.547-8.2031-23.437zm-424.42 16.239-3.0792-0.99359 8.4027-22.645c4.6215-12.454 8.5645-22.806 8.7622-23.004 0.55447-0.55447 7.4903 1.9064 7.5179 2.6674 0.0805 2.2189-16.513 45.154-17.419 45.07-0.60819-0.0562-2.4914-0.5492-4.185-1.0957zm366.96-42.883-3.0805-3.0805 21.85-21.029c12.017-11.566 21.85-21.169 21.85-21.341 0-0.26885-8.2789 3.4898-52.284 23.737l-6.7836 3.1212-6.6528-6.4481 11.961-22.69c6.5787-12.479 13.552-25.84 15.495-29.69l3.5341-7-45.356 43.809-6.6831-6.4775 53.93-51.146 10.122 10.122-11.815 22.337c-12.122 22.918-18.469 35.4-18.469 36.325 0 0.28814 3.9375-1.4335 8.75-3.8259s18.34-8.5452 30.06-13.673l21.31-9.323 9.0288 9.0288-26.498 25.162c-14.574 13.839-26.654 25.162-26.844 25.162-0.19014 0-1.7319-1.3862-3.4262-3.0805zm-301.38-15.29c-1.925-0.74395-4.9524-2.2363-6.7276-3.3163l-3.2276-1.9637 3.2994-3.1979c3.2629-3.1626 3.3398-3.1811 6.9455-1.6745 5.1244 2.1411 9.8043 1.8989 15.966-0.8263 5.943-2.6283 10.102-6.987 12.904-13.524 2.3664-5.5205 1.6489-9.977-2.1998-13.664-4.3769-4.1933-9.1539-3.2003-22.002 4.5736-16.162 9.7791-22.226 11.551-29.349 8.5745-4.0503-1.6923-7.1282-4.8383-9.7931-10.01-1.6351-3.173-1.881-4.9273-1.3201-9.4169 1.0212-8.1733 6.9714-16.222 17.252-23.337 7.1623-4.9568 17.917-5.1393 23.752-0.40304l3 2.4351-6.1656 6.2487-3.556-1.6957c-4.9594-2.365-9.4808-1.268-15.732 3.8168-8.6118 7.0053-10.944 12.757-8.0278 19.798 2.7765 6.7031 12.762 4.6502 26.481-5.4439 8.2493-6.0699 10.734-7.0098 18.654-7.0567 7.0647-0.0418 7.95 0.19011 11.5 3.0127 5.7058 4.5366 8.6051 10.715 8.0037 17.056-0.76829 8.1-4.1274 14.56-11.006 21.165-3.3885 3.2538-7.7135 6.7189-9.6112 7.7002-4.4574 2.305-14.485 2.9107-19.041 1.1501zm241.75-40.4-4.75-1.58v-24.483l-28.352-9.4491-3.0738 3.4252c-1.6906 1.8838-5.1258 5.8485-7.6338 8.8104l-4.5599 5.3853-10.159-3.653 26.463-29.342c14.555-16.138 26.842-29.342 27.306-29.342s2.8323 0.85247 5.263 1.8944l4.4194 1.8944 0.66164 29.356c0.85582 37.971 0.83688 48.877-0.0847 48.76-0.4125-0.0526-2.8875-0.8066-5.5-1.6756zm-4.3712-51.862c0.37853-9.6982 0.51146-17.81 0.29541-18.026-0.21606-0.21605-2.8874 2.8814-5.9362 6.8831-3.0489 4.0018-8.217 10.19-11.485 13.751l-5.9414 6.4748 10.594 4.2132c5.8268 2.3173 10.862 4.2411 11.189 4.2752 0.32741 0.0341 0.90501-7.8729 1.2835-17.571zm-189.51 18.364-13.44-34.269 24.535-9.2485c13.494-5.0867 24.837-9.2405 25.207-9.2308 0.788 0.0207 3.2126 6.966 2.6339 7.5447-0.21615 0.21615-9.401 3.9048-20.411 8.1969l-20.018 7.8039 4.3861 9.4777c2.4124 5.2127 4.5686 9.6602 4.7916 9.8831s8.544-2.5857 18.491-6.2416c9.9471-3.6559 18.471-6.6471 18.942-6.6471 0.8825 0 3.4922 6.8527 2.853 7.4918-0.19681 0.19682-8.699 3.6672-18.894 7.7119l-18.536 7.3541 4.2447 10.471c2.3346 5.7591 4.4137 10.911 4.6203 11.45 0.20659 0.53828 9.6991-2.4992 21.094-6.75 11.395-4.2508 21.114-7.7287 21.596-7.7287 0.89734 0 3.5221 6.8437 2.8736 7.4923-0.52702 0.52701-49.966 19.508-50.811 19.508-0.39562 0-6.7673-15.421-14.159-34.269zm73.13 7.7648c0-4.4012 0.50116-5.1064 21.864-30.764 12.025-14.443 22.6-26.871 23.5-27.618 0.9-0.74693 1.6364-1.753 1.6364-2.2356 0-0.48265-9.45-0.87755-21-0.87755h-21v-8h53v4.5673c0 4.4483-0.48542 5.158-18.638 27.25-10.251 12.476-20.923 25.045-23.716 27.933l-5.0779 5.25h48.432v9h-59z"/></svg>
