<svg width="216.36" height="283.33" version="1.1" viewBox="0 0 216.36 283.33" xmlns="http://www.w3.org/2000/svg"><g transform="translate(-2.666 -3.334)" stroke-width="1.3333"><path d="m165.32 211.93c-4.0389-0.46569-9.5306-1.5686-12.204-2.4508-4.5136-1.4896-4.8946-2.0332-5.3386-7.6158-0.4368-5.492-0.24629-5.9445 2.2039-5.2349 14.417 4.1756 19.462 4.9591 28.283 4.393 15.331-0.98386 24.47-8.7334 24.637-20.892 0.14051-10.181-4.4553-15.268-26.906-29.777-19.817-12.808-25.333-20.317-25.333-34.486 0-17.051 12.088-28.892 30.87-30.24 9.166-0.65799 22.045 0.43625 24.623 2.092 0.80856 0.51935 1.8877 3.778 2.3981 7.2414l0.928 6.2972-5.0763-2.2094c-3.4253-1.4909-9.0098-2.238-17.171-2.2972-11.234-0.08149-12.441 0.17575-16.958 3.615-3.2866 2.5022-5.3336 5.4485-6.3133 9.0868-3.0206 11.218 3.0553 19.595 24.479 33.752 8.1882 5.4108 16.807 11.852 19.153 14.315 11.946 12.538 11.307 30.314-1.5539 43.204-9.4884 9.51-23.055 13.243-40.722 11.206z"/><path d="m120.33 3.334c-2.4744 0-9.7909 10.184-41.668 58l-38.666 58 18.129 0.3711c14.773 0.30298 17.998 0.71323 17.422 2.2148-0.3889 1.0135-16.947 26.191-36.795 55.949s-36.088 54.412-36.088 54.785c0 0.37341 25.801 0.67968 57.334 0.67968h57.334v53.332h6.666v-53.332h95.025v-5.334h-95.01l-0.34179-112.33-0.33985-112.33z"/></g></svg>
