<svg width="131.66" height="131.77" xmlns="http://www.w3.org/2000/svg"><g fill="#96b3f0"><path d="M48.45 118.46l83.22-83.16-17.99 4.74zM25.39 25.38l88.24 5.11L13.11 13.21zM90.56 47.61l-50.39 66.21-4.89 17.95z"/></g><g fill="#4e7ee9"><path d="M4.87 18.13l30.41 113.64 4.89-17.95zM45.25 89.96L13.11 13.21 0 0zM113.68 40.04L97 44.59 32.01 32.1l-.87-2.59z"/></g><g fill="#cbd9f7"><path d="M113.63 30.49L0 0l13.11 13.21zM44.57 97.1L4.87 18.13l35.3 95.69zM97 44.59l-48.55 73.87 65.23-78.42zM31.14 29.51l82.54 10.53 17.99-4.74zM40.17 113.82l4.4-16.72 43.31-50.03 2.68.54zM13.11 13.21l12.28 12.17L47.06 87.9l-1.81 2.06z"/></g></svg>