<svg width="131.66" height="131.77" enable-background="new 0 0 841.89 595.28" version="1.1" viewBox="0 0 131.66 131.77" xmlns="http://www.w3.org/2000/svg"><g transform="translate(-295.8 -232.01)"><g fill="#96b3f0"><polygon points="344.25 350.47 427.47 267.31 409.48 272.05"/><polygon points="321.19 257.39 409.43 262.5 308.91 245.22"/><polygon points="386.36 279.62 335.97 345.83 331.08 363.78"/></g><g fill="#4e7ee9"><polygon points="300.67 250.14 331.08 363.78 335.97 345.83"/><polygon points="341.05 321.97 308.91 245.22 295.8 232.01"/><polygon points="409.48 272.05 392.8 276.6 327.81 264.11 326.94 261.52"/></g><g fill="#cbd9f7"><polygon points="409.43 262.5 295.8 232.01 308.91 245.22"/><polygon points="340.37 329.11 300.67 250.14 335.97 345.83"/><polygon points="392.8 276.6 344.25 350.47 409.48 272.05"/><polygon points="326.94 261.52 409.48 272.05 427.47 267.31"/><polygon points="335.97 345.83 340.37 329.11 383.68 279.08 386.36 279.62"/><polygon points="308.91 245.22 321.19 257.39 342.86 319.91 341.05 321.97"/></g></g></svg>
